<svg viewBox="0 0 600 139" xmlns="http://www.w3.org/2000/svg"><g fill="none" stroke-width="2"><path d="m176.75 111.96c8.45.27 13.06-10.74 15.01-17.37q.14-.5-.23-.86-5.22-5.03-8.23-11.13" stroke="#002952"/><path d="m183.3 82.6q-2.7-6.46-3.59-13.1" stroke="#003461"/><path d="m179.71 69.5q-1.09-19.75 13.29-32.51.37-.33.18-.79c-3.24-7.87-7.98-15.04-17.68-14.41" stroke="#003c6c"/><path d="m175.5 21.79q-15.54-.15-32.82 3.08-48.07 8.99-91.67 25.66c-7.67 2.93-21.6 8.33-26.46 14.52-4.5 5.74 21.91 17.02 25.81 18.66q40.4 16.96 83.4 25.74c14.39 2.94 29.64 5.55 42.99 2.51" stroke="#7a7a7a"/><path d="m175.5 21.79q-12.03 9.9-16.81 25.15-4.13 13.17-2.15 26.31" stroke="#7ab6e6"/><path d="m156.54 73.25q.37 5.01 2 9.75" stroke="#7aaedb"/><path d="m158.54 83q4.82 17.21 18.21 28.96" stroke="#7aa3cc"/><path d="m179.71 69.5q-1.25 0-1.26-.89a.68.68 0 0 0 -1.08-.55q-7.66 5.48-17.16 6.16-.56.04-.66.59l-.43 2.4q-.13.68-.38.04-.63-1.62-.39-3.38.08-.58-.48-.73-.68-.18-1.33.11" stroke="#0070cc"/><path d="m183.3 82.6q-9.38 5.7-20.26 6.84-.23.02-.38.37-.2.46-.39 0c-.7-1.73-1.6-6.84-3.73-6.81" stroke="#005db3"/></g><path d="m236.13 92.69a.32.32 0 0 0 -.54-.23c-11.42 11.45-28.4 12.38-41.79 3.12q-.55-.38-.79.24c-3.09 7.89-8.16 16.69-16.52 18.63-10.65 2.47-23.03 1.16-33.7-.75q-50.25-9.01-97.87-29.6c-6.04-2.62-31.64-13.48-20.62-22.52 10.5-8.63 26.83-14.29 39.66-18.7q37.93-13.03 79.46-20.75 14.74-2.73 28.61-2.76c11.99-.03 18.01 4.96 22.59 15.67q.21.51.69.22c12.44-7.42 28.46-7.1 39.69 2.69a.5.5 0 0 0 .83-.39l-.11-4.91q-.01-.65.63-.65h22.15q.75 0 .75.75v66.75a.5.5 0 0 1 -.5.5h-21.54q-1.3 0-1.26-1.3zm-59.38 19.27c8.45.27 13.06-10.74 15.01-17.37q.14-.5-.23-.86-5.22-5.03-8.23-11.13-2.7-6.46-3.59-13.1-1.09-19.75 13.29-32.51.37-.33.18-.79c-3.24-7.87-7.98-15.04-17.68-14.41q-15.54-.15-32.82 3.08-48.07 8.99-91.67 25.66c-7.67 2.93-21.6 8.33-26.46 14.52-4.5 5.74 21.91 17.02 25.81 18.66q40.4 16.96 83.4 25.74c14.39 2.94 29.64 5.55 42.99 2.51zm59.59-45.91a15.94 15.94 0 0 0 -15.94-15.94 15.94 15.94 0 0 0 -15.94 15.94 15.94 15.94 0 0 0 15.94 15.94 15.94 15.94 0 0 0 15.94-15.94z"/><path d="m175.5 21.79q-12.03 9.9-16.81 25.15-4.13 13.17-2.15 26.31.37 5.01 2 9.75 4.82 17.21 18.21 28.96c-13.35 3.04-28.6.43-42.99-2.51q-43-8.78-83.4-25.74c-3.9-1.64-30.31-12.92-25.81-18.66 4.86-6.19 18.79-11.59 26.46-14.52q43.6-16.67 91.67-25.66 17.28-3.23 32.82-3.08z" fill="#f4f4f4"/><path d="m175.5 21.79c9.7-.63 14.44 6.54 17.68 14.41q.19.46-.18.79-14.38 12.76-13.29 32.51-1.25 0-1.26-.89a.68.68 0 0 0 -1.08-.55q-7.66 5.48-17.16 6.16-.56.04-.66.59l-.43 2.4q-.13.68-.38.04-.63-1.62-.39-3.38.08-.58-.48-.73-.68-.18-1.33.11-1.98-13.14 2.15-26.31 4.78-15.25 16.81-25.15z" fill="#0078d7"/><path d="m396.51 95.58c-6.77 6.08-16.71 6.83-25.68 6.04-39.29-3.46-39.91-66.88-.04-71.27q14.58-1.6 25.74 7.65a.29.29 0 0 0 .47-.22l.01-5.13q0-.65.65-.65h22.32q.5 0 .5.5.07 31.61 0 63.21-.03 12.25-1.59 17.29c-6.81 22.04-33.51 26.38-52.93 21.73-10.81-2.58-18.12-7.69-22.97-17.45a.71.7 63.8 0 1 .32-.95l17.99-8.79q.47-.23.81.17 8.69 10.13 22.13 7.71c10.49-1.88 13.14-10.05 12.76-19.63q-.02-.62-.49-.21zm1.13-29.54a15.94 15.94 0 0 0 -15.94-15.94 15.94 15.94 0 0 0 -15.94 15.94 15.94 15.94 0 0 0 15.94 15.94 15.94 15.94 0 0 0 15.94-15.94z"/><path d="m529.76 41.44q14-17.73 34.93-7.62a.65.64-64.2 0 1 .3.88l-9.24 18.82a.54.53 26.8 0 1 -.74.24c-8.38-4.5-19.72-5.49-24.26 4.7q-1.42 3.2-1.46 9.67-.1 15.73-.02 31.5a.36.36 0 0 1 -.36.37h-22.53q-.63 0-.63-.63v-66.87a.5.5 0 0 1 .5-.5h22.38q.62 0 .62.63v8.63a.29.29 0 0 0 .51.18z"/><path d="m287.81 67.41c.1 11.22 6.25 17.85 17.95 14.87 6.96-1.77 8.57-9.35 8.64-15.59q.17-17.13.08-34.33a.36.36 0 0 1 .36-.36h22.43a.67.67 0 0 1 .67.66q.25 21.16-.15 42.34c-.32 17.33-13.97 25.93-29.98 26.57-20.07.8-42.51-1.43-43.44-27.01q-.35-9.73-.04-42.11.01-.45.45-.45h21.47q1.56 0 1.51 1.55c-.37 11.43-.05 22.61.05 33.86z"/><path d="m450.96 75.26c2.02 7.21 10.77 8.72 16.93 6.9 8.68-2.56 8.58-13.02 8.56-20.16q-.03-14.75.1-29.51 0-.49.49-.49h22.19a.69.69 0 0 1 .69.68q.31 18.26-.17 36.46-.27 10.65-2.06 15.48c-5.96 16.09-24.69 18.14-39.79 17.12-13.94-.95-25.71-4.82-30.01-18.47q-1.45-4.59-1.7-16.58-.34-16.83-.14-33.74a.96.95-89.7 0 1 .95-.95h21.96q.51 0 .51.5.09 14.96.03 29.74-.03 7.71 1.46 13.02z"/><path d="m179.71 69.5q.89 6.64 3.59 13.1-9.38 5.7-20.26 6.84-.23.02-.38.37-.2.46-.39 0c-.7-1.73-1.6-6.84-3.73-6.81q-1.63-4.74-2-9.75.65-.29 1.33-.11.56.15.48.73-.24 1.76.39 3.38.25.64.38-.04l.43-2.4q.1-.55.66-.59 9.5-.68 17.16-6.16a.68.68 0 0 1 1.08.55q.01.89 1.26.89z" fill="#0068c1"/><path d="m183.3 82.6q3.01 6.1 8.23 11.13.37.36.23.86c-1.95 6.63-6.56 17.64-15.01 17.37q-13.39-11.75-18.21-28.96c2.13-.03 3.03 5.08 3.73 6.81q.19.46.39 0 .15-.35.38-.37 10.88-1.14 20.26-6.84z" fill="#0052a4"/></svg>