<?xml version="1.0" encoding="UTF-8" standalone="no"?>
<!DOCTYPE svg PUBLIC "-//W3C//DTD SVG 1.1//EN" "http://www.w3.org/Graphics/SVG/1.1/DTD/svg11.dtd">
<svg xmlns="http://www.w3.org/2000/svg" version="1.1" viewBox="0.00 0.00 473.00 287.00">
<g stroke-width="2.00" fill="none" stroke-linecap="butt">
<path stroke="#5a5a5a" vector-effect="non-scaling-stroke" d="
  M 335.13 84.30
  L 342.46 115.98"
/>
<path stroke="#5a5a5a" vector-effect="non-scaling-stroke" d="
  M 85.04 216.00
  L 63.24 188.55"
/>
<path stroke="#5a5a5a" vector-effect="non-scaling-stroke" d="
  M 73.66 120.70
  Q 81.59 128.28 82.45 139.08"
/>
<path stroke="#5976b3" vector-effect="non-scaling-stroke" d="
  M 82.45 139.08
  Q 79.81 149.61 75.00 171.24
  Q 74.03 175.61 75.05 179.89"
/>
<path stroke="#5a5a5a" vector-effect="non-scaling-stroke" d="
  M 75.05 179.89
  Q 76.86 185.58 81.06 190.58
  C 86.37 196.91 91.50 203.38 96.96 209.64"
/>
<path stroke="#5976b3" vector-effect="non-scaling-stroke" d="
  M 96.96 209.64
  Q 118.47 236.54 140.24 263.40
  C 145.10 269.40 149.16 273.49 156.50 273.49
  Q 206.50 273.52 256.50 273.49
  C 265.38 273.48 269.90 272.33 275.17 265.67
  Q 294.06 241.81 312.96 217.54"
/>
<path stroke="#5a5a5a" vector-effect="non-scaling-stroke" d="
  M 312.96 217.54
  L 328.39 217.51
  A 0.83 0.82 -89.6 0 0 329.21 216.69
  L 329.54 197.28"
/>
<path stroke="#5976b3" vector-effect="non-scaling-stroke" d="
  M 329.54 197.28
  C 336.00 190.54 344.18 181.80 342.52 173.49
  Q 339.80 159.90 329.56 116.98"
/>
<path stroke="#5a5a5a" vector-effect="non-scaling-stroke" d="
  M 329.56 116.98
  L 322.45 85.92"
/>
<path stroke="#5976b3" vector-effect="non-scaling-stroke" d="
  M 322.45 85.92
  Q 321.17 79.97 319.66 73.94
  C 317.02 63.32 312.99 61.47 304.00 57.14
  Q 261.87 36.85 219.64 16.80
  C 213.09 13.69 207.71 11.99 201.48 14.95
  Q 155.00 37.07 108.59 59.36
  C 102.37 62.35 99.03 67.24 97.45 73.74
  Q 95.39 82.24 93.08 90.85"
/>
<path stroke="#5a5a5a" vector-effect="non-scaling-stroke" d="
  M 93.08 90.85
  Q 87.31 88.02 81.64 86.31"
/>
<path stroke="#33508c" vector-effect="non-scaling-stroke" d="
  M 322.45 85.92
  Q 307.42 87.84 292.71 91.23
  A 0.21 0.20 -7.2 0 0 292.55 91.43
  L 292.27 155.69
  A 2.16 2.15 -86.2 0 0 294.15 157.84
  Q 302.97 158.94 311.71 160.11
  C 320.52 161.30 320.54 169.97 316.92 175.96
  C 312.41 183.43 299.66 176.87 293.56 174.49
  A 0.78 0.78 0.0 0 0 292.49 175.22
  L 292.50 216.83
  Q 292.50 217.46 293.13 217.46
  L 312.96 217.54"
/>
<path stroke="#33508c" vector-effect="non-scaling-stroke" d="
  M 96.96 209.64
  Q 111.07 195.85 117.91 177.30
  A 0.72 0.72 0.0 0 0 116.99 176.37
  C 110.08 178.85 100.52 183.72 96.00 175.07
  Q 93.64 170.56 95.04 166.17
  C 98.30 156.01 113.14 160.61 120.86 156.84
  Q 121.34 156.60 121.36 156.07
  C 122.30 130.59 115.52 105.26 93.08 90.85"
/>
<path stroke="#99b6f2" vector-effect="non-scaling-stroke" d="
  M 177.93 221.72
  Q 178.37 220.98 179.18 221.27
  Q 206.90 231.25 234.70 221.31
  Q 235.21 221.13 235.44 221.61
  L 236.11 223.00
  Q 236.39 223.59 237.01 223.76
  C 244.00 225.70 242.45 243.03 249.81 246.44
  C 253.71 248.24 257.18 245.83 258.09 242.03
  C 259.84 234.80 246.48 226.71 248.07 217.56
  Q 248.16 217.06 247.90 216.62
  L 247.51 215.94
  Q 247.22 215.44 247.72 215.13
  Q 273.17 199.37 282.79 171.00
  A 0.30 0.29 -72.9 0 1 283.14 170.81
  Q 285.19 171.39 286.96 170.30
  A 2.06 2.02 -61.1 0 1 287.93 170.01
  C 292.65 169.88 299.72 173.02 306.53 175.53
  Q 308.25 176.16 310.78 175.30
  C 318.01 172.82 315.18 163.85 308.65 163.28
  Q 300.62 162.58 292.69 161.28
  C 289.88 160.82 288.73 157.55 286.66 157.74
  A 0.66 0.65 1.0 0 1 285.95 157.01
  Q 289.39 127.27 273.28 102.41
  A 0.56 0.56 0.0 0 1 273.48 101.62
  Q 275.69 100.40 275.62 97.80
  Q 275.61 97.25 276.03 96.90
  Q 282.05 91.91 288.99 88.29
  C 301.19 81.92 290.93 69.12 282.90 77.67
  C 279.07 81.74 272.03 90.32 267.62 89.72
  A 1.28 1.27 -58.0 0 0 266.72 89.93
  L 264.91 91.21
  Q 264.53 91.48 264.20 91.15
  Q 243.44 70.00 213.84 66.83
  A 0.71 0.71 0.0 0 1 213.24 65.91
  Q 213.89 63.89 212.07 62.79
  A 1.28 1.27 -79.4 0 1 211.48 61.92
  C 210.60 56.73 211.94 50.03 212.73 44.75
  C 214.61 32.15 198.59 32.89 200.53 44.49
  C 201.40 49.66 203.71 60.26 200.16 63.97
  Q 199.80 64.34 199.96 64.84
  C 200.49 66.48 199.75 66.81 198.27 66.97
  Q 169.88 70.13 149.12 90.77
  Q 148.43 91.46 147.70 90.81
  Q 146.35 89.61 144.48 90.05
  A 1.40 1.37 -36.9 0 1 143.48 89.92
  C 139.16 87.54 134.60 82.34 131.80 79.21
  C 122.31 68.58 112.83 81.49 122.55 87.24
  C 127.18 89.97 137.53 95.14 137.96 99.69
  Q 138.01 100.29 138.48 100.66
  L 139.69 101.60
  A 0.64 0.64 0.0 0 1 139.83 102.45
  Q 123.81 127.38 127.43 157.08
  Q 127.50 157.68 126.90 157.76
  Q 124.49 158.11 123.40 160.30
  A 1.12 1.09 6.4 0 1 122.67 160.87
  Q 114.97 162.74 107.06 163.13
  C 93.35 163.81 97.82 179.04 107.45 175.46
  C 113.55 173.19 120.13 170.25 125.14 169.99
  Q 125.71 169.96 126.15 170.32
  Q 127.80 171.65 129.82 170.92
  Q 130.52 170.66 130.76 171.37
  Q 140.53 199.35 165.76 214.86
  Q 166.19 215.12 165.96 215.57
  L 165.14 217.24
  Q 164.89 217.74 165.09 218.27
  C 166.65 222.40 160.33 230.83 156.42 236.68
  C 150.89 244.94 163.69 253.31 168.13 240.02
  C 169.40 236.24 172.24 224.96 176.28 223.77
  A 1.39 1.37 -82.3 0 0 177.08 223.15
  L 177.93 221.72"
/>
<path stroke="#33508c" vector-effect="non-scaling-stroke" d="
  M 75.05 179.89
  C 84.16 168.19 85.14 152.89 82.45 139.08"
/>
<path stroke="#99b6f2" vector-effect="non-scaling-stroke" d="
  M 162.14 100.92
  Q 175.04 110.29 187.09 118.62
  C 192.35 122.26 196.61 120.33 197.06 113.91
  Q 198.11 98.90 198.85 83.72
  Q 198.87 83.12 198.28 83.21
  Q 177.36 86.18 162.12 100.61
  A 0.20 0.20 0.0 0 0 162.14 100.92"
/>
<path stroke="#99b6f2" vector-effect="non-scaling-stroke" d="
  M 250.72 100.46
  Q 235.55 86.20 214.83 83.22
  A 0.30 0.30 0.0 0 0 214.49 83.53
  Q 215.21 99.13 216.27 114.58
  C 216.76 121.77 222.27 121.31 227.00 118.00
  Q 239.03 109.57 250.66 101.25
  A 0.52 0.51 -41.3 0 0 250.72 100.46"
/>
<path stroke="#99b6f2" vector-effect="non-scaling-stroke" d="
  M 173.16 131.58
  Q 163.30 122.82 152.82 113.51
  Q 152.26 113.01 151.88 113.66
  Q 141.34 131.58 143.26 152.43
  A 0.45 0.44 79.7 0 0 143.82 152.82
  Q 158.02 148.79 172.05 144.68
  C 181.38 141.94 178.59 136.41 173.16 131.58"
/>
<path stroke="#99b6f2" vector-effect="non-scaling-stroke" d="
  M 240.73 144.21
  Q 254.97 148.77 269.56 152.61
  Q 270.09 152.75 270.13 152.19
  Q 271.66 131.27 261.08 113.32
  A 0.32 0.32 0.0 0 0 260.59 113.25
  Q 249.47 123.20 238.52 133.06
  C 233.41 137.65 233.79 141.99 240.73 144.21"
/>
<path stroke="#99b6f2" vector-effect="non-scaling-stroke" d="
  M 197.68 153.16
  A 0.61 0.61 0.0 0 0 198.01 153.57
  L 206.37 157.63
  A 0.61 0.61 0.0 0 0 206.89 157.63
  L 215.25 153.67
  A 0.61 0.61 0.0 0 0 215.59 153.25
  L 217.66 144.23
  A 0.61 0.61 0.0 0 0 217.55 143.71
  L 211.81 136.48
  A 0.61 0.61 0.0 0 0 211.34 136.25
  L 201.95 136.25
  A 0.61 0.61 0.0 0 0 201.48 136.48
  L 195.69 143.67
  A 0.61 0.61 0.0 0 0 195.57 144.19
  L 197.68 153.16"
/>
<path stroke="#99b6f2" vector-effect="non-scaling-stroke" d="
  M 183.68 172.43
  C 185.95 166.80 184.30 161.81 177.24 162.97
  Q 162.13 165.46 147.24 168.06
  A 0.38 0.37 -15.4 0 0 146.95 168.56
  Q 154.45 188.10 171.83 199.68
  Q 172.27 199.97 172.48 199.49
  Q 178.19 186.01 183.68 172.43"
/>
<path stroke="#99b6f2" vector-effect="non-scaling-stroke" d="
  M 266.19 167.98
  C 255.89 165.95 245.38 164.36 235.00 162.78
  C 230.18 162.05 227.09 166.13 228.85 170.42
  Q 234.90 185.08 240.85 199.52
  A 0.58 0.58 0.0 0 0 241.71 199.78
  Q 259.11 188.16 266.49 168.53
  A 0.41 0.41 0.0 0 0 266.19 167.98"
/>
<path stroke="#99b6f2" vector-effect="non-scaling-stroke" d="
  M 211.82 179.19
  C 208.95 174.02 203.92 175.06 201.33 179.68
  Q 193.81 193.06 186.59 206.25
  A 0.52 0.52 0.0 0 0 186.89 206.99
  Q 206.80 213.20 226.73 206.97
  Q 227.17 206.83 226.95 206.43
  Q 219.36 192.77 211.82 179.19"
/>
<path stroke="#33508c" vector-effect="non-scaling-stroke" d="
  M 329.56 116.98
  L 329.54 197.28"
/>
</g>
<path fill="#808080" d="
  M 206.81 0.00
  L 210.31 0.00
  Q 214.86 0.86 222.00 4.26
  Q 268.71 26.48 315.36 48.84
  C 323.80 52.88 328.63 56.02 330.73 64.75
  Q 333.06 74.49 335.13 84.30
  L 342.46 115.98
  Q 349.14 143.98 355.41 172.03
  C 357.25 180.27 356.67 185.77 351.52 192.01
  Q 318.53 231.98 281.73 278.97
  Q 276.35 285.85 267.19 287.00
  L 150.18 287.00
  C 139.94 285.57 136.80 280.46 129.45 271.33
  Q 107.18 243.65 85.04 216.00
  L 63.24 188.55
  Q 59.64 181.78 60.81 176.56
  Q 67.00 148.99 73.66 120.70
  Q 81.59 128.28 82.45 139.08
  Q 79.81 149.61 75.00 171.24
  Q 74.03 175.61 75.05 179.89
  Q 76.86 185.58 81.06 190.58
  C 86.37 196.91 91.50 203.38 96.96 209.64
  Q 118.47 236.54 140.24 263.40
  C 145.10 269.40 149.16 273.49 156.50 273.49
  Q 206.50 273.52 256.50 273.49
  C 265.38 273.48 269.90 272.33 275.17 265.67
  Q 294.06 241.81 312.96 217.54
  L 328.39 217.51
  A 0.83 0.82 -89.6 0 0 329.21 216.69
  L 329.54 197.28
  C 336.00 190.54 344.18 181.80 342.52 173.49
  Q 339.80 159.90 329.56 116.98
  L 322.45 85.92
  Q 321.17 79.97 319.66 73.94
  C 317.02 63.32 312.99 61.47 304.00 57.14
  Q 261.87 36.85 219.64 16.80
  C 213.09 13.69 207.71 11.99 201.48 14.95
  Q 155.00 37.07 108.59 59.36
  C 102.37 62.35 99.03 67.24 97.45 73.74
  Q 95.39 82.24 93.08 90.85
  Q 87.31 88.02 81.64 86.31
  Q 83.08 79.47 84.58 73.02
  C 87.65 59.82 88.51 55.28 100.17 49.70
  Q 150.34 25.65 200.57 1.72
  C 202.54 0.78 204.70 0.47 206.81 0.00
  Z"
/>
<path fill="#326ce5" d="
  M 322.45 85.92
  Q 307.42 87.84 292.71 91.23
  A 0.21 0.20 -7.2 0 0 292.55 91.43
  L 292.27 155.69
  A 2.16 2.15 -86.2 0 0 294.15 157.84
  Q 302.97 158.94 311.71 160.11
  C 320.52 161.30 320.54 169.97 316.92 175.96
  C 312.41 183.43 299.66 176.87 293.56 174.49
  A 0.78 0.78 0.0 0 0 292.49 175.22
  L 292.50 216.83
  Q 292.50 217.46 293.13 217.46
  L 312.96 217.54
  Q 294.06 241.81 275.17 265.67
  C 269.90 272.33 265.38 273.48 256.50 273.49
  Q 206.50 273.52 156.50 273.49
  C 149.16 273.49 145.10 269.40 140.24 263.40
  Q 118.47 236.54 96.96 209.64
  Q 111.07 195.85 117.91 177.30
  A 0.72 0.72 0.0 0 0 116.99 176.37
  C 110.08 178.85 100.52 183.72 96.00 175.07
  Q 93.64 170.56 95.04 166.17
  C 98.30 156.01 113.14 160.61 120.86 156.84
  Q 121.34 156.60 121.36 156.07
  C 122.30 130.59 115.52 105.26 93.08 90.85
  Q 95.39 82.24 97.45 73.74
  C 99.03 67.24 102.37 62.35 108.59 59.36
  Q 155.00 37.07 201.48 14.95
  C 207.71 11.99 213.09 13.69 219.64 16.80
  Q 261.87 36.85 304.00 57.14
  C 312.99 61.47 317.02 63.32 319.66 73.94
  Q 321.17 79.97 322.45 85.92
  Z
  M 177.93 221.72
  Q 178.37 220.98 179.18 221.27
  Q 206.90 231.25 234.70 221.31
  Q 235.21 221.13 235.44 221.61
  L 236.11 223.00
  Q 236.39 223.59 237.01 223.76
  C 244.00 225.70 242.45 243.03 249.81 246.44
  C 253.71 248.24 257.18 245.83 258.09 242.03
  C 259.84 234.80 246.48 226.71 248.07 217.56
  Q 248.16 217.06 247.90 216.62
  L 247.51 215.94
  Q 247.22 215.44 247.72 215.13
  Q 273.17 199.37 282.79 171.00
  A 0.30 0.29 -72.9 0 1 283.14 170.81
  Q 285.19 171.39 286.96 170.30
  A 2.06 2.02 -61.1 0 1 287.93 170.01
  C 292.65 169.88 299.72 173.02 306.53 175.53
  Q 308.25 176.16 310.78 175.30
  C 318.01 172.82 315.18 163.85 308.65 163.28
  Q 300.62 162.58 292.69 161.28
  C 289.88 160.82 288.73 157.55 286.66 157.74
  A 0.66 0.65 1.0 0 1 285.95 157.01
  Q 289.39 127.27 273.28 102.41
  A 0.56 0.56 0.0 0 1 273.48 101.62
  Q 275.69 100.40 275.62 97.80
  Q 275.61 97.25 276.03 96.90
  Q 282.05 91.91 288.99 88.29
  C 301.19 81.92 290.93 69.12 282.90 77.67
  C 279.07 81.74 272.03 90.32 267.62 89.72
  A 1.28 1.27 -58.0 0 0 266.72 89.93
  L 264.91 91.21
  Q 264.53 91.48 264.20 91.15
  Q 243.44 70.00 213.84 66.83
  A 0.71 0.71 0.0 0 1 213.24 65.91
  Q 213.89 63.89 212.07 62.79
  A 1.28 1.27 -79.4 0 1 211.48 61.92
  C 210.60 56.73 211.94 50.03 212.73 44.75
  C 214.61 32.15 198.59 32.89 200.53 44.49
  C 201.40 49.66 203.71 60.26 200.16 63.97
  Q 199.80 64.34 199.96 64.84
  C 200.49 66.48 199.75 66.81 198.27 66.97
  Q 169.88 70.13 149.12 90.77
  Q 148.43 91.46 147.70 90.81
  Q 146.35 89.61 144.48 90.05
  A 1.40 1.37 -36.9 0 1 143.48 89.92
  C 139.16 87.54 134.60 82.34 131.80 79.21
  C 122.31 68.58 112.83 81.49 122.55 87.24
  C 127.18 89.97 137.53 95.14 137.96 99.69
  Q 138.01 100.29 138.48 100.66
  L 139.69 101.60
  A 0.64 0.64 0.0 0 1 139.83 102.45
  Q 123.81 127.38 127.43 157.08
  Q 127.50 157.68 126.90 157.76
  Q 124.49 158.11 123.40 160.30
  A 1.12 1.09 6.4 0 1 122.67 160.87
  Q 114.97 162.74 107.06 163.13
  C 93.35 163.81 97.82 179.04 107.45 175.46
  C 113.55 173.19 120.13 170.25 125.14 169.99
  Q 125.71 169.96 126.15 170.32
  Q 127.80 171.65 129.82 170.92
  Q 130.52 170.66 130.76 171.37
  Q 140.53 199.35 165.76 214.86
  Q 166.19 215.12 165.96 215.57
  L 165.14 217.24
  Q 164.89 217.74 165.09 218.27
  C 166.65 222.40 160.33 230.83 156.42 236.68
  C 150.89 244.94 163.69 253.31 168.13 240.02
  C 169.40 236.24 172.24 224.96 176.28 223.77
  A 1.39 1.37 -82.3 0 0 177.08 223.15
  L 177.93 221.72
  Z"
/>
<path fill="#333333" d="
  M 81.64 86.31
  Q 87.31 88.02 93.08 90.85
  C 115.52 105.26 122.30 130.59 121.36 156.07
  Q 121.34 156.60 120.86 156.84
  C 113.14 160.61 98.30 156.01 95.04 166.17
  Q 93.64 170.56 96.00 175.07
  C 100.52 183.72 110.08 178.85 116.99 176.37
  A 0.72 0.72 0.0 0 1 117.91 177.30
  Q 111.07 195.85 96.96 209.64
  C 91.50 203.38 86.37 196.91 81.06 190.58
  Q 76.86 185.58 75.05 179.89
  C 84.16 168.19 85.14 152.89 82.45 139.08
  Q 81.59 128.28 73.66 120.70
  C 64.50 112.94 47.31 114.47 37.40 120.34
  Q 37.00 120.57 37.00 121.03
  L 37.00 187.49
  Q 37.00 187.95 37.46 188.02
  Q 50.39 189.97 63.24 188.55
  L 85.04 216.00
  C 57.44 223.52 27.09 220.74 0.00 213.18
  L 0.00 30.85
  L 36.71 24.84
  A 0.25 0.25 0.0 0 1 37.00 25.09
  L 37.00 89.24
  Q 37.00 89.87 37.58 89.62
  Q 58.84 80.61 81.64 86.31
  Z"
/>
<path fill="#ffffff" d="
  M 177.93 221.72
  L 177.08 223.15
  A 1.39 1.37 -82.3 0 1 176.28 223.77
  C 172.24 224.96 169.40 236.24 168.13 240.02
  C 163.69 253.31 150.89 244.94 156.42 236.68
  C 160.33 230.83 166.65 222.40 165.09 218.27
  Q 164.89 217.74 165.14 217.24
  L 165.96 215.57
  Q 166.19 215.12 165.76 214.86
  Q 140.53 199.35 130.76 171.37
  Q 130.52 170.66 129.82 170.92
  Q 127.80 171.65 126.15 170.32
  Q 125.71 169.96 125.14 169.99
  C 120.13 170.25 113.55 173.19 107.45 175.46
  C 97.82 179.04 93.35 163.81 107.06 163.13
  Q 114.97 162.74 122.67 160.87
  A 1.12 1.09 6.4 0 0 123.40 160.30
  Q 124.49 158.11 126.90 157.76
  Q 127.50 157.68 127.43 157.08
  Q 123.81 127.38 139.83 102.45
  A 0.64 0.64 0.0 0 0 139.69 101.60
  L 138.48 100.66
  Q 138.01 100.29 137.96 99.69
  C 137.53 95.14 127.18 89.97 122.55 87.24
  C 112.83 81.49 122.31 68.58 131.80 79.21
  C 134.60 82.34 139.16 87.54 143.48 89.92
  A 1.40 1.37 -36.9 0 0 144.48 90.05
  Q 146.35 89.61 147.70 90.81
  Q 148.43 91.46 149.12 90.77
  Q 169.88 70.13 198.27 66.97
  C 199.75 66.81 200.49 66.48 199.96 64.84
  Q 199.80 64.34 200.16 63.97
  C 203.71 60.26 201.40 49.66 200.53 44.49
  C 198.59 32.89 214.61 32.15 212.73 44.75
  C 211.94 50.03 210.60 56.73 211.48 61.92
  A 1.28 1.27 -79.4 0 0 212.07 62.79
  Q 213.89 63.89 213.24 65.91
  A 0.71 0.71 0.0 0 0 213.84 66.83
  Q 243.44 70.00 264.20 91.15
  Q 264.53 91.48 264.91 91.21
  L 266.72 89.93
  A 1.28 1.27 -58.0 0 1 267.62 89.72
  C 272.03 90.32 279.07 81.74 282.90 77.67
  C 290.93 69.12 301.19 81.92 288.99 88.29
  Q 282.05 91.91 276.03 96.90
  Q 275.61 97.25 275.62 97.80
  Q 275.69 100.40 273.48 101.62
  A 0.56 0.56 0.0 0 0 273.28 102.41
  Q 289.39 127.27 285.95 157.01
  A 0.66 0.65 1.0 0 0 286.66 157.74
  C 288.73 157.55 289.88 160.82 292.69 161.28
  Q 300.62 162.58 308.65 163.28
  C 315.18 163.85 318.01 172.82 310.78 175.30
  Q 308.25 176.16 306.53 175.53
  C 299.72 173.02 292.65 169.88 287.93 170.01
  A 2.06 2.02 -61.1 0 0 286.96 170.30
  Q 285.19 171.39 283.14 170.81
  A 0.30 0.29 -72.9 0 0 282.79 171.00
  Q 273.17 199.37 247.72 215.13
  Q 247.22 215.44 247.51 215.94
  L 247.90 216.62
  Q 248.16 217.06 248.07 217.56
  C 246.48 226.71 259.84 234.80 258.09 242.03
  C 257.18 245.83 253.71 248.24 249.81 246.44
  C 242.45 243.03 244.00 225.70 237.01 223.76
  Q 236.39 223.59 236.11 223.00
  L 235.44 221.61
  Q 235.21 221.13 234.70 221.31
  Q 206.90 231.25 179.18 221.27
  Q 178.37 220.98 177.93 221.72
  Z
  M 162.14 100.92
  Q 175.04 110.29 187.09 118.62
  C 192.35 122.26 196.61 120.33 197.06 113.91
  Q 198.11 98.90 198.85 83.72
  Q 198.87 83.12 198.28 83.21
  Q 177.36 86.18 162.12 100.61
  A 0.20 0.20 0.0 0 0 162.14 100.92
  Z
  M 250.72 100.46
  Q 235.55 86.20 214.83 83.22
  A 0.30 0.30 0.0 0 0 214.49 83.53
  Q 215.21 99.13 216.27 114.58
  C 216.76 121.77 222.27 121.31 227.00 118.00
  Q 239.03 109.57 250.66 101.25
  A 0.52 0.51 -41.3 0 0 250.72 100.46
  Z
  M 173.16 131.58
  Q 163.30 122.82 152.82 113.51
  Q 152.26 113.01 151.88 113.66
  Q 141.34 131.58 143.26 152.43
  A 0.45 0.44 79.7 0 0 143.82 152.82
  Q 158.02 148.79 172.05 144.68
  C 181.38 141.94 178.59 136.41 173.16 131.58
  Z
  M 240.73 144.21
  Q 254.97 148.77 269.56 152.61
  Q 270.09 152.75 270.13 152.19
  Q 271.66 131.27 261.08 113.32
  A 0.32 0.32 0.0 0 0 260.59 113.25
  Q 249.47 123.20 238.52 133.06
  C 233.41 137.65 233.79 141.99 240.73 144.21
  Z
  M 197.68 153.16
  A 0.61 0.61 0.0 0 0 198.01 153.57
  L 206.37 157.63
  A 0.61 0.61 0.0 0 0 206.89 157.63
  L 215.25 153.67
  A 0.61 0.61 0.0 0 0 215.59 153.25
  L 217.66 144.23
  A 0.61 0.61 0.0 0 0 217.55 143.71
  L 211.81 136.48
  A 0.61 0.61 0.0 0 0 211.34 136.25
  L 201.95 136.25
  A 0.61 0.61 0.0 0 0 201.48 136.48
  L 195.69 143.67
  A 0.61 0.61 0.0 0 0 195.57 144.19
  L 197.68 153.16
  Z
  M 183.68 172.43
  C 185.95 166.80 184.30 161.81 177.24 162.97
  Q 162.13 165.46 147.24 168.06
  A 0.38 0.37 -15.4 0 0 146.95 168.56
  Q 154.45 188.10 171.83 199.68
  Q 172.27 199.97 172.48 199.49
  Q 178.19 186.01 183.68 172.43
  Z
  M 266.19 167.98
  C 255.89 165.95 245.38 164.36 235.00 162.78
  C 230.18 162.05 227.09 166.13 228.85 170.42
  Q 234.90 185.08 240.85 199.52
  A 0.58 0.58 0.0 0 0 241.71 199.78
  Q 259.11 188.16 266.49 168.53
  A 0.41 0.41 0.0 0 0 266.19 167.98
  Z
  M 211.82 179.19
  C 208.95 174.02 203.92 175.06 201.33 179.68
  Q 193.81 193.06 186.59 206.25
  A 0.52 0.52 0.0 0 0 186.89 206.99
  Q 206.80 213.20 226.73 206.97
  Q 227.17 206.83 226.95 206.43
  Q 219.36 192.77 211.82 179.19
  Z"
/>
<path fill="#326ce5" d="
  M 162.14 100.92
  A 0.20 0.20 0.0 0 1 162.12 100.61
  Q 177.36 86.18 198.28 83.21
  Q 198.87 83.12 198.85 83.72
  Q 198.11 98.90 197.06 113.91
  C 196.61 120.33 192.35 122.26 187.09 118.62
  Q 175.04 110.29 162.14 100.92
  Z"
/>
<path fill="#326ce5" d="
  M 250.72 100.46
  A 0.52 0.51 -41.3 0 1 250.66 101.25
  Q 239.03 109.57 227.00 118.00
  C 222.27 121.31 216.76 121.77 216.27 114.58
  Q 215.21 99.13 214.49 83.53
  A 0.30 0.30 0.0 0 1 214.83 83.22
  Q 235.55 86.20 250.72 100.46
  Z"
/>
<path fill="#333333" d="
  M 473.00 140.06
  L 473.00 217.39
  L 436.46 217.45
  A 0.44 0.44 0.0 0 1 436.02 217.01
  Q 436.04 180.67 435.78 144.31
  C 435.67 128.99 432.27 113.83 412.96 115.64
  Q 406.47 116.25 399.11 120.22
  Q 398.70 120.45 398.79 120.90
  Q 401.15 132.50 401.20 147.25
  Q 401.31 182.25 401.23 217.00
  A 0.50 0.50 0.0 0 1 400.73 217.50
  L 364.77 217.50
  A 0.53 0.53 0.0 0 1 364.24 216.97
  Q 364.31 182.31 364.13 147.56
  C 364.05 132.08 362.63 115.83 342.46 115.98
  L 335.13 84.30
  C 353.17 83.24 368.41 84.21 383.18 95.69
  Q 383.56 95.99 383.97 95.72
  Q 406.18 80.93 433.49 84.83
  C 464.42 89.24 472.12 112.37 473.00 140.06
  Z"
/>
<path fill="#333333" d="
  M 322.45 85.92
  L 329.56 116.98
  L 329.54 197.28
  L 329.21 216.69
  A 0.83 0.82 -89.6 0 1 328.39 217.51
  L 312.96 217.54
  L 293.13 217.46
  Q 292.50 217.46 292.50 216.83
  L 292.49 175.22
  A 0.78 0.78 0.0 0 1 293.56 174.49
  C 299.66 176.87 312.41 183.43 316.92 175.96
  C 320.54 169.97 320.52 161.30 311.71 160.11
  Q 302.97 158.94 294.15 157.84
  A 2.16 2.15 -86.2 0 1 292.27 155.69
  L 292.55 91.43
  A 0.21 0.20 -7.2 0 1 292.71 91.23
  Q 307.42 87.84 322.45 85.92
  Z"
/>
<path fill="#326ce5" d="
  M 173.16 131.58
  C 178.59 136.41 181.38 141.94 172.05 144.68
  Q 158.02 148.79 143.82 152.82
  A 0.45 0.44 79.7 0 1 143.26 152.43
  Q 141.34 131.58 151.88 113.66
  Q 152.26 113.01 152.82 113.51
  Q 163.30 122.82 173.16 131.58
  Z"
/>
<path fill="#326ce5" d="
  M 240.73 144.21
  C 233.79 141.99 233.41 137.65 238.52 133.06
  Q 249.47 123.20 260.59 113.25
  A 0.32 0.32 0.0 0 1 261.08 113.32
  Q 271.66 131.27 270.13 152.19
  Q 270.09 152.75 269.56 152.61
  Q 254.97 148.77 240.73 144.21
  Z"
/>
<path fill="#326ce5" d="
  M 329.56 116.98
  Q 339.80 159.90 342.52 173.49
  C 344.18 181.80 336.00 190.54 329.54 197.28
  L 329.56 116.98
  Z"
/>
<path fill="#326ce5" d="
  M 197.68 153.16
  L 195.57 144.19
  A 0.61 0.61 0.0 0 1 195.69 143.67
  L 201.48 136.48
  A 0.61 0.61 0.0 0 1 201.95 136.25
  L 211.34 136.25
  A 0.61 0.61 0.0 0 1 211.81 136.48
  L 217.55 143.71
  A 0.61 0.61 0.0 0 1 217.66 144.23
  L 215.59 153.25
  A 0.61 0.61 0.0 0 1 215.25 153.67
  L 206.89 157.63
  A 0.61 0.61 0.0 0 1 206.37 157.63
  L 198.01 153.57
  A 0.61 0.61 0.0 0 1 197.68 153.16
  Z"
/>
<path fill="#326ce5" d="
  M 82.45 139.08
  C 85.14 152.89 84.16 168.19 75.05 179.89
  Q 74.03 175.61 75.00 171.24
  Q 79.81 149.61 82.45 139.08
  Z"
/>
<path fill="#326ce5" d="
  M 177.24 162.97
  C 184.30 161.81 185.95 166.80 183.68 172.43
  Q 178.19 186.01 172.48 199.49
  Q 172.27 199.97 171.83 199.68
  Q 154.45 188.10 146.95 168.56
  A 0.38 0.37 -15.4 0 1 147.24 168.06
  Q 162.13 165.46 177.24 162.97
  Z"
/>
<path fill="#326ce5" d="
  M 235.00 162.78
  C 245.38 164.36 255.89 165.95 266.19 167.98
  A 0.41 0.41 0.0 0 1 266.49 168.53
  Q 259.11 188.16 241.71 199.78
  A 0.58 0.58 0.0 0 1 240.85 199.52
  Q 234.90 185.08 228.85 170.42
  C 227.09 166.13 230.18 162.05 235.00 162.78
  Z"
/>
<path fill="#326ce5" d="
  M 201.33 179.68
  C 203.92 175.06 208.95 174.02 211.82 179.19
  Q 219.36 192.77 226.95 206.43
  Q 227.17 206.83 226.73 206.97
  Q 206.80 213.20 186.89 206.99
  A 0.52 0.52 0.0 0 1 186.59 206.25
  Q 193.81 193.06 201.33 179.68
  Z"
/>
</svg>
