<?xml version="1.0" encoding="UTF-8" standalone="no"?>
<!DOCTYPE svg PUBLIC "-//W3C//DTD SVG 1.1//EN" "http://www.w3.org/Graphics/SVG/1.1/DTD/svg11.dtd">
<svg xmlns="http://www.w3.org/2000/svg" version="1.1" viewBox="0.00 0.00 1000.00 410.00">
<path fill="#151013" d="
  M 236.20 185.77
  C 237.10 186.55 237.74 187.10 237.74 188.44
  Q 237.76 244.18 237.75 299.18
  A 2.63 2.62 -15.1 0 1 236.44 301.45
  C 209.17 317.38 177.28 320.79 146.18 316.06
  C 97.39 308.64 74.10 275.46 69.22 228.51
  C 63.56 174.15 73.19 100.17 140.09 88.34
  Q 163.57 84.19 188.63 86.99
  C 202.87 88.58 215.57 90.65 227.22 96.72
  C 228.62 97.45 229.12 99.26 228.74 100.88
  Q 224.70 117.99 220.61 135.07
  C 220.08 137.27 217.62 137.44 215.66 136.81
  C 196.70 130.76 169.53 127.68 149.73 134.58
  C 122.57 144.05 117.51 172.68 116.56 197.98
  C 115.37 229.55 121.72 270.80 162.00 272.97
  Q 175.51 273.70 189.10 271.39
  Q 190.01 271.24 190.01 270.32
  L 190.02 227.73
  A 0.48 0.48 0.0 0 0 189.54 227.25
  L 161.51 227.25
  A 2.91 2.90 -0.5 0 1 158.60 224.40
  Q 158.28 207.02 158.37 189.03
  C 158.37 187.35 159.57 185.26 161.25 185.26
  Q 198.25 185.24 234.82 185.26
  A 2.15 2.12 64.9 0 1 236.20 185.77
  Z"
/>
<path fill="#151013" d="
  M 451.10 313.06
  C 449.91 311.93 449.51 311.12 449.51 309.33
  Q 449.49 203.45 449.51 97.56
  C 449.51 95.73 451.47 94.47 453.32 94.42
  Q 481.66 93.78 494.75 94.48
  C 496.26 94.56 497.24 96.72 497.24 98.25
  Q 497.26 137.03 497.25 175.73
  A 0.52 0.52 0.0 0 0 497.77 176.25
  L 560.48 176.25
  A 0.52 0.52 0.0 0 0 561.00 175.73
  Q 561.00 136.50 561.00 97.00
  C 561.00 95.59 562.91 94.48 564.37 94.45
  Q 584.62 93.97 604.87 94.46
  C 606.91 94.51 608.74 95.79 608.74 97.81
  Q 608.76 203.75 608.74 309.69
  C 608.74 312.23 607.22 313.48 604.67 313.49
  Q 584.65 313.52 564.63 313.49
  C 562.69 313.48 560.82 312.43 560.81 310.44
  Q 560.56 265.25 561.00 220.23
  A 0.98 0.97 0.3 0 0 560.02 219.25
  L 497.77 219.25
  A 0.52 0.52 0.0 0 0 497.25 219.77
  Q 497.25 265.22 497.24 310.94
  C 497.24 312.40 495.29 313.48 493.79 313.48
  Q 472.75 313.52 452.20 313.49
  Q 451.57 313.49 451.10 313.06
  Z"
/>
<path fill="#151013" d="
  M 836.84 169.26
  Q 858.10 157.67 881.96 159.87
  C 932.72 164.55 935.01 219.72 930.76 257.75
  C 927.76 284.59 919.33 310.78 888.91 316.29
  C 866.98 320.26 843.31 316.16 825.35 302.50
  Q 824.85 302.11 824.76 302.74
  C 824.33 305.84 824.63 313.47 820.05 313.48
  Q 806.05 313.51 792.06 313.50
  C 790.17 313.50 788.26 312.31 788.26 310.44
  Q 788.24 204.59 788.25 98.75
  Q 788.25 94.47 792.31 94.41
  Q 813.02 94.07 832.97 94.41
  A 3.08 3.08 0.0 0 1 836.00 97.49
  L 836.01 168.76
  Q 836.01 169.71 836.84 169.26
  Z
  M 835.88 272.83
  Q 849.62 280.04 864.52 278.98
  C 877.28 278.08 881.19 271.03 883.19 258.94
  Q 886.07 241.62 884.03 224.09
  C 882.18 208.21 875.02 196.63 857.22 198.47
  Q 844.94 199.75 835.73 204.90
  A 0.94 0.94 0.0 0 0 835.25 205.72
  L 835.25 271.79
  Q 835.25 272.50 835.88 272.83
  Z"
/>
<circle fill="#151013" cx="285.20" cy="125.66" r="26.36"/>
<path fill="#151013" d="
  M 395.99 163.97
  Q 411.25 164.06 426.50 163.99
  C 428.73 163.98 429.49 166.07 429.49 168.10
  Q 429.50 184.30 429.50 200.50
  C 429.50 202.75 426.83 203.51 424.78 203.51
  Q 410.41 203.46 396.03 203.52
  Q 395.52 203.52 395.52 204.03
  Q 395.46 231.81 395.52 259.54
  Q 395.54 266.90 396.59 269.70
  C 400.72 280.72 416.71 279.29 425.75 278.35
  C 428.59 278.06 429.96 279.65 429.97 282.44
  Q 430.04 296.91 429.98 311.09
  A 2.49 2.49 0.0 0 1 428.25 313.45
  Q 406.29 320.39 383.51 315.52
  C 359.60 310.41 348.78 292.36 348.64 268.94
  Q 348.45 236.49 348.50 204.03
  Q 348.51 203.52 347.99 203.52
  Q 337.55 203.46 327.26 203.51
  C 324.85 203.52 323.75 201.57 323.75 199.26
  Q 323.75 186.38 323.74 173.50
  Q 323.74 171.36 326.55 170.68
  Q 337.32 168.05 348.07 165.27
  A 0.57 0.57 0.0 0 0 348.50 164.72
  L 348.50 123.41
  A 2.10 2.10 0.0 0 1 350.59 121.31
  L 393.35 121.26
  A 2.15 2.14 89.9 0 1 395.50 123.41
  L 395.50 163.48
  Q 395.50 163.97 395.99 163.97
  Z"
/>
<rect fill="#151013" x="261.01" y="163.97" width="47.74" height="149.50" rx="4.06"/>
<path fill="#151013" d="
  M 733.49 303.96
  Q 733.46 303.10 732.73 303.55
  Q 706.21 320.13 674.76 317.55
  C 643.40 314.99 628.70 298.09 628.76 266.93
  Q 628.86 219.31 628.47 171.69
  C 628.46 169.82 628.48 164.28 631.31 164.27
  Q 652.62 164.22 673.94 164.27
  C 675.32 164.27 676.50 166.24 676.50 167.71
  Q 676.49 211.73 676.45 255.75
  C 676.44 266.50 677.20 277.27 690.02 278.82
  Q 705.89 280.73 719.58 271.97
  Q 720.00 271.70 720.00 271.21
  Q 720.01 219.22 720.00 167.25
  C 720.00 165.08 722.42 164.26 724.42 164.25
  Q 743.66 164.24 762.90 164.25
  C 765.52 164.26 767.48 165.28 767.49 168.06
  Q 767.52 238.87 767.48 309.69
  C 767.48 313.16 764.97 313.75 761.92 313.75
  Q 749.83 313.75 737.75 313.76
  C 733.80 313.76 733.59 306.56 733.49 303.96
  Z"
/>
</svg>
