<?xml version="1.0" encoding="UTF-8" standalone="no"?>
<svg
   xmlns:dc="http://purl.org/dc/elements/1.1/"
   xmlns:cc="http://creativecommons.org/ns#"
   xmlns:rdf="http://www.w3.org/1999/02/22-rdf-syntax-ns#"
   xmlns:svg="http://www.w3.org/2000/svg"
   xmlns="http://www.w3.org/2000/svg"
   xmlns:sodipodi="http://sodipodi.sourceforge.net/DTD/sodipodi-0.dtd"
   xmlns:inkscape="http://www.inkscape.org/namespaces/inkscape"
   width="108.387pt"
   version="1.1"
   height="113.074pt"
   viewBox="0 0 108.387 113.074"
   id="svg2"
   inkscape:version="0.91 r13725"
   sodipodi:docname="reuse.svg">
  <metadata
     id="metadata47">
    <rdf:RDF>
      <cc:Work
         rdf:about="">
        <dc:format>image/svg+xml</dc:format>
        <dc:type
           rdf:resource="http://purl.org/dc/dcmitype/StillImage" />
        <dc:title></dc:title>
      </cc:Work>
    </rdf:RDF>
  </metadata>
  <sodipodi:namedview
     pagecolor="#ffffff"
     bordercolor="#666666"
     borderopacity="1"
     objecttolerance="10"
     gridtolerance="10"
     guidetolerance="10"
     inkscape:pageopacity="0"
     inkscape:pageshadow="2"
     inkscape:window-width="1600"
     inkscape:window-height="876"
     id="namedview45"
     showgrid="false"
     inkscape:zoom="0.39170124"
     inkscape:cx="-235.99297"
     inkscape:cy="70.74"
     inkscape:window-x="0"
     inkscape:window-y="24"
     inkscape:window-maximized="1"
     inkscape:current-layer="svg2"
     fit-margin-top="0"
     fit-margin-left="0"
     fit-margin-right="0"
     fit-margin-bottom="0" />
  <defs
     id="defs4" />
  <g
     id="Background"
     transform="translate(-186.752,-184.518)">
    <path
       style="fill:#4d4d4d;fill-rule:nonzero;stroke:none"
       d="m 10.086,11.389 c 1.237,0 2.185,-0.293 2.847,-0.878 0.662,-0.586 0.992,-1.367 0.992,-2.343 l 0,-0.065 c 0,-1.084 -0.347,-1.898 -1.04,-2.44 C 12.189,5.121 11.225,4.849 9.988,4.849 l -4.978,0 0,6.54 5.076,0 z M 0,0.327 l 10.412,0 c 2.884,0 5.097,0.769 6.637,2.309 1.302,1.302 1.952,3.037 1.952,5.206 l 0,0.066 c 0,1.843 -0.45,3.345 -1.351,4.506 -0.899,1.161 -2.076,2.011 -3.53,2.554 l 5.565,8.134 -5.857,0 -4.881,-7.287 -0.065,0 -3.872,0 0,7.287 -5.01,0 0,-22.775 z m 23.524,0 17.147,0 0,4.457 -12.201,0 0,4.621 10.737,0 0,4.457 -10.737,0 0,4.783 12.363,0 0,4.457 -17.309,0 0,-22.775 z m 31.3,23.133 c -3.058,0 -5.466,-0.845 -7.223,-2.538 -1.756,-1.691 -2.635,-4.218 -2.635,-7.581 l 0,-13.014 5.01,0 0,12.884 c 0,1.866 0.434,3.27 1.302,4.213 0.867,0.945 2.072,1.416 3.612,1.416 1.54,0 2.744,-0.456 3.611,-1.367 0.868,-0.91 1.302,-2.277 1.302,-4.1 l 0,-13.046 5.01,0 0,12.851 c 0,1.737 -0.232,3.243 -0.699,4.523 -0.467,1.28 -1.134,2.348 -2.001,3.205 -0.867,0.857 -1.92,1.497 -3.156,1.92 -1.236,0.422 -2.614,0.634 -4.133,0.634 z m 23.233,-0.032 c -1.736,0 -3.439,-0.299 -5.109,-0.895 -1.67,-0.596 -3.189,-1.513 -4.555,-2.749 l 2.961,-3.547 c 1.041,0.845 2.11,1.518 3.205,2.017 1.095,0.499 2.293,0.748 3.594,0.748 1.042,0 1.85,-0.189 2.425,-0.568 0.575,-0.38 0.862,-0.906 0.862,-1.578 l 0,-0.066 c 0,-0.325 -0.059,-0.612 -0.178,-0.862 -0.12,-0.25 -0.348,-0.483 -0.684,-0.699 -0.342,-0.218 -0.808,-0.435 -1.404,-0.651 -0.597,-0.217 -1.378,-0.445 -2.332,-0.684 -1.156,-0.281 -2.197,-0.596 -3.135,-0.943 -0.933,-0.347 -1.73,-0.776 -2.38,-1.286 C 70.676,11.156 70.166,10.521 69.809,9.762 69.45,9.003 69.271,8.06 69.271,6.931 l 0,-0.064 c 0,-1.042 0.196,-1.98 0.58,-2.815 0.391,-0.836 0.933,-1.556 1.633,-2.164 0.7,-0.607 1.54,-1.073 2.51,-1.399 C 74.966,0.164 76.039,0 77.21,0 c 1.671,0 3.205,0.25 4.604,0.749 1.4,0.499 2.685,1.215 3.856,2.148 L 83.067,6.671 C 82.048,5.977 81.05,5.429 80.073,5.028 79.098,4.626 78.121,4.426 77.145,4.426 c -0.976,0 -1.708,0.19 -2.196,0.57 -0.488,0.379 -0.732,0.851 -0.732,1.415 l 0,0.065 c 0,0.368 0.071,0.689 0.212,0.96 0.14,0.271 0.395,0.515 0.764,0.732 0.374,0.217 0.878,0.422 1.519,0.618 0.644,0.195 1.453,0.423 2.429,0.683 1.155,0.304 2.185,0.646 3.085,1.025 0.901,0.38 1.666,0.836 2.284,1.367 0.618,0.531 1.09,1.155 1.404,1.871 0.314,0.716 0.472,1.572 0.472,2.57 l 0,0.066 c 0,1.128 -0.206,2.13 -0.613,3.008 -0.412,0.879 -0.981,1.617 -1.713,2.213 -0.732,0.597 -1.611,1.053 -2.625,1.367 -1.015,0.315 -2.142,0.472 -3.378,0.472 z m 12.689,-23.101 17.147,0 0,4.457 -12.202,0 0,4.621 10.738,0 0,4.457 -10.738,0 0,4.783 12.365,0 0,4.457 -17.31,0 0,-22.775 z"
       transform="translate(186.753,261.023)"
       id="path7"
       inkscape:connector-curvature="0" />
    <path
       style="fill:#4d4d4d;fill-rule:nonzero;stroke:none"
       d="M 3.402,8.589 C 2.736,8.589 2.127,8.48 1.576,8.262 1.025,8.043 0.499,7.709 0,7.256 L 0.582,6.567 C 1.019,6.963 1.459,7.258 1.903,7.454 2.348,7.647 2.859,7.745 3.437,7.745 4.001,7.745 4.45,7.612 4.788,7.346 5.125,7.081 5.293,6.742 5.293,6.329 l 0,-0.024 C 5.293,6.115 5.262,5.942 5.198,5.788 5.135,5.633 5.024,5.493 4.863,5.366 4.704,5.239 4.484,5.124 4.203,5.02 3.92,4.917 3.561,4.818 3.122,4.723 2.646,4.621 2.23,4.5 1.878,4.367 1.522,4.232 1.231,4.069 1.001,3.878 0.771,3.689 0.599,3.466 0.487,3.212 0.376,2.959 0.321,2.662 0.321,2.321 l 0,-0.025 C 0.321,1.971 0.389,1.669 0.523,1.393 0.658,1.115 0.849,0.875 1.094,0.673 1.341,0.47 1.63,0.312 1.963,0.197 2.296,0.082 2.66,0.025 3.057,0.025 c 0.611,0 1.144,0.085 1.599,0.256 0.456,0.17 0.899,0.426 1.327,0.766 L 5.436,1.773 C 5.048,1.456 4.656,1.226 4.265,1.084 3.872,0.94 3.462,0.869 3.033,0.869 2.486,0.869 2.054,0.998 1.736,1.255 1.42,1.513 1.261,1.833 1.261,2.213 l 0,0.024 c 0,0.198 0.032,0.375 0.094,0.529 0.065,0.155 0.179,0.297 0.346,0.429 0.166,0.131 0.397,0.249 0.691,0.356 0.293,0.108 0.669,0.208 1.128,0.304 0.928,0.206 1.613,0.491 2.053,0.856 0.44,0.365 0.659,0.865 0.659,1.498 l 0,0.025 c 0,0.356 -0.07,0.68 -0.212,0.97 C 5.88,7.493 5.686,7.741 5.438,7.947 5.19,8.153 4.893,8.312 4.544,8.422 4.194,8.533 3.814,8.589 3.402,8.589 Z M 17.377,7.745 c 0.475,0 0.914,-0.09 1.314,-0.268 0.401,-0.179 0.744,-0.423 1.029,-0.732 0.286,-0.309 0.509,-0.67 0.672,-1.082 0.163,-0.413 0.245,-0.857 0.245,-1.332 l 0,-0.024 C 20.637,3.831 20.555,3.385 20.392,2.969 20.229,2.552 20.002,2.19 19.709,1.88 19.415,1.571 19.068,1.325 18.667,1.143 18.268,0.96 17.829,0.869 17.352,0.869 c -0.475,0 -0.913,0.09 -1.313,0.268 -0.401,0.178 -0.744,0.422 -1.029,0.731 -0.285,0.309 -0.51,0.671 -0.672,1.083 -0.163,0.412 -0.244,0.856 -0.244,1.333 l 0,0.023 c 0,0.476 0.081,0.921 0.244,1.338 0.162,0.417 0.39,0.779 0.683,1.089 0.293,0.308 0.641,0.555 1.041,0.737 0.401,0.182 0.839,0.274 1.315,0.274 z m -0.025,0.868 c -0.633,0 -1.21,-0.115 -1.73,-0.345 C 15.102,8.038 14.656,7.726 14.284,7.334 13.911,6.942 13.624,6.486 13.422,5.966 13.22,5.447 13.118,4.902 13.118,4.331 l 0,-0.024 c 0,-0.571 0.104,-1.119 0.31,-1.641 C 13.634,2.142 13.924,1.684 14.296,1.292 14.668,0.899 15.117,0.585 15.64,0.351 16.163,0.118 16.742,0 17.377,0 c 0.635,0 1.211,0.116 1.73,0.345 0.52,0.231 0.966,0.542 1.338,0.935 0.373,0.392 0.661,0.847 0.864,1.367 0.202,0.52 0.302,1.065 0.302,1.637 0.008,0.007 0.008,0.014 0,0.023 0,0.57 -0.102,1.118 -0.308,1.641 -0.206,0.524 -0.496,0.981 -0.869,1.375 -0.373,0.391 -0.821,0.705 -1.344,0.939 -0.524,0.234 -1.103,0.351 -1.738,0.351 z m 11.585,-8.47 5.984,0 0,0.869 -5.044,0 0,2.986 4.509,0 0,0.844 -4.509,0 0,3.628 -0.94,0 0,-8.327 z m 15.343,0.869 -2.796,0 0,-0.869 6.531,0 0,0.869 -2.795,0 0,7.458 -0.94,0 0,-7.458 z m 10.204,-0.869 1.023,0 2.379,6.936 2.284,-6.959 0.773,0 2.284,6.959 2.379,-6.936 0.988,0 -2.975,8.386 -0.797,0 -2.284,-6.756 -2.296,6.756 -0.784,0 -2.974,-8.386 z m 24.549,5.282 -1.89,-4.247 -1.904,4.247 3.794,0 z m -2.319,-5.341 0.88,0 3.795,8.386 -1.011,0 -0.976,-2.2 -4.532,0 -0.987,2.2 -0.963,0 3.794,-8.386 z M 91.872,4.39 c 0.312,0 0.598,-0.04 0.859,-0.119 0.263,-0.079 0.49,-0.192 0.68,-0.339 0.191,-0.146 0.341,-0.325 0.447,-0.535 0.108,-0.211 0.161,-0.45 0.161,-0.72 l 0,-0.023 C 94.019,2.138 93.833,1.736 93.458,1.446 93.085,1.157 92.561,1.012 91.885,1.012 l -2.576,0 0,3.378 2.563,0 z m -3.503,-4.247 3.58,0 c 0.516,0 0.974,0.073 1.375,0.221 0.4,0.146 0.731,0.35 0.992,0.612 0.206,0.207 0.366,0.448 0.477,0.726 0.11,0.277 0.166,0.583 0.166,0.916 l 0,0.023 c 0,0.35 -0.056,0.661 -0.166,0.934 -0.111,0.274 -0.269,0.511 -0.471,0.714 -0.201,0.203 -0.441,0.369 -0.72,0.5 -0.276,0.13 -0.578,0.223 -0.903,0.279 l 2.558,3.402 -1.155,0 -2.415,-3.235 -0.023,0 -2.355,0 0,3.235 -0.94,0 0,-8.327 z m 13.94,0 6.018,0 0,0.845 -5.079,0 0,2.867 4.544,0 0,0.845 -4.544,0 0,2.925 5.139,0 0,0.845 -6.078,0 0,-8.327 z"
       transform="translate(186.752,288.979)"
       id="path9"
       inkscape:connector-curvature="0" />
    <path
       style="fill:#f15829;fill-rule:evenodd;stroke:none"
       d="M 11.132,12.854 11.132,0 0,6.428 11.132,12.854 Z"
       transform="translate(214.689,209.215)"
       id="path11"
       inkscape:connector-curvature="0" />
    <path
       style="fill:#bf1e2e;fill-rule:evenodd;stroke:none"
       d="M 11.132,12.856 11.132,0 0,6.428 11.132,12.856 Z"
       transform="translate(214.689,226.147)"
       id="path13"
       inkscape:connector-curvature="0" />
    <path
       style="fill:#bb529f;fill-rule:evenodd;stroke:none"
       d="M 0,12.856 11.134,6.428 0,0 0,12.856 Z"
       transform="translate(213.512,234.614)"
       id="path15"
       inkscape:connector-curvature="0" />
    <path
       style="fill:#da8d27;fill-rule:evenodd;stroke:none"
       d="M 0,0 0,12.855 11.133,6.428 0,0 Z"
       transform="translate(213.512,200.748)"
       id="path17"
       inkscape:connector-curvature="0" />
    <path
       style="fill:#ed1b26;fill-rule:evenodd;stroke:none"
       d="M 0,12.855 11.133,6.427 0,0 0,12.855 Z"
       transform="translate(213.512,217.681)"
       id="path19"
       inkscape:connector-curvature="0" />
    <path
       style="fill:#ffee00;fill-rule:evenodd;stroke:none"
       d="M 11.133,12.855 11.133,0 0,6.428 11.133,12.855 Z"
       transform="translate(214.688,192.984)"
       id="path21"
       inkscape:connector-curvature="0" />
    <path
       style="fill:#06bfed;fill-rule:evenodd;stroke:none"
       d="M 11.133,12.856 11.133,0 0,6.428 11.133,12.856 Z"
       transform="translate(229.353,201.45)"
       id="path23"
       inkscape:connector-curvature="0" />
    <path
       style="fill:#03b0db;fill-rule:evenodd;stroke:none"
       d="M 11.133,6.427 0,0 0,12.855 11.133,6.427 Z"
       transform="translate(242.804,200.77)"
       id="path25"
       inkscape:connector-curvature="0" />
    <path
       style="fill:#fcae40;fill-rule:evenodd;stroke:none"
       d="M 0,0 0,12.854 11.133,6.427 0,0 Z"
       transform="translate(213.511,184.518)"
       id="path27"
       inkscape:connector-curvature="0" />
    <path
       style="fill:#00ccff;fill-rule:evenodd;stroke:none"
       d="M 11.133,6.427 0,0 0,12.855 11.133,6.427 Z"
       transform="translate(228.176,192.984)"
       id="path29"
       inkscape:connector-curvature="0" />
    <path
       style="fill:#00a4c9;fill-rule:evenodd;stroke:none"
       d="M 11.133,0 11.134,12.854 0,6.427 11.133,0 Z"
       transform="translate(243.713,209.391)"
       id="path31"
       inkscape:connector-curvature="0" />
    <path
       style="fill:#0197b8;fill-rule:evenodd;stroke:none"
       d="M 11.133,6.428 0,0 0,12.856 11.133,6.428 Z"
       transform="translate(257.246,209.364)"
       id="path33"
       inkscape:connector-curvature="0" />
    <path
       style="fill:#577523;fill-rule:evenodd;stroke:none"
       d="M 11.133,6.428 0,0 0,12.855 11.133,6.428 Z"
       transform="translate(242.572,217.794)"
       id="path35"
       inkscape:connector-curvature="0" />
    <path
       style="fill:#75992d;fill-rule:evenodd;stroke:none"
       d="M 11.132,0 0,6.426 11.132,12.854 11.132,0 Z"
       transform="translate(229.354,218.099)"
       id="path37"
       inkscape:connector-curvature="0" />
    <path
       style="fill:#98c739;fill-rule:evenodd;stroke:none"
       d="M 11.133,6.428 0,0 0,12.855 11.133,6.428 Z"
       transform="translate(228.544,226.42)"
       id="path39"
       inkscape:connector-curvature="0" />
    <path
       style="fill:#bbda85;fill-rule:evenodd;stroke:none"
       d="M 11.133,12.855 0,6.428 11.133,0 l 0,12.855 z"
       transform="translate(229.374,234.653)"
       id="path41"
       inkscape:connector-curvature="0" />
    <path
       style="fill:#445c1c;fill-rule:evenodd;stroke:none"
       d="M 11.133,6.429 0,0 0,12.856 11.133,6.429 Z"
       transform="translate(242.572,234.652)"
       id="path43"
       inkscape:connector-curvature="0" />
  </g>
</svg>
