<svg xmlns="http://www.w3.org/2000/svg" xmlns:xlink="http://www.w3.org/1999/xlink" viewBox="0 0 1642.78 2264.07"><defs><style>.cls-1{isolation:isolate;}.cls-2{fill:#fff;}.cls-3{fill:#5f96ff;}.cls-4{fill:url(#linear-gradient);}.cls-5{fill:url(#linear-gradient-2);}.cls-6{fill:url(#linear-gradient-3);}.cls-7{fill:url(#linear-gradient-4);}.cls-8{fill:#d939ab;}.cls-9{fill:#ffb068;}.cls-10{fill:url(#linear-gradient-5);}.cls-11{fill:#ff6f87;}.cls-12{fill:#292e67;}.cls-13{fill:#d4e3f3;mix-blend-mode:overlay;opacity:0.4;}.cls-14{fill:none;}</style><linearGradient id="linear-gradient" x1="894" y1="1631.21" x2="894" y2="1630.52" gradientUnits="userSpaceOnUse"><stop offset="0" stop-color="#ff6f87"/><stop offset="0.65" stop-color="#e448a1"/><stop offset="1" stop-color="#d939ab"/></linearGradient><linearGradient id="linear-gradient-2" x1="1141.28" y1="1403.75" x2="1141.28" y2="1330.7" xlink:href="#linear-gradient"/><linearGradient id="linear-gradient-3" x1="1251.5" y1="1530.59" x2="1251.5" y2="1457.53" xlink:href="#linear-gradient"/><linearGradient id="linear-gradient-4" x1="1358.73" y1="1403.75" x2="1358.73" y2="1330.7" xlink:href="#linear-gradient"/><linearGradient id="linear-gradient-5" x1="1236.48" y1="1006.04" x2="1236.48" y2="1004.67" xlink:href="#linear-gradient"/></defs><g class="cls-1"><g id="Layer_1" data-name="Layer 1"><path class="cls-2" d="M2071,617.2l-7.24,61.8a55.27,55.27,0,0,1-65.58,47.92,1.8,1.8,0,0,1-.32-.06L1986,724.48c-6.24,47.64-14.07,101.77-22.08,142.57-.36,1.85-.75,3.78-1.17,5.69-.29,1.36-.59,2.74-.89,4.12-.4,1.82-.82,3.65-1.24,5.48-.59,2.41-1.16,4.72-1.74,7s-1.2,4.62-1.85,6.93c-.36,1.32-.72,2.64-1.11,4-.42,1.47-.84,2.94-1.29,4.42s-.93,3.12-1.41,4.65q-.78,2.55-1.62,5c-1,3.18-2.14,6.48-3.42,10.08-.63,1.77-1.26,3.53-1.92,5.28-.48,1.31-1,2.58-1.45,3.87s-1.07,2.75-1.62,4.14c-.36.93-.74,1.86-1.11,2.81l-.29.67c-1.18,2.93-2.25,5.48-3.28,7.85-.2.45-.39.9-.6,1.35-.47,1.09-1,2.17-1.44,3.27s-1.08,2.4-1.67,3.66-1.17,2.55-1.77,3.81l-2.11,4.44c-.06.12-.18.36-.24.46l-.08.15q-1.18,2.41-2.4,4.8c-.79,1.58-1.6,3.15-2.41,4.7-.24.46-.45.87-.63,1.2-.6,1.14-1.22,2.28-1.83,3.42s-1.43,2.61-2.18,3.91l-.16.29c-.92,1.66-1.85,3.33-2.81,5-1.23,2.14-2.52,4.3-3.84,6.48-1.2,2-2.43,4-3.67,6-.3.48-.6,1-.92,1.44q-.76,1.22-1.56,2.43a38.69,38.69,0,0,1,3.11,13l1.21,19.8q.71,10.36,1.38,20.77c1,14.34,1.94,29.18,3,43.65,0,.06,0,.11,0,.17l.57,8c0,.12,0,.24,0,.36l.48,7.79c0,.19,0,.4,0,.6l.12,2.61c.2,4.38.42,8.89.53,13.57.43,11.69.31,23.21.15,33-.17,11.2-.83,22.36-1.5,32.83,0,.14,0,.27,0,.39-.77,10.26-1.82,20.91-3.21,32.61,0,.14,0,.27-.06.42-3.3,25.19-7.08,45.89-11.88,65.15l-3.54,14.62c-.69,3-1.47,5.6-2.06,7.52-.16.57-.34,1.15-.51,1.72a3.59,3.59,0,0,1-.12.39l-2.08,7.1c-2.36,8.56-5.07,16.53-7.71,24.22-.8,2.33-1.59,4.67-2.37,7l-1.28,3.8c-.19.58-.42,1.17-.64,1.75l-8.55,21.75-.23.59c-.51,1.21-1,2.4-1.57,3.6l-.41.87a.67.67,0,0,1-.07.18l-7.94,17.68c-.06.15-.13.29-.19.42-.59,1.28-1.22,2.52-1.86,3.78l-.41.81a.41.41,0,0,0-.07.15l-8.76,17.34c-.27.53-.56,1.07-.86,1.58l-9.63,17c0,.07-.07.13-.1.19l-.42.75c-.72,1.28-1.46,2.55-2.24,3.81l-6.28,10-.14.22-2,3.23c-2.16,3.48-4.62,7.41-7.52,11.47l-8.76,12.62-.43.61c-2.24,3.08-4.43,6-6.54,8.73-1.1,1.44-2.19,2.87-3.27,4.32a1.59,1.59,0,0,0-.15.21l-4.74,6.24c-.32.41-.65.81-1,1.22l-5,6.06-.12.13c-1.09,1.32-2.19,2.64-3.27,4-2.29,2.81-4.66,5.69-7.23,8.66l-.55.63-4.77,5.32c-5.49,6.15-11.15,12.51-17.46,18.84-6.3,6.72-12.71,12.87-18.9,18.81l-4.46,4.29-.48.45c-2.86,2.67-5.67,5.19-8.4,7.62l-3.79,3.41-.14.13-5.88,5.27-.9.78-11.79,9.93-.18.13c-.34.3-.7.6-1.06.9a80.25,80.25,0,0,1-7.82,6.06l-2.56,1.8-.23.15-3.22,2.22-.41.27-6.49,4.35-.3.2c-9.33,6.13-19.1,12.07-29,17.67-3.24,1.81-6.51,3.6-9.78,5.34a39,39,0,0,1-18,42.21c-49.56,29.65-104.34,55.63-162.84,77.22a39.12,39.12,0,0,1-9,2.16c-.61,1.47-1.24,2.94-1.92,4.41-14.25,30.66-40.65,50.46-67.26,50.46a53.73,53.73,0,0,1-11.17-1.16,60,60,0,0,1-26.24,6.29,54.74,54.74,0,0,1-5.88-.32,61.57,61.57,0,0,1-31.51,9.11,52.69,52.69,0,0,1-41.81-20.37c-2.94.15-5.89.24-8.83.24a167.65,167.65,0,0,1-25.43-2,53.36,53.36,0,0,1-43.3,22.1,61.56,61.56,0,0,1-31.5-9.11,54.74,54.74,0,0,1-5.88.32,60,60,0,0,1-26.24-6.29,53.73,53.73,0,0,1-11.17,1.16c-26.61,0-53-19.8-67.25-50.43-1.5-3.23-2.8-6.5-4-9.78a38.85,38.85,0,0,1-6.94-1.91l-6-2.28c-2.61-1-5.21-2-7.83-3-2.46-1-4.95-1.92-7.44-2.92l-8.85-3.57c-4.55-1.86-9.21-3.8-13.92-5.81-3-1.26-6-2.53-8.93-3.84-2.52-1.11-5.16-2.26-7.81-3.45-2.48-1.09-5-2.23-7.5-3.37l-.78-.35c-2.61-1.2-5.22-2.41-7.85-3.64-2.35-1.1-4.83-2.27-7.3-3.45-5.57-2.64-11.42-5.51-17.4-8.51-2.57-1.27-5.16-2.59-7.74-3.93s-5.33-2.73-8-4.15c-2.24-1.19-4.46-2.34-6.66-3.53l-3.23-1.74c-1.84-1-3.69-2-5.52-3-.6-.32-1.18-.65-1.77-1-2.43-1.32-4.84-2.67-7.26-4-1.71-1-3.4-1.94-5.11-2.91l-1.07-.62A39,39,0,0,1,870.08,1658l-.19-.1-7-3.59-.25-.12c-5-2.62-10-5.34-14.9-8.07-10-5.61-19.72-11.55-29.05-17.68l-.27-.17L811.9,1624l-.45-.31-3.23-2.22-.21-.14-2.62-1.83a80,80,0,0,1-7.91-6.15l-12.9-10.84c-.3-.26-.58-.53-.88-.78l-5.88-5.27-.2-.18c-1.33-1.2-2.67-2.4-4-3.58-2.64-2.37-5.37-4.83-8.18-7.44l-.42-.41-4.51-4.33c-6.18-5.94-12.57-12.06-18.87-18.78-6.2-6.23-11.78-12.48-17.19-18.53-1.67-1.87-3.33-3.73-5-5.59l-.63-.72c-2.4-2.79-4.64-5.51-6.8-8.13-1.2-1.46-2.38-2.93-3.6-4.37l-.19-.24-5-6.06q-.48-.58-.93-1.17l-4.74-6.24c-.06-.07-.11-.15-.17-.21-1.09-1.48-2.22-2.94-3.33-4.39-2.1-2.76-4.27-5.61-6.48-8.66-.15-.21-.3-.4-.43-.61l-8.79-12.65c-2.94-4.14-5.46-8.19-7.68-11.76-.63-1-1.25-2-1.88-3l-6.33-10.09-.24-.39c-.69-1.13-1.33-2.27-2-3.41l-.48-.84a1.22,1.22,0,0,1-.12-.19l-9.63-17c-.29-.51-.57-1.05-.84-1.58l-8.75-17.29c-.1-.18-.19-.36-.28-.56l-.45-.91c-.51-1-1-1.94-1.47-2.93l-.36-.81L630,1395.61s0-.09-.07-.15l-.33-.74c-.48-1-1.13-2.46-1.8-4.15a.58.58,0,0,1-.06-.17l-8.52-21.61c-.26-.63-.48-1.26-.69-1.89l-1.25-3.69c-.82-2.45-1.62-4.79-2.41-7.11-2.64-7.71-5.36-15.66-7.71-24.23l-2.09-7.08a5.87,5.87,0,0,1-.16-.6c-.17-.57-.33-1.14-.51-1.69-.57-1.91-1.34-4.44-2-7.43l-3.52-14.52c-4.82-19.23-8.6-39.94-11.91-65.16,0-.15,0-.28,0-.42-1.42-11.79-2.46-22.47-3.21-32.65,0-.12,0-.24,0-.35-.72-11.07-1.37-21.91-1.52-32.94-.16-9.76-.28-21.19.17-32.88.12-5.56.39-11,.64-16.18a5.59,5.59,0,0,0,0-.57l.48-7.79c0-.1,0-.19,0-.28l.54-8c0-.09,0-.18,0-.25,1.11-14.75,2.12-29.85,3.08-44.45q.65-10,1.33-19.95c.17-3,.83-15.42,1.46-27.46l.4-7.73s0,0,0-.06c-.38-.6-.77-1.2-1.13-1.78l-.07-.14c-1.14-1.8-2.25-3.6-3.36-5.44-.92-1.52-1.83-3-2.72-4.61-.4-.66-.79-1.33-1.18-2l-.23-.39c-.33-.55-.66-1.11-1-1.68-.53-.9-1-1.81-1.55-2.73l-.81-1.48-.45-.81c-.51-.89-1-1.74-1.42-2.6s-.95-1.77-1.41-2.65l-.44-.81c-1.3-2.46-2.61-5-4-7.82-.59-1.18-1.22-2.46-1.83-3.73s-1.32-2.7-2-4.05l-1.53-3.33c-.9-1.94-1.77-3.89-2.64-5.84-.77-1.74-1.52-3.49-2.25-5.23s-1.35-3.23-2-4.83l-.09-.23-.29-.69c-.37-.93-.75-1.86-1.11-2.79s-.63-1.59-.93-2.37c-.55-1.42-1.11-2.86-1.65-4.3-.64-1.71-1.27-3.44-1.89-5.16-.55-1.53-1.11-3.06-1.63-4.62-.68-1.94-1.34-3.89-2-5.87-.58-1.72-1.14-3.48-1.69-5.22-.47-1.51-.93-3-1.38-4.51-.21-.66-.38-1.25-.51-1.74-.42-1.41-.83-2.82-1.25-4.25s-.79-2.83-1.15-4.18l0-.11c-.21-.69-.41-1.39-.57-2.1-.39-1.42-.77-2.85-1.11-4.29-.45-1.74-.89-3.51-1.31-5.26l-.64-2.67c0-.18-.08-.36-.12-.56-.2-.79-.38-1.6-.56-2.43s-.34-1.5-.51-2.28-.42-1.84-.6-2.77c-.42-2-.82-4-1.23-6-8-40.8-15.84-95-22.08-142.59l-11.92,2.38a1.45,1.45,0,0,1-.3.06,55.27,55.27,0,0,1-65.57-47.82L429,617.21a55.32,55.32,0,0,1,53.07-61.78l71.59-2.58c1.19-51.17-.46-78-5.5-141.56L532.51,213.16c-.08-1-.12-2.06-.12-3.08,0-35.17,20.37-65.62,53.17-79.47a88.46,88.46,0,0,1,96.3,17.94l86.82,84.54.38.36.94,1c.54.57,1.07,1.16,1.58,1.74.85,1,1.84,2.13,3.13,3.56a1.31,1.31,0,0,1,.2.21c.87,1,1.74,1.89,2.61,2.83,3.55,3.81,7.3,7.58,11.49,11.55a321.8,321.8,0,0,0,24.79,21.45c.9.71,1.82,1.41,2.73,2.12a39,39,0,0,1,18.11-11c.9-.25,1.84-.55,2.91-.94,72.19-26.31,196.06-51.47,323.28-65.66.51-.06,1-.12,1.51-.16a823.37,823.37,0,0,1,180.57,0l1.5.18c127.16,14.18,251,39.32,323.27,65.64.55.2,1.11.39,1.66.56a38.91,38.91,0,0,1,17.28,10.83l2-1.52c4.32-3.37,8.61-6.9,12.78-10.51a36,36,0,0,1,4.8-3.66,40.19,40.19,0,0,0,6.25-5l111-108.06a88.39,88.39,0,0,1,96.27-18c32.8,13.84,53.17,44.29,53.17,79.48,0,1,0,2.06-.12,3.08L1957.1,411.29c-5,63.74-6.69,90.65-5.49,141.75l66.41,2.39a55,55,0,0,1,43,23l.09.13A55.28,55.28,0,0,1,2071,617.2Z" transform="translate(-428.61 -123.55)"/><path class="cls-3" d="M1352.34,550.76v16q0-7.23-.58-14.36c0-.54-.07-1.07-.12-1.6Z" transform="translate(-428.61 -123.55)"/><path class="cls-4" d="M894.86,1631.21l-1.72-.69,1.05.36Z" transform="translate(-428.61 -123.55)"/><path class="cls-5" d="M1221.68,1360.08a96.08,96.08,0,0,1-160.74.48,19,19,0,0,1,31.71-20.94,58.08,58.08,0,0,0,97.19-.3,19,19,0,0,1,31.84,20.76Z" transform="translate(-428.61 -123.55)"/><path class="cls-6" d="M1251.62,1492.58a58,58,0,0,0,48.5-26.13,19,19,0,1,1,31.72,20.94,96.07,96.07,0,0,1-160.74-.48,19,19,0,1,1,31.85-20.74A57.91,57.91,0,0,0,1251.62,1492.58Z" transform="translate(-428.61 -123.55)"/><path class="cls-7" d="M1278.32,1360.08a19,19,0,0,1,31.85-20.76,58.07,58.07,0,0,0,97.18.3,19,19,0,0,1,31.71,20.94,96.08,96.08,0,0,1-160.74-.48Z" transform="translate(-428.61 -123.55)"/><path class="cls-8" d="M1605.48,1664.65c-53.17,31.83-107.18,56-156.3,74.09a58.69,58.69,0,0,0-3.54-18.61c-4.24-11.34-12.25-20.11-22.55-24.7a40.93,40.93,0,0,0-16.84-3.55,49.68,49.68,0,0,0-24.77,7.08,41.65,41.65,0,0,0-12.62-1.93c-9.86,0-19.77,3.39-28.86,9.65a41,41,0,0,0-8.55-.87c-22,0-44.1,17.07-56.37,43.48-5.85,12.63-8.69,25.64-8.34,37.64a129.24,129.24,0,0,1-30.1-1.73l-3.35-.6a86.2,86.2,0,0,0-8.37-35.29c-12.27-26.43-34.4-43.5-56.37-43.5a41.07,41.07,0,0,0-8.55.87c-9.09-6.26-19-9.65-28.86-9.65a41.65,41.65,0,0,0-12.62,1.93,49.68,49.68,0,0,0-24.77-7.08,41,41,0,0,0-16.85,3.55c-10.29,4.59-18.3,13.36-22.54,24.7a55.75,55.75,0,0,0-3.18,13.64c-2-.75-4-1.5-6-2.27-2.46-.93-4.92-1.87-7.4-2.85s-4.77-1.86-7.15-2.82q-4.35-1.72-8.72-3.51-6.65-2.71-13.38-5.58-4.23-1.8-8.48-3.66-3.83-1.66-7.67-3.37c-2.51-1.11-5-2.25-7.51-3.39a3.68,3.68,0,0,0-.35-.15l-7.58-3.51c-2.32-1.09-4.66-2.2-7-3.32q-8.36-4-16.74-8.17-3.69-1.85-7.37-3.74c-2.6-1.33-5.2-2.69-7.81-4-2.15-1.12-4.31-2.26-6.45-3.42-1-.51-2-1-2.93-1.58q-2.82-1.5-5.63-3.07a12.15,12.15,0,0,1-1.07-.58c-2.46-1.34-4.92-2.72-7.37-4.1-2-1.09-3.91-2.22-5.88-3.34a157.87,157.87,0,0,0,17.5,1.77,174.17,174.17,0,0,0,43.87-3.47,149.15,149.15,0,0,0,41.56-15.38,118.25,118.25,0,0,0,34.77-28.67,102.34,102.34,0,0,0,20.36-40.66l.72-2.75c.22-.93.35-1.86.51-2.79l.94-5.58a53.24,53.24,0,0,0,.61-5.6l.43-5.61c0-3.7,0-7.42-.07-11.13-.35-3.66-.62-7.33-1-11a166.34,166.34,0,0,0-11.52-41.37c-.66-1.63-1.29-3.36-2-4.88l-2-4.64-4.1-9.25,0-.09c49.36,61,114.51,101.88,200.46,102.11h.66c87.19-.23,153-42.26,202.58-104.77l-1.23,2.75-4.09,9.25-2,4.64c-.69,1.52-1.32,3.25-2,4.88a166.34,166.34,0,0,0-11.52,41.37c-.43,3.63-.7,7.3-1,11-.09,3.71-.13,7.43-.09,11.13l.45,5.61a55.94,55.94,0,0,0,.58,5.6l1,5.58c.18.93.3,1.86.52,2.79l.71,2.75a102.61,102.61,0,0,0,20.36,40.66,118.25,118.25,0,0,0,34.77,28.67,149.26,149.26,0,0,0,41.56,15.38,174.29,174.29,0,0,0,43.89,3.47A163.76,163.76,0,0,0,1605.48,1664.65Z" transform="translate(-428.61 -123.55)"/><path class="cls-9" d="M1196.15,1806.06a14,14,0,0,1-5.83,1.22c-8.09,0-17.45-6.12-24.9-16.13a14.87,14.87,0,0,1-6.66,6.14,14.33,14.33,0,0,1-5.84,1.2c-7.68,0-16.51-5.52-23.79-14.64a15.51,15.51,0,0,1-7.77,8.29,14,14,0,0,1-5.83,1.22c-10.91,0-24.11-11.12-31.89-27.87a60.84,60.84,0,0,1-5.78-22.14c-.58-11.09,2.9-20.07,10.05-23.27a14.33,14.33,0,0,1,5.84-1.19c7.68,0,16.51,5.51,23.79,14.65a15.48,15.48,0,0,1,7.77-8.31,14.29,14.29,0,0,1,5.83-1.2c8.1,0,17.45,6.12,24.9,16.11a14.81,14.81,0,0,1,6.66-6.12,14.2,14.2,0,0,1,5.85-1.22c10.89,0,24.11,11.1,31.88,27.86a63.53,63.53,0,0,1,5.46,18.51C1207.49,1791.9,1204.09,1802.52,1196.15,1806.06Z" transform="translate(-428.61 -123.55)"/><path class="cls-9" d="M1421.62,1748.48a64.09,64.09,0,0,1-5.25,17c-7.79,16.75-21,27.87-31.89,27.87a14,14,0,0,1-5.84-1.22,15.58,15.58,0,0,1-7.77-8.29c-7.27,9.12-16.11,14.64-23.79,14.64a14.29,14.29,0,0,1-5.83-1.2,14.82,14.82,0,0,1-6.66-6.14c-7.46,10-16.82,16.13-24.9,16.13a14,14,0,0,1-5.84-1.22c-7.15-3.19-10.62-12.13-10.06-23.19a60.4,60.4,0,0,1,5.79-22.21c7.77-16.74,21-27.86,31.87-27.86a14.2,14.2,0,0,1,5.85,1.22,14.71,14.71,0,0,1,6.66,6.12c7.46-10,16.8-16.11,24.9-16.11a14.33,14.33,0,0,1,5.84,1.2,15.55,15.55,0,0,1,7.77,8.31c7.27-9.14,16.11-14.65,23.79-14.65a14.28,14.28,0,0,1,5.83,1.19C1420.33,1723.76,1423.69,1735.08,1421.62,1748.48Z" transform="translate(-428.61 -123.55)"/><path class="cls-10" d="M1235.44,1006a22.09,22.09,0,0,1,2.09-1.37A20.29,20.29,0,0,0,1235.44,1006Z" transform="translate(-428.61 -123.55)"/><path class="cls-11" d="M1042.8,1574.49l-1.25,4.18c-.47,1.36-1.09,2.68-1.61,4l-.81,2-.4,1-.5,1-2,3.83a29.55,29.55,0,0,1-2.2,3.7c-.78,1.2-1.51,2.44-2.31,3.63l-2.64,3.42-1.31,1.72-1.47,1.6a91.17,91.17,0,0,1-27.75,21.1,120.82,120.82,0,0,1-34.07,11.11,142.81,142.81,0,0,1-36.18,1.47,139.09,139.09,0,0,1-34.12-7.36l-6.54-3.24-7-3.58q-7-3.63-13.8-7.47-13.67-7.69-26.77-16.29l-6.52-4.35-3.22-2.22-3-2.12a65.83,65.83,0,0,1-5.79-4.63l-5.91-5-5.9-5-5.88-5.27c-3.89-3.54-7.87-7-11.71-10.6-7.56-7.31-15.25-14.49-22.44-22.17-7.42-7.43-14.26-15.38-21.3-23.16-3.41-4-6.67-8.06-10-12.08l-5-6.06-4.75-6.24c-3.13-4.18-6.37-8.29-9.43-12.52l-8.93-12.86c-3-4.23-5.7-8.73-8.47-13.13l-4.16-6.61-2.07-3.31c-.67-1.11-1.28-2.25-1.93-3.38l-7.68-13.57-1.92-3.41-1.75-3.48-3.52-6.94-3.52-7c-.57-1.17-1.18-2.31-1.74-3.48l-1.59-3.56-6.36-14.18c-.52-1.19-1.09-2.36-1.58-3.56l-1.42-3.61-2.84-7.23-2.84-7.23-1.43-3.61-1.25-3.68c-3.28-9.83-6.82-19.54-9.55-29.52l-2.19-7.44c-.69-2.5-1.55-4.94-2.08-7.47l-3.66-15.08a537.3,537.3,0,0,1-11.11-60.92c-1.23-10.24-2.27-20.53-3-30.84s-1.3-20.65-1.45-31-.25-20.73.15-31.09c.12-5.19.38-10.38.64-15.57l.48-7.79.55-8c1.63-21.6,3-43.23,4.44-64.84.37-6.22.75-12.42,1.14-18.64A320.57,320.57,0,0,0,678.71,1085c58.27,52.79,133,80.67,216.24,80.67q13.74,0,27.32-1c14,69.83,35,145.77,66.82,213.31q2.22,6.24,4.5,12.44c9.3,25.29,19.2,50.34,29.16,75.26l7.44,18.66,3.65,9.3,1.82,4.65c.64,1.57,1.07,3,1.61,4.52a144.17,144.17,0,0,1,8.55,36.31A93.75,93.75,0,0,1,1042.8,1574.49Z" transform="translate(-428.61 -123.55)"/><path class="cls-11" d="M1879.8,1172.88c-.14,10.37-.76,20.71-1.42,31s-1.81,20.6-3,30.84a541.71,541.71,0,0,1-11.09,60.92l-3.66,15.08c-.55,2.53-1.39,5-2.1,7.47l-2.19,7.44c-2.73,10-6.27,19.69-9.55,29.52l-1.25,3.68-1.41,3.61-2.85,7.23-2.83,7.23-1.43,3.61c-.5,1.2-1,2.37-1.57,3.56l-6.38,14.18-1.59,3.56c-.54,1.17-1.15,2.31-1.74,3.48l-3.51,7-3.51,6.94-1.75,3.48-1.93,3.41-7.68,13.57c-.64,1.13-1.25,2.27-1.94,3.38l-2.08,3.31-4.14,6.61c-2.78,4.4-5.44,8.9-8.48,13.13l-8.93,12.86c-3.06,4.23-6.29,8.34-9.42,12.52l-4.74,6.24-5,6.06c-3.34,4-6.61,8.11-10,12.08-7,7.78-13.86,15.73-21.3,23.16-7.17,7.68-14.87,14.86-22.42,22.17-3.86,3.59-7.82,7.06-11.73,10.6l-5.88,5.27-11.8,9.93a65.9,65.9,0,0,1-5.8,4.63l-3,2.12-3.23,2.22-6.49,4.35q-13.1,8.58-26.77,16.29-6.84,3.84-13.82,7.47l-7,3.58-6.5,3.23a139.7,139.7,0,0,1-34.15,7.37,142.91,142.91,0,0,1-36.19-1.47,120.76,120.76,0,0,1-34.06-11.11,91.38,91.38,0,0,1-27.77-21.1l-1.45-1.6-1.31-1.72-2.63-3.42c-.82-1.19-1.55-2.43-2.33-3.63a33.69,33.69,0,0,1-2.2-3.7l-2-3.83-.51-1-.4-1-.81-2c-.51-1.34-1.14-2.66-1.6-4l-1.27-4.18a93.75,93.75,0,0,1-3-35.36,143.72,143.72,0,0,1,8.54-36.31c.55-1.51,1-3,1.62-4.52l1.81-4.65,3.65-9.3,7.44-18.66c10-24.92,19.87-50,29.18-75.26q3.89-10.59,7.62-21.27s0,0,0-.06c29.52-65.26,49.37-137.64,62.73-204.42q13.57,1,27.34,1c83.17,0,158-27.88,216.22-80.67a320.69,320.69,0,0,0,51.06-59.35q.6,9.93,1.22,19.92c1.47,21.61,2.8,43.24,4.42,64.84l.57,8,.48,7.79c.24,5.19.51,10.38.63,15.57C1880.06,1152.15,1880,1162.54,1879.8,1172.88Z" transform="translate(-428.61 -123.55)"/><path class="cls-8" d="M1918.22,412.64c-5,63.22-6.87,92.1-5.6,145.93l-60.17-2.16c-76.36-4.77-190.61-11.26-247.39-11.26-95,0-225.08,0-282.39,86q-4.14,6.21-7.7,12.61a74.52,74.52,0,0,1-129.92,0q-3.58-6.39-7.72-12.61c-57.3-86-187.4-86-282.38-86-56.81,0-171,6.49-247.39,11.26l-54.9,2c1.24-53.72-.62-82.61-5.61-145.74L571.39,214.5c0-42.3,52.52-63.48,83.26-33.57l86.82,84.53.27.28c1.37,1.62,2.76,3.17,4.14,4.68,1,1.17,2.12,2.31,3.18,3.45,4.25,4.55,8.6,8.9,13,13.13q13.3,12.71,27.69,23.94a357.46,357.46,0,0,0,29.83,20.94,308.79,308.79,0,0,0,31.8,17.59,276.42,276.42,0,0,0,68.23,22.8l4.38.86,4.41.66c3,.42,5.88.88,8.8,1.26l8.86.84c1.47.12,2.92.31,4.41.36l4.42.19c2.94.11,5.86.29,8.8.3l8.78-.12c1.48,0,2.92,0,4.38-.09l3.51-.24a1,1,0,0,0,.9-.91v0a1,1,0,0,0-.84-.93L977,374c-1.42-.19-2.85-.51-4.26-.75l-8.47-1.54c-2.81-.59-5.58-1.32-8.36-2l-4.16-1c-1.39-.32-2.74-.78-4.11-1.17l-8.15-2.43c-2.68-.9-5.35-1.89-8-2.82l-4-1.43-3.91-1.6a252.92,252.92,0,0,1-57.55-32.88,269.49,269.49,0,0,1-21-17.52c1.94-.54,3.82-1.16,5.73-1.85,73.44-26.76,196.6-50.46,314.77-63.61.3,0,.59-.08.89-.11a783.94,783.94,0,0,1,172.29,0c.3,0,.6.06.9.11C1457.84,256.56,1581,280.26,1654.45,307c1.17.42,2.35.83,3.53,1.19a263.24,263.24,0,0,1-21.7,18.18,253.06,253.06,0,0,1-57.54,32.88l-3.91,1.6-4,1.43c-2.65.93-5.31,1.92-8,2.82l-8.16,2.43c-1.37.39-2.72.85-4.11,1.17l-4.16,1c-2.77.65-5.55,1.38-8.35,2l-8.48,1.54c-1.41.24-2.83.56-4.26.75l-3.4.44a.94.94,0,0,0-.85,1,1,1,0,0,0,.89.91l3.51.24c1.46.08,2.91.06,4.38.09l8.77.12c2.95,0,5.87-.19,8.83-.3l4.4-.19c1.49-.05,2.94-.24,4.41-.36l8.86-.84c2.92-.38,5.86-.84,8.8-1.26l4.41-.66,4.38-.86a276.84,276.84,0,0,0,68.25-22.8,311.81,311.81,0,0,0,31.79-17.59,359,359,0,0,0,29.82-20.94q7.5-5.85,14.69-12.12a0,0,0,0,0,0,0,78.47,78.47,0,0,0,12.36-9.85l111-108c30.72-29.91,83.25-8.73,83.25,33.57Z" transform="translate(-428.61 -123.55)"/><path class="cls-5" d="M1060.94,1360.56a19,19,0,0,1,31.71-20.94,58.08,58.08,0,0,0,97.19-.3,19,19,0,0,1,31.84,20.76,96.08,96.08,0,0,1-160.74.48Z" transform="translate(-428.61 -123.55)"/><path class="cls-6" d="M1326.46,1461.06a19,19,0,0,1,5.38,26.33,96.07,96.07,0,0,1-160.74-.48,19,19,0,1,1,31.85-20.74,58.06,58.06,0,0,0,97.17.28A19,19,0,0,1,1326.46,1461.06Z" transform="translate(-428.61 -123.55)"/><path class="cls-7" d="M1310.17,1339.32a58.07,58.07,0,0,0,97.18.3,19,19,0,0,1,31.71,20.94,96.08,96.08,0,0,1-160.74-.48,19,19,0,0,1,31.85-20.76Z" transform="translate(-428.61 -123.55)"/><path class="cls-2" d="M894.86,1631.21l-1.72-.69,1.05.36Z" transform="translate(-428.61 -123.55)"/><path class="cls-2" d="M1141.15,1403.75a95.86,95.86,0,0,1-80.21-43.19,19,19,0,0,1,31.71-20.94,58.08,58.08,0,0,0,97.19-.3,19,19,0,0,1,31.84,20.76A95.8,95.8,0,0,1,1141.15,1403.75Z" transform="translate(-428.61 -123.55)"/><path class="cls-2" d="M1331.84,1487.39a96.07,96.07,0,0,1-160.74-.48,19,19,0,1,1,31.85-20.74,58.06,58.06,0,0,0,97.17.28,19,19,0,1,1,31.72,20.94Z" transform="translate(-428.61 -123.55)"/><path class="cls-2" d="M1439.06,1360.56a96.08,96.08,0,0,1-160.74-.48,19,19,0,0,1,31.85-20.76,58.07,58.07,0,0,0,97.18.3,19,19,0,0,1,31.71,20.94Z" transform="translate(-428.61 -123.55)"/><path class="cls-2" d="M1235.44,1006a22.24,22.24,0,0,1,2.1-1.37A20.43,20.43,0,0,0,1235.44,1006Z" transform="translate(-428.61 -123.55)"/><path class="cls-2" d="M1235.44,1006a22.24,22.24,0,0,1,2.1-1.37A20.43,20.43,0,0,0,1235.44,1006Z" transform="translate(-428.61 -123.55)"/><path class="cls-8" d="M1327,1101.48a23.89,23.89,0,0,1-2.85,4l-43.7,49.67-12.07,13.72a23.47,23.47,0,0,1-35.21,0l-12.1-13.72-45.21-51.25a23.12,23.12,0,0,1-2.22-3,23.4,23.4,0,0,1,2.22-28l55.77-63.39c.15-.17.3-.35.45-.5l.45-.46a23.78,23.78,0,0,1,2.91-2.52,22.24,22.24,0,0,1,2.1-1.37,25,25,0,0,1,2.43-1.21l.66-.27c.37-.15.73-.29,1.11-.41h0c.5-.16,1-.31,1.47-.43s.9-.23,1.35-.32c.6-.11,1.22-.22,1.83-.28.35,0,.69-.09,1-.11.6-.06,1.2-.07,1.8-.07a23.38,23.38,0,0,1,17.59,7.93l57.32,65A23.48,23.48,0,0,1,1327,1101.48Z" transform="translate(-428.61 -123.55)"/><circle class="cls-12" cx="537.84" cy="727.54" r="155.62"/><circle class="cls-2" cx="590.96" cy="781.21" r="41.07"/><circle class="cls-13" cx="414.54" cy="652.47" r="141.18"/><circle class="cls-12" cx="1105.35" cy="727.54" r="155.62"/><circle class="cls-2" cx="1158.48" cy="781.21" r="41.07"/><circle class="cls-13" cx="982.06" cy="652.47" r="141.18"/><path class="cls-14" d="M745.38,245" transform="translate(-428.61 -123.55)"/><path class="cls-9" d="M1439.06,1360.56a96.08,96.08,0,0,1-160.74-.48,19,19,0,0,1,31.85-20.76,58.07,58.07,0,0,0,97.18.3,19,19,0,0,1,31.71,20.94Z" transform="translate(-428.61 -123.55)"/><path class="cls-9" d="M1331.84,1487.39a96.07,96.07,0,0,1-160.74-.48,19,19,0,1,1,31.85-20.74,58.06,58.06,0,0,0,97.17.28,19,19,0,1,1,31.72,20.94Z" transform="translate(-428.61 -123.55)"/><path class="cls-9" d="M1221.68,1360.08a96.08,96.08,0,0,1-160.74.48,19,19,0,0,1,31.71-20.94,58.08,58.08,0,0,0,97.19-.3,19,19,0,0,1,31.84,20.76Z" transform="translate(-428.61 -123.55)"/><path class="cls-9" d="M1215.61,839c.28,7.41.43,14.65.49,21.66,0-1,0-2,0-3v-8.19c0-3.42,0-6.91,0-10.48Zm68.25,0q0,5.36,0,10.48v8.19c0,1,0,2,0,3,.06-7,.21-14.25.5-21.66Z" transform="translate(-428.61 -123.55)"/><path class="cls-9" d="M2029.33,605.64a16.32,16.32,0,0,0-12.72-6.82l-103.7-3.72-60.46-2.18c-76.35-4.77-190.61-11.26-247.38-11.26-93.38,0-220.65,0-279.38,81.61-1,1.41-2,2.87-3,4.34q-4.14,6.23-7.71,12.63a74.53,74.53,0,0,1-129.92,0q-3.57-6.42-7.72-12.63c-57.3-86-187.4-86-282.38-86-56.8,0-171,6.49-247.39,11.26l-55.08,2L483.4,598.82a16.35,16.35,0,0,0-15.66,18.28l2.47,21.17L475,678.89a16.41,16.41,0,0,0,16.26,14.49,17,17,0,0,0,3.22-.33l53-10.62C553.6,732.51,563.9,810.54,574.39,864q.55,2.85,1.17,5.68c.13.71.28,1.4.45,2.1s.3,1.4.46,2.09.33,1.5.51,2.23q0,.21.09.39.27,1.15.54,2.28c.42,1.73.84,3.45,1.28,5.16Q579.4,886,580,888a8.52,8.52,0,0,0,.27,1c.39,1.43.78,2.87,1.18,4.29s.84,2.91,1.28,4.37q.1.42.24.81.64,2.21,1.35,4.41c.49,1.59,1,3.18,1.53,4.75q.87,2.7,1.8,5.36c.46,1.36.94,2.71,1.44,4.06q.83,2.35,1.71,4.67c.51,1.36,1,2.73,1.56,4.08.25.67.52,1.35.79,2,.42,1.08.86,2.15,1.29,3.23.62,1.5,1.25,3,1.88,4.48s1.27,3,2,4.53q1.18,2.73,2.44,5.43c.47,1,1,2.06,1.43,3.08s1.09,2.33,1.66,3.48,1.13,2.31,1.7,3.45c1.14,2.29,2.31,4.59,3.51,6.85.61,1.16,1.23,2.33,1.86,3.48.3.59.61,1.16.94,1.73s.63,1.14,1,1.72a2.13,2.13,0,0,0,.23.42c.57,1,1.15,2.09,1.75,3.11a2.73,2.73,0,0,0,.23.4.23.23,0,0,0,.07.11h0l1.74,3a.15.15,0,0,0,.06.11c.74,1.28,1.5,2.56,2.27,3.82,1,1.62,1.95,3.21,2.95,4.8a.31.31,0,0,0,.08.1c.34.57.7,1.16,1.08,1.73q.24.4.54.84c.19.33.4.65.61,1s.42.64.63,1l0,.07a5.4,5.4,0,0,0,.4.65c.08.12.17.26.26.37.46.74.94,1.46,1.44,2.18q.14.23.3.45c.9,1.36,1.81,2.71,2.74,4.07l.09.13c1.13,1.62,2.25,3.22,3.41,4.83q.38.54.78,1.08s0,0,0,0c1.18,1.65,2.4,3.29,3.61,4.91s2.51,3.28,3.77,4.92h0c.42.55.84,1.07,1.26,1.59.14.17.27.35.41.51.75.95,1.51,1.91,2.29,2.85.39.5.81,1,1.22,1.49,1.21,1.48,2.46,3,3.7,4.42,1.08,1.28,2.18,2.54,3.3,3.8.66.75,1.32,1.51,2,2.26,1.19,1.34,2.4,2.66,3.63,4,1.38,1.48,2.78,3,4.19,4.43.48.49.94,1,1.42,1.45l1.71,1.74c.57.58,1.14,1.15,1.73,1.72l.37.38,2.94,2.85c.47.45.93.9,1.4,1.33.19.2.39.38.6.57.58.56,1.15,1.1,1.74,1.62,1,.92,1.93,1.82,2.92,2.7,58.28,52.79,133,80.67,216.24,80.67,1.91,0,3.81,0,5.72,0l1,0c1.35,0,2.7,0,4-.09,1.71,0,3.4-.1,5.11-.18,2.18-.09,4.35-.19,6.53-.33.87,0,1.74-.1,2.62-.16,1.53-.09,3-.21,4.58-.33,1.27-.09,2.55-.19,3.82-.32s2.43-.21,3.65-.34l.73-.08c.54,0,1.1-.1,1.64-.16,1.26-.12,2.53-.26,3.79-.41,2.31-.27,4.61-.55,6.92-.85,1.11-.15,2.22-.3,3.31-.47l1.4-.19c1.26-.18,2.53-.37,3.79-.59,2.06-.31,4.11-.66,6.15-1l2.67-.48c.62-.1,1.23-.22,1.86-.34l1.88-.36c1.06-.2,2.13-.41,3.19-.63l4.26-.89c1.23-.25,2.46-.52,3.68-.81,2-.43,3.88-.9,5.8-1.36l3.39-.84c1.91-.49,3.83-1,5.72-1.5.57-.15,1.12-.3,1.69-.47l2.73-.76,3.35-1c1.14-.33,2.26-.67,3.39-1s2.19-.67,3.27-1l.76-.25,2.09-.67c1.9-.61,3.78-1.26,5.65-1.91,1.29-.43,2.57-.88,3.83-1.35s2.71-1,4.06-1.48q1.62-.6,3.24-1.23l1.62-.63c.54-.2,1.07-.41,1.61-.63l3.19-1.28c1.08-.43,2.15-.88,3.2-1.32l3.16-1.35q1.58-.67,3.15-1.38c1-.46,2.1-.93,3.14-1.41s2.08-.94,3.12-1.44c2-.92,3.94-1.87,5.91-2.83l.46-.23q2.2-1.08,4.38-2.2c1.61-.83,3.21-1.65,4.79-2.51l2.2-1.18q1.83-1,3.6-2c.74-.41,1.47-.81,2.19-1.23,1.4-.79,2.79-1.61,4.17-2.43s2.58-1.52,3.86-2.3c.69-.4,1.36-.82,2-1.24,1.08-.66,2.16-1.34,3.24-2,1.44-.91,2.86-1.82,4.29-2.77l2.13-1.41q2-1.35,4-2.75,2.67-1.85,5.31-3.73c1.5-1.08,3-2.18,4.48-3.29s2.81-2.11,4.19-3.19c1.21-.93,2.43-1.87,3.61-2.84.54-.42,1.07-.84,1.59-1.27,1.73-1.38,3.42-2.79,5.12-4.22,61.14-51.57,95.19-120.39,96.07-194-.06-7-.21-14.25-.49-21.66h.54q0-6.33-.08-12.95c-.07-6.18-.21-12.52-.46-19h68.79c-.26,6.48-.39,12.82-.47,19-.06,4.1-.07,8.1-.07,12V839h.54c-.29,7.41-.44,14.65-.5,21.66.89,73.66,34.94,142.48,96.08,194q1.41,1.2,2.85,2.37c1.3,1.09,2.62,2.15,3.94,3.2.23.18.47.36.69.55,1.34,1.07,2.7,2.12,4.07,3.17s2.94,2.23,4.44,3.33,3,2.19,4.5,3.27l3,2.13c1,.7,2,1.41,3.06,2.1,1.68,1.14,3.39,2.28,5.1,3.37.71.47,1.41.92,2.12,1.37,1.06.69,2.13,1.36,3.21,2,1.5.93,3,1.86,4.53,2.77,1.72,1,3.48,2.08,5.25,3.08s3.43,2,5.17,2.93c2.19,1.2,4.38,2.38,6.59,3.52,1.3.69,2.62,1.37,3.94,2,1.8.91,3.63,1.81,5.46,2.7l2.49,1.18c2.24,1.07,4.5,2.1,6.77,3.11l3.42,1.5,3.43,1.47,3.93,1.62,2.55,1c3.75,1.48,7.53,2.91,11.34,4.26,1.67.6,3.33,1.17,5,1.74l2.19.73c1.12.38,2.25.74,3.37,1.1h0l.94.31,2.27.7c1.32.4,2.64.81,4,1.2s2.51.75,3.77,1.11c.94.27,1.89.54,2.83.79,1.31.36,2.61.71,3.92,1l3.39.89c1.12.28,2.26.57,3.4.84l3.42.81c2.28.54,4.56,1.05,6.86,1.53l1.72.36c.57.13,1.16.25,1.73.36.76.16,1.53.31,2.29.45,1.34.27,2.69.52,4,.76.93.18,1.87.35,2.8.51s1.88.33,2.82.5c2.55.43,5.1.83,7.67,1.2q3,.45,6,.82c1.64.21,3.27.42,4.92.6a3.78,3.78,0,0,0,.47.06l.58.08c2.25.25,4.5.49,6.75.7l.66.06c1.59.15,3.17.29,4.76.41q2.83.24,5.68.42l2.91.18.69.05h.42c.89.06,1.77.09,2.67.13,2.52.14,5.06.23,7.59.3,1.34.05,2.69.08,4,.09l1,0c1.91,0,3.81,0,5.72,0,83.17,0,158-27.88,216.22-80.67q2-1.75,3.87-3.58c.71-.65,1.4-1.31,2.09-2,.16-.17.31-.32.48-.47,1.09-1,2.19-2.11,3.27-3.17q2.26-2.25,4.5-4.55l.57-.59c1.27-1.32,2.55-2.67,3.81-4l.76-.82c1.14-1.21,2.27-2.45,3.36-3.69q.18-.18.33-.36l1-1.17c.21-.21.4-.44.58-.66.72-.8,1.43-1.61,2.1-2.42a1.87,1.87,0,0,0,.27-.31c.5-.56,1-1.13,1.46-1.7a5.05,5.05,0,0,0,.43-.51c.84-1,1.67-2,2.48-3l1.36-1.67c.81-1,1.61-2,2.39-3,.1-.11.19-.25.3-.37.79-1,1.56-2,2.32-3,2.19-2.82,4.34-5.69,6.42-8.58.57-.78,1.14-1.58,1.7-2.37,0,0,.06-.06.06-.09l.13-.18s0,0,0,0c.25-.36.52-.71.76-1.07s.51-.72.75-1.08h0l1.31-1.86c.13-.19.27-.38.39-.57.85-1.25,1.71-2.51,2.55-3.78,0,0,0,0,0-.08.27-.39.53-.78.78-1.18s.48-.71.71-1.07c.76-1.17,1.53-2.35,2.28-3.54.21-.31.4-.63.6-.94q1.71-2.72,3.36-5.46c1.18-1.95,2.34-3.9,3.48-5.88q1.23-2.14,2.43-4.31l.34-.61c.63-1.11,1.25-2.22,1.85-3.33s1.21-2.25,1.8-3.38c.07-.13.15-.25.21-.39.79-1.51,1.59-3,2.37-4.59s1.54-3.07,2.31-4.61,1.35-2.8,2-4.21c.54-1.14,1.08-2.29,1.6-3.45s1.07-2.34,1.59-3.51,1-2.25,1.49-3.37a.36.36,0,0,0,.07-.17c1.08-2.44,2.12-4.92,3.12-7.39.44-1.08.87-2.15,1.29-3.23q.76-1.9,1.5-3.84c.45-1.17.89-2.33,1.32-3.52.59-1.53,1.14-3.08,1.68-4.62,1.08-3,2.13-6.09,3.12-9.16q.76-2.33,1.49-4.66c.43-1.34.84-2.71,1.24-4.09s.81-2.75,1.2-4.13c.33-1.11.65-2.23,1-3.36q.87-3.15,1.68-6.31t1.57-6.38q.58-2.47,1.13-4.95.42-1.89.81-3.78c.37-1.68.72-3.39,1-5.08,10.48-53.42,20.79-131.45,26.94-181.53l53,10.62a17,17,0,0,0,3.22.33A16.4,16.4,0,0,0,2025,678.89l4.76-40.61,2.49-21.18A16.41,16.41,0,0,0,2029.33,605.64ZM1151,849.36c0,2.84,0,5.61,0,8.34,0,.92,0,1.82,0,2.72v.07c0,.89,0,1.77-.07,2.65a1.62,1.62,0,0,1,0,.38c0,.32,0,.65,0,1,0,0,0,0,0,0a1.55,1.55,0,0,1,0,.21s0,0,0,0,0,0,0,.06a.3.3,0,0,1,0,.13v.09a1.77,1.77,0,0,1,0,.23v.14a1.88,1.88,0,0,1,0,.41v.11c0,.87-.09,1.74-.13,2.59v0c-.05.76-.09,1.51-.17,2.28a2.66,2.66,0,0,1,0,.39c0,.28,0,.57-.06.85l0,.5c0,.25,0,.49-.08.75a0,0,0,0,1,0,0c0,.23,0,.45-.06.68,0,.06,0,.13,0,.19-.08.78-.15,1.56-.24,2.34s-.17,1.57-.27,2.35c0,.2-.05.41-.08.62s0,.41-.07.62,0,.19,0,.3-.06.46-.09.71,0,.31-.06.47l-.09.65-.18,1.18a.28.28,0,0,1,0,.09.41.41,0,0,0,0,.15v0c0,.25-.09.51-.12.76-.13.87-.28,1.76-.43,2.63,0,.31-.11.64-.17,1s-.09.51-.13.76l-.45,2.4c-.08.37-.14.74-.23,1.12-.16.85-.34,1.72-.54,2.59-.36,1.65-.73,3.28-1.14,4.92-.24.94-.46,1.87-.72,2.8s-.46,1.72-.7,2.57-.48,1.69-.74,2.53l-.76,2.54c-.21.66-.41,1.3-.63,1.95-.08.22-.15.45-.23.67s-.18.56-.27.83c-.18.52-.34,1.05-.54,1.57s-.43,1.25-.66,1.88c-.13.4-.28.79-.43,1.2a4.28,4.28,0,0,1-.17.43c-.07.24-.16.48-.25.72s-.15.41-.23.61l-.58,1.51c-.12.33-.26.66-.38,1a1,1,0,0,1,0,.1c-.27.68-.54,1.34-.81,2-.14.35-.29.69-.44,1-.33.82-.69,1.66-1.06,2.49-.53,1.24-1.08,2.49-1.65,3.72-.14.27-.26.55-.38.83s-.33.7-.49,1c-.45,1-.92,1.94-1.4,2.88-.31.65-.63,1.29-.94,1.92q-2.5,4.93-5.3,9.72c-.43.77-.88,1.52-1.35,2.28-.9,1.52-1.83,3-2.79,4.52-.46.75-.94,1.5-1.44,2.23s-1,1.49-1.47,2.22c-.39.57-.76,1.14-1.15,1.7-.78,1.12-1.58,2.25-2.37,3.37s-1.77,2.43-2.69,3.65c-.25.34-.51.69-.78,1s-.52.69-.79,1l-1.4,1.8-.19.26-.35.42c-.67.85-1.36,1.71-2.07,2.56l-1.26,1.52c-.52.63-1.05,1.26-1.59,1.87-.12.14-.24.27-.34.41l-.36.42-.48.55-.38.42c-.16.2-.31.38-.48.56-.36.42-.75.84-1.12,1.26-.71.79-1.41,1.57-2.12,2.34l-.09.1c-.88,1-1.77,1.89-2.67,2.84-.58.63-1.18,1.24-1.78,1.86-1.07,1.08-2.13,2.16-3.21,3.21-.56.55-1.13,1.11-1.7,1.65s-1,.94-1.48,1.43l-.56.52-.6.57c-.18.16-.34.33-.52.48l-.93.85c-.74.69-1.5,1.37-2.25,2s-1.38,1.22-2.09,1.84l-1.36,1.19c-.21.17-.44.37-.65.53q-1.76,1.51-3.54,3v0l-1.89,1.54a1.65,1.65,0,0,1-.27.21l-.3.24-.57.46c-.72.58-1.46,1.15-2.18,1.7-.48.38-1,.74-1.42,1.11-.23.19-.47.35-.69.53l-.27.19-2.12,1.58c-.75.57-1.51,1.12-2.28,1.67l-2.29,1.64c-.78.55-1.55,1.1-2.33,1.62-1.21.84-2.44,1.67-3.67,2.49s-2.34,1.55-3.53,2.3l-2.35,1.48-3,1.83c-1,.61-1.94,1.17-2.91,1.74l-1.52.89c-.82.49-1.66,1-2.5,1.44q-6.3,3.57-12.87,6.82c-.87.44-1.76.87-2.63,1.29s-1.77.86-2.67,1.26-1.71.8-2.58,1.2l-2.61,1.17c-1.59.71-3.18,1.4-4.78,2.09l-1.31.54c-1.48.61-3,1.23-4.5,1.83q-2.67,1.05-5.38,2.07c-.89.34-1.79.67-2.69,1l-.15.06c-1.75.63-3.54,1.25-5.31,1.86a3.66,3.66,0,0,0-.43.15c-1.7.55-3.39,1.11-5.1,1.65a1,1,0,0,1-.21.07c-1.79.56-3.57,1.1-5.37,1.64-1.32.39-2.64.76-4,1.14l-1.66.46a1.22,1.22,0,0,1-.26.06c-.54.17-1.11.3-1.65.45l-3,.8c-.33.07-.68.16-1,.25-.59.16-1.17.29-1.76.44l-2.62.63-3.05.69c-.75.18-1.51.34-2.26.49l-1.59.35-2.27.46-.42.1-.21,0c-.82.17-1.63.32-2.46.47s-1.92.38-2.89.54c-.38.08-.75.15-1.13.21-.87.15-1.72.31-2.59.44-2,.33-3.92.64-5.88.93-1,.15-2,.28-3,.42-.27,0-.55.07-.82.12s-.66.09-1,.12c-.61.09-1.23.16-1.84.24l-1.22.15c-1.6.19-3.22.39-4.84.55l-3.21.32c-.86.09-1.71.16-2.57.22-1.57.14-3.16.27-4.75.38l-.47,0c-1.71.12-3.43.22-5.14.31-.71.05-1.4.08-2.1.11l-3,.12q-1.44.06-2.88.09c-1.08,0-2.18.06-3.26.07h-.51c-1.57,0-3.13,0-4.71,0-66.75,0-126.4-22.07-172.5-63.81-42.39-38.39-72.27-92.83-84.12-153.3-.25-1.32-.52-2.67-.78-4l-.36-1.87v0c-.3-1.56-.6-3.12-.88-4.73s-.59-3.19-.89-4.83q-.23-1.35-.48-2.7c-.31-1.81-.64-3.64-1-5.49s-.64-3.72-1-5.61c-.16-.94-.33-1.89-.48-2.85-.33-1.88-.64-3.82-1-5.76-.09-.49-.18-1-.25-1.5-.56-3.37-1.1-6.79-1.65-10.26-.47-2.94-.93-5.91-1.4-8.89-.15-1-.31-2.09-.48-3.14-.3-2-.61-4-.91-6.07s-.62-4.08-.92-6.12l-.45-3.06c-.15-1-.3-2-.45-3.08l-.09-.55v0c-.13-.85-.25-1.69-.37-2.55-.29-2-.59-4-.87-6.06s-.59-4.09-.87-6.15q-.66-4.6-1.29-9.17c-.27-2-.56-4-.83-6,0,0,0-.08,0-.12-.14-1-.27-2-.41-3,0-.27-.07-.53-.12-.78s0-.39-.07-.58c-.48-3.58-1-7.1-1.43-10.6-.27-2-.52-3.93-.78-5.87s-.54-4-.79-6c-.11-.9-.23-1.79-.35-2.66,0-.35-.09-.7-.13-1.06q-.25-1.87-.48-3.72c-.17-1.23-.32-2.45-.48-3.66-.08-.56-.14-1.11-.21-1.66-.33-2.54-.65-5-1-7.5,0-.32-.08-.64-.12-.95l-.09-.77c-.14-1.11-.29-2.2-.42-3.28-.2-1.52-.38-3-.56-4.52q-.33-2.53-.63-5c-.4-3.28-.79-6.47-1.17-9.54l.3,0H612l.18,0h.17a1.71,1.71,0,0,1,.25,0l.36,0H613l.33,0a2.24,2.24,0,0,1,.24,0l1.46-.14c.19,0,.39,0,.6-.06l.43,0,.89-.09.78-.08.3,0,1-.08.41,0h.07l.5-.05,1.74-.16.9-.09.28,0,.48,0,.36,0c.12,0,.24,0,.38,0l.18,0h.06l1.32-.12,1.09-.1.66-.06,2.78-.27a3.31,3.31,0,0,1,.34,0l.39,0,.48,0,.42,0,.36,0h.21l1.11-.11.51,0,1.25-.12c.1,0,.22,0,.33,0h0l.15,0,.25,0,1-.09a1.66,1.66,0,0,0,.22,0,1.73,1.73,0,0,0,.32,0l1.3-.12c.6-.06,1.22-.12,1.85-.16l.94-.09,1.08-.1,10.55-1,2.26-.21,1.1-.1,1.74-.16,2.11-.2,6.66-.62c.92-.09,1.83-.18,2.76-.25l1.85-.17,2.34-.22,3.58-.33,1.2-.11,2.43-.22,10-.91,2.55-.23q1.27-.13,2.58-.24c1-.09,2-.2,3.09-.28l2.86-.26,4.55-.41,2.65-.24,2.69-.24c1.3-.12,2.61-.24,3.91-.34l.78-.08,3-.27,3.23-.28c1.59-.15,3.18-.29,4.78-.42l10.08-.9,6.11-.53,3.06-.27,3.06-.26c1.2-.11,2.4-.22,3.61-.31.93-.09,1.88-.16,2.81-.24l5.64-.48,2.82-.24,4.86-.42h0l1.71-.15c4.08-.34,8.15-.67,12.17-1l9-.73c8.25-.68,16.35-1.32,24.16-1.92l7.59-.59,2.63-.19,1.48-.11,8.36-.61c.51,0,1-.08,1.51-.11s.69-.06,1-.07l1-.08,1.29-.09,1.27-.08,2.52-.19,3-.19.24,0h.12a.27.27,0,0,0,.12,0h.36a1.77,1.77,0,0,1,.33,0l.75-.06h.31l2.21-.15c2.92-.2,5.76-.38,8.47-.54l2-.12,5.84-.35,1.87-.1c.23,0,.45,0,.68,0l1.14-.06,1.78-.09,1.58-.08h.16l3.35-.15,1.57-.07,2.46-.1,1.14,0h.24a3.1,3.1,0,0,1,.42,0l.9,0,1.5,0a5.82,5.82,0,0,1,.59,0l2.53-.06,3.39,0c1.76,0,3.51,0,5.27,0h0q8.85,0,17.58.09h1.34l6.64.08,5,.07c1.65,0,3.28,0,4.93.1,3.29.07,6.54.14,9.8.25,0,0,0,0,0,0s0,0,0,0,0,0,0,0h.07a.06.06,0,0,1,.08,0q4.2.1,8.37.28,3.46.12,6.88.27,3,.12,5.91.29l5.43.28c1.46.08,2.9.17,4.34.27.57,0,1.14.06,1.69.11l1.08.07,4.89.37c1.4.1,2.79.2,4.17.32l4.14.36,1,.1c1.66.14,3.31.31,5,.47l1.08.11c1.77.18,3.54.36,5.28.57l.27,0a1.66,1.66,0,0,1,.22,0c1.13.12,2.24.27,3.35.4s2,.24,3.06.39,1.9.25,2.86.38h0c.94.12,1.89.25,2.83.4l1.46.22.31,0,.77.12a2.38,2.38,0,0,1,.37.06c5.13.76,10.16,1.63,15,2.61,1.23.24,2.44.48,3.66.75s2.4.51,3.58.78c.6.12,1.19.27,1.77.4l1.77.42c1,.21,1.89.45,2.82.69.47.11.92.23,1.37.35.93.24,1.86.48,2.77.73,1.22.33,2.43.66,3.63,1,.87.25,1.74.5,2.6.77l1.65.51,1.62.51c.54.16,1.08.34,1.6.52l1.61.54c1.65.56,3.27,1.13,4.86,1.74l1.39.53c.87.33,1.73.66,2.58,1,.3.14.62.26.92.39l.63.26.19.09c.27.1.54.21.8.33l.78.33c1,.42,2,.85,2.92,1.29.71.31,1.4.64,2.09,1,.93.44,1.84.9,2.76,1.37.51.24,1,.49,1.5.76.72.38,1.42.74,2.13,1.13.93.49,1.86,1,2.76,1.54s1.8,1.07,2.67,1.61,1.9,1.18,2.83,1.8a.88.88,0,0,1,.17.12c.27.17.52.34.79.54s.8.52,1.19.79a3.58,3.58,0,0,1,.39.29l.21.13c.69.48,1.38,1,2,1.49s1.21.9,1.81,1.38a.44.44,0,0,1,.11.09c.48.36.94.74,1.41,1.12q1.71,1.38,3.34,2.85c.36.32.72.63,1.07,1a1.27,1.27,0,0,0,.12.1c.39.35.76.71,1.14,1.08.16.14.31.3.46.45l.23.23c.3.27.58.57.88.88l.59.59.19.19c.56.57,1.1,1.16,1.64,1.76l.36.4.18.2c.18.19.34.39.51.58l.18.2c.31.38.64.73.94,1.11.48.57,1,1.14,1.4,1.72.25.3.49.62.73.93.47.6.93,1.22,1.37,1.84.07.1.16.2.24.32s.16.23.22.33c.47.63.92,1.28,1.35,1.94.74,1.09,1.44,2.2,2.13,3.31s1.22,2,1.8,3c.18.3.35.59.51.89s.26.43.38.66.37.66.55,1,.38.66.56,1l.09.17.36.67q.74,1.38,1.44,2.79a.93.93,0,0,1,.07.15c.59,1.16,1.16,2.33,1.7,3.51.06.11.1.23.16.35.45,1,.89,2,1.31,2.92s.94,2.21,1.38,3.3c0,.08.06.14.09.21a.32.32,0,0,1,0,.09l0,.11s0,0,0,0a2.52,2.52,0,0,1,.12.29c.1.23.19.47.28.72a.85.85,0,0,1,.06.17l.09.23c.3.73.59,1.47.86,2.2v0a4.19,4.19,0,0,1,.16.46,2.27,2.27,0,0,1,.18.47c.2.52.38,1,.56,1.54,0,0,0,0,0,0s.06.18.09.29.06.15.09.24,0,0,0,.06a.06.06,0,0,1,0,0s0,0,0,0,0,0,0,.06a.15.15,0,0,1,0,.06v0a.06.06,0,0,1,0,.06l.29.84c.09.24.16.46.24.69.16.46.31.93.46,1.41s.32.93.45,1.39.29.91.42,1.35a8.16,8.16,0,0,1,.27.89c.14.4.26.79.36,1.18.17.55.32,1.08.47,1.62s.27,1,.4,1.41a1.38,1.38,0,0,1,.06.26c.15.52.3,1,.42,1.54s.32,1.17.45,1.74c.23.81.42,1.61.6,2.4a4.54,4.54,0,0,1,.12.5c.08.28.15.57.21.85s.17.7.24,1a.57.57,0,0,1,0,.18l.05.18,0,.18c.3,1.29.57,2.6.84,3.89q.13.58.24,1.17c.2.91.38,1.83.54,2.74.24,1.31.48,2.62.71,3.92h0c.1.57.19,1.14.28,1.71,0,.09,0,.17,0,.26.1.66.22,1.32.31,2,.21,1.31.41,2.63.59,3.95,0,.32.09.65.13,1a2.88,2.88,0,0,1,.05.33c0,.1,0,.21,0,.33q.16,1.13.3,2.25c0,.27.08.54.11.81.12,1,.24,2,.36,3.07.15,1.38.3,2.75.43,4.13.09.87.17,1.74.26,2.61s.13,1.5.19,2.25l.18,2.25c0,.27,0,.54.06.82.11,1.22.18,2.45.27,3.66,0,.09,0,.2,0,.31.09,1.31.16,2.63.24,3.94s.15,2.64.21,3.94c0,1,.09,2,.13,3,0,.18,0,.35,0,.51s0,.27,0,.4c0,1.17.09,2.34.14,3.51,0,.65,0,1.29.06,1.93a2.81,2.81,0,0,0,0,.29c0,.71,0,1.41,0,2.1,0,.17,0,.32,0,.47,0,.72,0,1.42,0,2.13,0,.43,0,.85,0,1.29,0,1.27,0,2.56.06,3.84s0,2.74,0,4.11,0,2.73,0,4.08,0,2.7,0,4Q1151,843.54,1151,849.36Zm736.3-170.22c-.15,1.26-.31,2.56-.48,3.84-.22,1.86-.46,3.77-.7,5.69-.14,1.08-.29,2.17-.42,3.28l-.09.77c0,.31-.08.63-.12.95-.32,2.45-.63,5-1,7.5-.08.55-.14,1.1-.21,1.66-.17,1.21-.32,2.43-.48,3.66s-.32,2.47-.48,3.72c0,.36-.09.71-.14,1.06-.12.89-.22,1.77-.34,2.66-.26,2-.53,4-.8,6s-.51,3.89-.78,5.87c-.3,2.3-.61,4.63-.93,7,0,.09,0,.2,0,.3l-.45,3.34c0,.19,0,.38-.08.58s-.07.51-.12.78c-.13,1-.27,2-.4,3,0,0,0,.08,0,.12-.27,2-.54,4-.82,6-.42,3-.86,6.1-1.29,9.17-.29,2.06-.59,4.1-.87,6.15s-.54,3.81-.83,5.71v0c-.16,1.15-.33,2.31-.51,3.46s-.3,2.06-.45,3.08l-.45,3.06q-.45,3.06-.91,6.12c-.3,2-.62,4.06-.92,6.07-.16,1-.33,2.1-.48,3.14-.46,3-.93,6-1.39,8.89-.56,3.47-1.1,6.89-1.65,10.26-.08.51-.17,1-.26,1.5-.31,1.94-.63,3.88-1,5.76q-.23,1.44-.48,2.85c-.31,1.89-.63,3.77-1,5.61s-.63,3.68-1,5.49c-.16.9-.33,1.8-.48,2.7q-.46,2.65-1,5.22v0c-.16.9-.33,1.79-.49,2.66-.23,1.2-.45,2.38-.68,3.56-.25,1.36-.52,2.71-.78,4-11.85,60.47-41.73,114.91-84.12,153.3-46.09,41.74-105.75,63.81-172.48,63.81q-3.32,0-6.6-.06c-1.11,0-2.21,0-3.29-.09-1.3,0-2.59-.09-3.88-.14l-2.43-.12c-1.92-.1-3.83-.22-5.75-.36-.79,0-1.59-.1-2.38-.18-1.76-.13-3.5-.28-5.24-.44l-3-.31c-1.06-.1-2.13-.22-3.19-.34l-2.46-.3c-2.46-.3-4.92-.63-7.35-1-1.4-.19-2.76-.4-4.14-.63l-1.83-.31c-.8-.13-1.59-.27-2.4-.42l-2-.36c-2.26-.42-4.51-.85-6.76-1.32-.9-.2-1.82-.38-2.72-.59-2.07-.44-4.15-.93-6.21-1.42-.76-.18-1.53-.36-2.28-.56l-2.11-.54c-.71-.16-1.41-.36-2.12-.54q-6.62-1.76-13.06-3.78l-2.55-.82-2.91-1c-1.92-.66-3.83-1.32-5.75-2-.94-.33-1.89-.69-2.83-1s-1.88-.69-2.82-1.07a275.33,275.33,0,0,1-25.4-11.25l-1.8-.93c-2.62-1.33-5.2-2.73-7.75-4.15-.86-.45-1.71-1-2.55-1.43s-1.68-1-2.52-1.47c-1.68-1-3.33-2-5-3s-3.26-2-4.88-3.09c-2.28-1.47-4.54-3-6.76-4.52l-.6-.42c-.71-.49-1.43-1-2.12-1.51s-1.54-1.1-2.32-1.66c-1.53-1.12-3-2.25-4.55-3.41-.75-.57-1.48-1.14-2.23-1.74l-2.22-1.76c-.74-.58-1.46-1.18-2.18-1.78-.34-.27-.67-.54-1-.83,0,0,0,0,0,0-.38-.3-.75-.61-1.13-.94-.72-.59-1.44-1.2-2.14-1.82-.11-.09-.21-.19-.32-.27q-1.95-1.68-3.87-3.43c-1.41-1.27-2.8-2.58-4.17-3.89l-1.9-1.81c-.66-.65-1.34-1.31-2-2l-2-2c-.63-.64-1.25-1.29-1.88-2s-1.26-1.33-1.89-2-1.24-1.33-1.86-2-1.23-1.34-1.83-2q-1.82-2-3.57-4.14c-.58-.69-1.17-1.39-1.74-2.1q-1.72-2.09-3.39-4.21c-1.14-1.49-2.26-3-3.39-4.49-.49-.67-1-1.35-1.48-2s-1-1.45-1.55-2.19-1.2-1.72-1.78-2.59c-.44-.62-.84-1.25-1.25-1.86s-1-1.5-1.47-2.25q-1.44-2.25-2.83-4.55-.53-.83-1-1.68-1.62-2.71-3.14-5.48c-.79-1.46-1.57-2.92-2.32-4.39-.42-.81-.84-1.63-1.23-2.44s-.8-1.59-1.17-2.39-.74-1.54-1.1-2.31c-.75-1.63-1.5-3.28-2.19-4.93-.33-.76-.66-1.53-1-2.29a3.13,3.13,0,0,0-.15-.32c-.3-.77-.61-1.53-.91-2.3-.24-.6-.47-1.18-.69-1.78s-.41-1-.59-1.55-.43-1.14-.63-1.71c-.28-.79-.57-1.59-.84-2.4q-1.58-4.56-2.91-9.19c-.07-.25-.13-.5-.21-.75-.18-.59-.33-1.17-.48-1.74l-.27-1c-.22-.86-.45-1.73-.66-2.58s-.42-1.71-.61-2.57c-.29-1.23-.56-2.44-.81-3.67l-.18-.86c-.11-.54-.23-1.08-.33-1.63s-.21-1.1-.32-1.64c-.16-.87-.33-1.74-.46-2.6s-.26-1.46-.36-2.2c-.2-1.26-.39-2.52-.56-3.77-.09-.67-.18-1.33-.25-2-.12-.87-.21-1.75-.3-2.63s-.17-1.51-.23-2.26c0-.26-.06-.53-.09-.8-.06-.62-.1-1.27-.15-1.92s-.12-1.36-.15-2.05-.1-1.62-.15-2.43c0-.6-.07-1.22-.09-1.8s-.06-1.46-.09-2.16,0-1.53,0-2.31c0-.53,0-1.05,0-1.56s0-1,0-1.58c0-2.73,0-5.5,0-8.34,0-7.56,0-15.4.08-23.44v0c0-1.27,0-2.56.06-3.85,0-.54,0-1.08,0-1.62h0c0-.75,0-1.5.06-2.27,0-.26,0-.53,0-.81v-.14c0-1,.06-2,.09-2.95,0-.48,0-1,.05-1.46l.09-2.47c0-.39,0-.77,0-1.15s0-.53,0-.79,0-.67,0-1c0-1.11.1-2.22.16-3.34,0-.93.09-1.86.15-2.79s.11-1.86.17-2.79q.11-1.71.24-3.42c0-.18,0-.38,0-.56.09-1.33.2-2.65.32-4,.13-1.52.27-3,.42-4.55.1-1.11.22-2.23.36-3.35.09-.94.21-1.88.31-2.83v0s0,0,0,0a0,0,0,0,0,0,0,.53.53,0,0,1,0-.12c0-.28.06-.55.11-.84s0-.43.07-.66.08-.61.12-.93c.09-.75.2-1.5.3-2.23,0-.32.09-.62.14-.93l.18-1.31c0-.22.06-.43.1-.64.06-.48.14-1,.21-1.44a.34.34,0,0,0,0-.14l.18-1a1.13,1.13,0,0,1,0-.25c.16-1.06.33-2.11.52-3.18s.38-2.13.59-3.21c.06-.4.13-.8.22-1.21.18-.95.38-1.89.57-2.84.26-1.25.53-2.52.81-3.76,0-.06,0-.14,0-.2.28-1.27.58-2.54.9-3.82s.57-2.27.87-3.39c.1-.44.22-.86.34-1.28.26-1,.53-1.9.81-2.86.14-.48.27-.94.42-1.43.26-.85.51-1.69.78-2.53.32-1,.65-2,1-3,.15-.5.33-1,.5-1.47.3-.89.61-1.76.94-2.63l.14-.39c.06-.17.13-.35.19-.53.14-.34.27-.7.41-1a1,1,0,0,1,.09-.22q.19-.54.42-1.08c.22-.59.46-1.19.7-1.77.36-.9.74-1.8,1.13-2.69.49-1.15,1-2.29,1.51-3.42l.09-.18c.44-.94.89-1.87,1.35-2.8a2,2,0,0,1,.09-.2l.41-.81c.09-.18.18-.37.28-.55.26-.51.51-1,.78-1.52.09-.18.2-.36.29-.54.22-.43.46-.87.7-1.3s.39-.74.6-1.1l.41-.72a1.82,1.82,0,0,1,.15-.27c.72-1.27,1.48-2.54,2.26-3.81.15-.25.3-.51.48-.76s.21-.36.33-.53.38-.6.57-.9c.3-.48.62-1,.93-1.42,1-1.55,2.12-3,3.26-4.53l1.21-1.53.45-.57,1.16-1.35q.4-.48.84-1l.81-.9c.36-.39.7-.77,1.06-1.14s.74-.77,1.1-1.13l.78-.78c.39-.39.78-.78,1.18-1.14s.81-.79,1.23-1.15c.21-.21.44-.39.65-.59.42-.39.87-.78,1.3-1.15s.72-.63,1.1-.93.58-.49.88-.72c.47-.41.93-.77,1.4-1.14a102,102,0,0,1,10.59-7.28l1.44-.87c.36-.19.72-.4,1.09-.61.57-.33,1.14-.65,1.73-1,.19-.12.4-.24.61-.35.63-.34,1.26-.67,1.91-1s1.11-.59,1.68-.86l.46-.23c.78-.4,1.56-.75,2.34-1.13s1.47-.71,2.21-1,1.41-.65,2.11-1c4.14-1.78,8.45-3.43,12.9-4.93,1-.35,2-.69,3-1s1.8-.57,2.72-.84a4.26,4.26,0,0,1,.54-.16l2.61-.78a3.34,3.34,0,0,1,.52-.14c1-.28,2-.57,3-.84s1.9-.51,2.88-.76c.25-.08.52-.13.78-.19.84-.22,1.69-.43,2.56-.64,1.17-.28,2.36-.57,3.56-.83.13,0,.28-.08.43-.1,1.16-.27,2.34-.54,3.53-.78s2.67-.57,4-.82l2.41-.47.68-.11.18,0a2.85,2.85,0,0,1,.39-.06s0,0,0,0h.07l.18,0,.89-.17c.43-.09.87-.16,1.3-.24,2.07-.37,4.17-.7,6.27-1,1.14-.2,2.3-.38,3.45-.54l.8-.12c4.18-.62,8.44-1.17,12.78-1.68,4.74-.55,9.54-1,14.43-1.47,1.27-.11,2.53-.23,3.82-.32q4.59-.37,9.26-.69l4.69-.29c1.26-.08,2.51-.16,3.78-.22.69,0,1.4-.07,2.09-.12,2.79-.15,5.58-.28,8.4-.4l9.34-.35c.29,0,.57,0,.87,0,2.7-.09,5.42-.16,8.15-.24l7.18-.16,3.81-.06,3.3-.06,4,0q4.82-.06,9.67-.09l4.25,0c4.66,0,9.33,0,14,0l3.39,0,2.53.06,1,0,1.07,0,1.56,0h.54l1.06.05,4,.16,1,0h.18l.84,0,.63,0,.78,0,1.19.06h.28l1.49.08,1.18.06c.21,0,.42,0,.65,0l1.86.1,5.85.35,2,.12,3.62.22c1.23.08,2.47.15,3.73.25l3.33.22,4.52.3,9.39.66,4.32.32.55,0,2.13.15c1,.07,1.89.15,2.84.21.75.06,1.48.12,2.23.16a1.43,1.43,0,0,0,.29,0l.85.06,1.7.14,2.56.19,2.58.2.83.06,2.83.23c6.68.52,13.53,1.06,20.51,1.63l9,.73c4,.35,8.08.68,12.16,1l1,.09c.93.08,1.86.15,2.8.25s1.88.14,2.81.23l2.82.24,1.32.11,4.32.37c.93.08,1.87.15,2.8.24,1.22.09,2.42.2,3.62.31l3.06.26,3.06.27,6.1.53,10.08.9c1.61.13,3.2.27,4.79.42l3.22.28,3,.27.78.08c1.31.1,2.61.22,3.92.34l2.68.24,2.66.24,4.54.41,2.87.26c1,.08,2.07.19,3.09.28s1.72.15,2.58.24l2.55.23,10,.91,2.43.22,1.2.11,3.59.33,2.34.22,1.84.17c.93.07,1.85.16,2.76.25l6.66.62,2.1.2h0l.51.05a.58.58,0,0,1,.19,0l1,.09,1,.09h.09l2.27.21,10.54,1,1.08.1,1,.09c.63,0,1.24.1,1.84.16l1.31.12a1.63,1.63,0,0,0,.31,0l.23,0,1,.09.26,0,.15,0h0l.33,0,1.24.12.51,0,1.11.11h.21l.36,0,.42,0,.48,0,.39,0c.12,0,.24,0,.35,0l2.77.27c.23,0,.44,0,.66.06l1.1.1,1.32.12h.06l.18,0c.13,0,.25,0,.37,0l.36,0,.48,0,.29,0,.9.09,1.74.16.49.05h.08l.4,0,1,.08.3,0,.78.08.88.09.44,0,.6.06,1.45.14a1.75,1.75,0,0,1,.24,0,3.11,3.11,0,0,1,.33,0h.06l.36,0h.15l.23,0,.22,0h.15l.14,0h.16C1888.09,672.67,1887.7,675.86,1887.29,679.14Z" transform="translate(-428.61 -123.55)"/><path class="cls-12" d="M853.22,2214.81a48.45,48.45,0,0,0,11.92,12.83,82.07,82.07,0,0,0,14.74,8.89,73.87,73.87,0,0,0,14.4,5.06,51.57,51.57,0,0,0,10.91,1.57,97,97,0,0,0,14.85-1.35,60.87,60.87,0,0,0,16.09-4.83,38.67,38.67,0,0,0,12.82-9.45q5.29-6,5.29-15.19,0-9-4.16-14.63a32.4,32.4,0,0,0-11.25-9.33,80.07,80.07,0,0,0-16.2-6.19q-9.12-2.47-19.24-5.4-23.62-6.3-40.27-15.19t-27.34-20.36a73.22,73.22,0,0,1-15.64-25.2,87.63,87.63,0,0,1-4.95-29.93,74.79,74.79,0,0,1,27.45-59.17A94.29,94.29,0,0,1,874,2010.18a130.63,130.63,0,0,1,40.61-6,127.25,127.25,0,0,1,28.13,2.82,92.15,92.15,0,0,1,23,8.43,97.13,97.13,0,0,1,19.91,14.18,215.88,215.88,0,0,1,19,20q3.38,4.05,3.38,7.88c0,2.7-1.51,5.25-4.5,7.65q-3.37,2.7-8,6.75t-9.11,7.87a92.63,92.63,0,0,1-8.55,6.53q-4.05,2.7-6.75,2.7-5,0-9.68-5.85a100.29,100.29,0,0,0-9.9-10.24,51.86,51.86,0,0,0-10.35-7.2,49.38,49.38,0,0,0-11.7-4.27,60.32,60.32,0,0,0-13.72-1.47,48.64,48.64,0,0,0-12.72,1.8,43,43,0,0,0-12.15,5.4,35,35,0,0,0-9.22,8.67,18.69,18.69,0,0,0-3.71,11.36,17.56,17.56,0,0,0,4.6,12.26,41.85,41.85,0,0,0,11.68,8.78,86.13,86.13,0,0,0,15.39,6.18q8.31,2.49,15.5,4.5a290.06,290.06,0,0,1,38,13.5A115.84,115.84,0,0,1,992.87,2151a78,78,0,0,1,19.43,25.65q7,14.73,7,34.53,0,20.92-8.3,37.47a81.61,81.61,0,0,1-23,28,105.38,105.38,0,0,1-34.79,17.55,150.5,150.5,0,0,1-43.72,6.07,141.71,141.71,0,0,1-28.8-3,122.06,122.06,0,0,1-28-9.46,107.48,107.48,0,0,1-24.75-16.42,89.29,89.29,0,0,1-19-23.74q-3.37-5.62-3.37-10.12a8.69,8.69,0,0,1,1.46-5.06,19.76,19.76,0,0,1,3.94-4.17l25.2-19.35a12.08,12.08,0,0,1,6.07-2,8.42,8.42,0,0,1,5.63,2.13A47.68,47.68,0,0,1,853.22,2214.81Z" transform="translate(-428.61 -123.55)"/><path class="cls-12" d="M1171.81,2377.94a16.84,16.84,0,0,1-5.17,7.31,13.58,13.58,0,0,1-8.33,2.36H1116c-4.2,0-7.08-.71-8.66-2.13a6.87,6.87,0,0,1-2.36-5.29,26.18,26.18,0,0,1,.56-4.5,9.14,9.14,0,0,1,1-3.38l39.6-101-100.35-244.58a.9.9,0,0,0-.22-.67v-2a13.43,13.43,0,0,1-1.13-5.62,7.51,7.51,0,0,1,2.7-6.08c1.8-1.49,4.58-2.25,8.33-2.25h40.72q9.68,0,13.28,9.45l4,10.58q4.5,12.6,10.12,28.23t11.7,32.29q6.08,16.65,12.27,33.42t11.7,31.5q5.51,14.73,10,26.54t7.2,18.57l66.6-181.13a16.84,16.84,0,0,1,5.17-7.31,13.58,13.58,0,0,1,8.33-2.36h42.3q6.3,0,8.66,2.14a6.8,6.8,0,0,1,2.36,5.28,26.07,26.07,0,0,1-.56,4.5,9.14,9.14,0,0,1-1,3.38Z" transform="translate(-428.61 -123.55)"/><path class="cls-12" d="M1382.41,2010.51a123.2,123.2,0,0,1,6.08-38.58,99.41,99.41,0,0,1,17.77-32.74,86.77,86.77,0,0,1,28.69-22.62q17-8.43,38.59-8.43h2.25q6.53,0,10.12,3.93t3.6,10.69v31a17.44,17.44,0,0,1-3.49,11,11.43,11.43,0,0,1-9.56,4.5,28.66,28.66,0,0,0-8.55,1.69,33.25,33.25,0,0,0-9.9,5.28,32.35,32.35,0,0,0-8.1,9.23,25.29,25.29,0,0,0-3.37,13.27v36.45h32.62q6.52,0,10.13,3.38c2.39,2.25,3.6,6,3.6,11.25v27.67c0,5.26-1.21,9.19-3.6,11.82s-5.78,3.93-10.13,3.93h-32.62v187.43q0,7.2-4.73,10.91a16.35,16.35,0,0,1-10.35,3.71h-34.87q-6.75,0-10.47-4.16a15.14,15.14,0,0,1-3.71-10.46V2093.31h-22.27a14.54,14.54,0,0,1-10.58-3.93c-2.7-2.63-4-6.56-4-11.82v-27.67q0-7.87,4-11.25t10.58-3.38h22.27Z" transform="translate(-428.61 -123.55)"/><path class="cls-12" d="M1672.43,2295.36A110.19,110.19,0,0,1,1639,2290a81.06,81.06,0,0,1-27.22-15,70.41,70.41,0,0,1-18.34-24.1q-6.75-14.3-6.75-32.54v-152h-25.88q-6.52,0-9.78-2.91t-3.27-9.64v-32.27q0-6.49,3.27-9.19t9.78-2.69h25.88q0-11.92.11-23.73t.11-23.74a9.15,9.15,0,0,1,2.82-7.09,24.92,24.92,0,0,1,8.66-4.61l9.23-3.26c3.59-1.28,7.31-2.52,11.13-3.72s7.54-2.21,11.14-3a41.43,41.43,0,0,1,9-1.24q7,0,9.11,3.82t2.14,10.13q0,14.17-.11,28.24t-.12,28.23h32.4q5.85,0,9,3t3.15,9.52v30.71q0,7.17-3.15,10.31t-9,3.13h-32.4V2109q0,7.77.12,14.53t.11,14.64V2181a4,4,0,0,1-.11.91,3.48,3.48,0,0,0-.12.9v29.51q0,14.88,5.85,21.41t18.9,6.53a9,9,0,0,1,7.43,3.37,12.56,12.56,0,0,1,2.7,8.1V2283q0,5.85-3.26,9.11T1672.43,2295.36Z" transform="translate(-428.61 -123.55)"/></g></g></svg>