<?xml version="1.0" encoding="UTF-8" standalone="no"?>
<svg
   xmlns:dc="http://purl.org/dc/elements/1.1/"
   xmlns:cc="http://creativecommons.org/ns#"
   xmlns:rdf="http://www.w3.org/1999/02/22-rdf-syntax-ns#"
   xmlns:svg="http://www.w3.org/2000/svg"
   xmlns="http://www.w3.org/2000/svg"
   xmlns:xlink="http://www.w3.org/1999/xlink"
   xmlns:sodipodi="http://sodipodi.sourceforge.net/DTD/sodipodi-0.dtd"
   xmlns:inkscape="http://www.inkscape.org/namespaces/inkscape"
   version="1.1"
   id="svg956"
   width="512"
   height="512"
   viewBox="0 0 96 96"
   sodipodi:docname="tern-logo-vector.svg"
   inkscape:version="1.0.2 (e86c870879, 2021-01-15)">
  <metadata
     id="metadata962">
    <rdf:RDF>
      <cc:Work
         rdf:about="">
        <dc:format>image/svg+xml</dc:format>
        <dc:type
           rdf:resource="http://purl.org/dc/dcmitype/StillImage" />
        <dc:title></dc:title>
      </cc:Work>
    </rdf:RDF>
  </metadata>
  <defs
     id="defs960">
    <linearGradient
       inkscape:collect="always"
       id="orange-bar">
      <stop
         style="stop-color:#f08b20;stop-opacity:1"
         offset="0"
         id="stop1764" />
      <stop
         style="stop-color:#cb6732;stop-opacity:1"
         offset="1"
         id="stop1766" />
    </linearGradient>
    <linearGradient
       inkscape:collect="always"
       id="blue-bar">
      <stop
         style="stop-color:#1694d2;stop-opacity:1"
         offset="0"
         id="stop1742" />
      <stop
         style="stop-color:#1583b5;stop-opacity:1"
         offset="1"
         id="stop1744" />
    </linearGradient>
    <linearGradient
       inkscape:collect="always"
       xlink:href="#blue-bar"
       id="linearGradient1732"
       x1="32.836002"
       y1="23.439646"
       x2="59.836002"
       y2="23.439646"
       gradientUnits="userSpaceOnUse" />
    <linearGradient
       inkscape:collect="always"
       xlink:href="#blue-bar"
       id="linearGradient1736"
       x1="32.836002"
       y1="35.471272"
       x2="59.836002"
       y2="35.471272"
       gradientUnits="userSpaceOnUse" />
    <linearGradient
       inkscape:collect="always"
       xlink:href="#blue-bar"
       id="linearGradient1738"
       x1="32.836002"
       y1="39.481815"
       x2="59.836002"
       y2="39.481815"
       gradientUnits="userSpaceOnUse" />
    <linearGradient
       inkscape:collect="always"
       xlink:href="#blue-bar"
       id="linearGradient1740"
       x1="32.836002"
       y1="43.492359"
       x2="59.836002"
       y2="43.492359"
       gradientUnits="userSpaceOnUse" />
    <linearGradient
       inkscape:collect="always"
       xlink:href="#blue-bar"
       id="linearGradient1754"
       x1="32.836002"
       y1="27.450186"
       x2="59.836002"
       y2="27.450186"
       gradientUnits="userSpaceOnUse" />
    <linearGradient
       inkscape:collect="always"
       xlink:href="#orange-bar"
       id="linearGradient1762"
       x1="32.465202"
       y1="18.171021"
       x2="59.465202"
       y2="18.171021"
       gradientUnits="userSpaceOnUse"
       gradientTransform="translate(0.37080002,13.289709)" />
  </defs>
  <sodipodi:namedview
     pagecolor="#ffffff" />
  <g
     inkscape:groupmode="layer"
     inkscape:label="Image"
     id="g964">
    <g
       id="gIcon"
       style="opacity:0.996">
      <path
         id="pathCircle"
         style="opacity:1;fill:#717174;fill-opacity:1;stroke:#000000;stroke-width:0;stroke-miterlimit:4;stroke-dasharray:none;stroke-opacity:1"
         d="m 46.101562,9.5 a 23.999998,24 0 0 0 -23.789062,24 23.999998,24 0 0 0 24,24 23.999998,24 0 0 0 24,-24 23.999998,24 0 0 0 -24,-24 23.999998,24 0 0 0 -0.210938,0 z M 46.3125,13.910156 A 19.589226,19.589226 0 0 1 65.902344,33.5 19.589226,19.589226 0 0 1 46.3125,53.089844 19.589226,19.589226 0 0 1 26.724609,33.5 19.589226,19.589226 0 0 1 46.3125,13.910156 Z" />
      <rect
         style="fill:url(#linearGradient1762);fill-opacity:1;stroke:#000000;stroke-width:0;stroke-miterlimit:4;stroke-dasharray:none;stroke-opacity:1"
         id="rect3"
         width="27"
         height="2.9472938"
         x="32.836002"
         y="29.987083"
         rx="2.7755599e-17" />
      <rect
         style="opacity:1;fill:url(#linearGradient1732);fill-opacity:1;stroke:#000000;stroke-width:0;stroke-miterlimit:4;stroke-dasharray:none;stroke-opacity:1"
         id="rect1"
         width="27"
         height="2.9472938"
         x="32.836002"
         y="21.966"
         rx="2.7755599e-17" />
      <rect
         style="fill:url(#linearGradient1740);fill-opacity:1;stroke:#000000;stroke-width:0;stroke-miterlimit:4;stroke-dasharray:none;stroke-opacity:1"
         id="rect6"
         width="27"
         height="2.9472938"
         x="32.836002"
         y="42.018715"
         rx="2.7755599e-17" />
      <rect
         style="fill:url(#linearGradient1738);fill-opacity:1;stroke:#000000;stroke-width:0;stroke-miterlimit:4;stroke-dasharray:none;stroke-opacity:1"
         id="rect5"
         width="27"
         height="2.9472938"
         x="32.836002"
         y="38.008171"
         rx="2.7755599e-17" />
      <rect
         style="fill:url(#linearGradient1736);fill-opacity:1;stroke:#000000;stroke-width:0;stroke-miterlimit:4;stroke-dasharray:none;stroke-opacity:1"
         id="rect4"
         width="27"
         height="2.9472938"
         x="32.836002"
         y="33.997627"
         rx="2.7755599e-17" />
      <rect
         style="fill:url(#linearGradient1754);fill-opacity:1;stroke:#000000;stroke-width:0;stroke-miterlimit:4;stroke-dasharray:none;stroke-opacity:1"
         id="rect2"
         width="27"
         height="2.9472938"
         x="32.836002"
         y="25.976542"
         rx="2.7755599e-17" />
    </g>
    <g
       id="gText"
       transform="translate(-68.149777,9.0133514)">
      <path
         id="pathT"
         style="opacity:1;fill:#717174;fill-opacity:1;stroke:#000000;stroke-width:0;stroke-miterlimit:4;stroke-dasharray:none;stroke-opacity:1"
         d="m 80.213257,56.043289 a 1.0204546,1.0204546 0 0 0 -1.021484,1.021484 1.0204546,1.0204546 0 0 0 1.021484,1.019531 h 5.478516 v 15.994141 a 1.0204546,1.0204546 0 0 0 1.021484,1.021484 1.0204546,1.0204546 0 0 0 1.019531,-1.021484 V 58.084304 h 5.679688 a 1.0204546,1.0204546 0 0 0 1.021484,-1.019531 1.0204546,1.0204546 0 0 0 -1.021484,-1.021484 z" />
      <path
         id="pathE"
         style="fill:#717174;fill-opacity:1;stroke:#000000;stroke-width:0;stroke-miterlimit:4;stroke-dasharray:none;stroke-opacity:1"
         d="m 98.713257,56.043289 a 1.0204546,1.0204546 0 0 0 -1.021484,1.019531 v 17.015625 a 1.0204546,1.0204546 0 0 1 0,0.002 1.0204546,1.0204546 0 0 0 1.021484,1.019531 H 110.2113 a 1.0204546,1.0204546 0 0 0 1.02148,-1.019531 1.0204546,1.0204546 0 0 0 -1.02148,-1.021484 H 99.732788 v -6.427735 h 9.279292 a 1.0204546,1.0204546 0 0 0 0.002,0 1.0204546,1.0204546 0 0 0 1.01954,-1.019531 1.0204546,1.0204546 0 0 0 -1.01954,-1.019531 h -0.002 -9.279292 v -6.50786 H 110.2113 a 1.0204546,1.0204546 0 0 0 1.02148,-1.021484 1.0204546,1.0204546 0 0 0 -1.02148,-1.019531 z" />
      <path
         id="pathR"
         style="fill:#717174;fill-opacity:1;stroke:#000000;stroke-width:0;stroke-miterlimit:4;stroke-dasharray:none;stroke-opacity:1"
         d="m 115.72693,56.043289 a 1.0204546,1.0204546 0 0 0 -1.01954,1.019531 v 17.017578 a 1.0204546,1.0204546 0 0 0 1.01954,1.019531 1.0204546,1.0204546 0 0 0 1.02148,-1.019531 v -6.253906 h 5.87109 l 5.22071,6.779297 a 1.0204546,1.0204546 0 0 0 0.875,0.49414 1.0204546,1.0204546 0 0 0 1.01953,-1.019531 1.0204546,1.0204546 0 0 0 -0.19727,-0.603516 l -0.0137,-0.01953 a 1.0204546,1.0204546 0 0 0 -0.0156,-0.01758 L 125.1195,67.7386 a 5.8913565,5.8913565 0 0 0 4.87305,-5.804687 5.8913565,5.8913565 0 0 0 -5.89062,-5.890625 5.8913565,5.8913565 0 0 0 -0.0703,0 z m 1.02148,2.041015 h 7.02539 v 0.01563 a 3.8504996,3.8504994 0 0 1 0.32813,-0.01563 3.8504996,3.8504994 0 0 1 3.85156,3.84961 3.8504996,3.8504994 0 0 1 -3.85156,3.851562 3.8504996,3.8504994 0 0 1 -0.32813,-0.01367 v 0.01367 h -7.02539 z" />
      <path
         id="pathN"
         style="fill:#717174;fill-opacity:1;stroke:#000000;stroke-width:0;stroke-miterlimit:4;stroke-dasharray:none;stroke-opacity:1"
         d="m 134.71325,56.043289 a 1.0204546,1.0204546 0 0 0 -1.02148,1.019531 v 17.013672 a 1.0204546,1.0204546 0 0 0 0,0.0039 1.0204546,1.0204546 0 0 0 1.02148,1.019531 1.0204546,1.0204546 0 0 0 1.01953,-1.019531 1.0204546,1.0204546 0 0 0 0,-0.0039 V 59.381179 c 12.14786,15.268528 12.11234,15.232904 12.11329,15.234375 a 1.0204546,1.0204546 0 0 0 0.15039,0.189454 1.0204546,1.0204546 0 0 0 0.71679,0.294921 1.0204546,1.0204546 0 0 0 1.01953,-1.019531 1.0204546,1.0204546 0 0 0 0,-0.0039 V 57.064773 a 1.0204546,1.0204546 0 0 0 -1.01953,-1.021484 1.0204546,1.0204546 0 0 0 -1.02148,1.021484 v 14.601563 l -12.16992,-15.22461 a 1.0204546,1.0204546 0 0 0 -0.0332,-0.04102 1.0204546,1.0204546 0 0 0 -0.77539,-0.357422 z" />
    </g>
  </g>
</svg>
