<?xml version="1.0" encoding="UTF-8" standalone="no"?>
<!DOCTYPE svg PUBLIC "-//W3C//DTD SVG 1.1//EN" "http://www.w3.org/Graphics/SVG/1.1/DTD/svg11.dtd">
<svg xmlns="http://www.w3.org/2000/svg" version="1.1" viewBox="0.00 0.00 860.00 233.00">
<g stroke-width="2.00" fill="none" stroke-linecap="butt">
<path stroke="#11606a" vector-effect="non-scaling-stroke" d="
  M 297.75 138.43
  Q 297.87 139.82 298.82 141.17
  Q 299.13 141.60 299.44 141.17
  Q 300.39 139.88 300.78 138.27"
/>
<path stroke="#11606a" vector-effect="non-scaling-stroke" d="
  M 362.25 130.87
  L 363.66 132.72
  Q 364.08 133.26 364.53 132.76
  Q 365.28 131.95 365.57 130.82"
/>
<path stroke="#11606a" vector-effect="non-scaling-stroke" d="
  M 382.50 119.04
  Q 382.67 119.03 382.82 119.01
  Q 383.25 118.94 383.25 118.51
  L 383.25 115.95
  A 0.42 0.42 0.0 0 0 382.48 115.73
  L 380.61 118.78"
/>
<path stroke="#11606a" vector-effect="non-scaling-stroke" d="
  M 348.26 120.77
  Q 348.39 120.78 348.51 120.75
  Q 348.69 120.70 348.59 120.54
  L 345.58 115.58
  Q 345.10 114.79 345.11 115.72
  L 345.20 123.01"
/>
<path stroke="#11606a" vector-effect="non-scaling-stroke" d="
  M 494.06 150.33
  Q 495.26 149.85 494.62 148.40
  Q 494.40 147.92 493.99 148.26
  L 492.01 149.96"
/>
<path stroke="#11606a" vector-effect="non-scaling-stroke" d="
  M 492.50 128.04
  Q 492.94 129.02 493.99 128.95
  Q 494.49 128.92 494.71 128.47
  Q 495.19 127.54 494.25 126.71"
/>
<path stroke="#11606a" vector-effect="non-scaling-stroke" d="
  M 553.29 134.75
  Q 553.05 134.09 551.24 134.99
  A 0.78 0.78 0.0 0 0 551.49 136.46
  Q 551.74 136.49 551.81 136.57"
/>
<path stroke="#11606a" vector-effect="non-scaling-stroke" d="
  M 687.25 150.29
  Q 688.09 149.54 687.66 148.65
  Q 687.45 148.20 686.96 148.32
  Q 685.50 148.67 685.40 150.20"
/>
<path stroke="#11606a" vector-effect="non-scaling-stroke" d="
  M 685.50 128.04
  C 685.92 130.34 689.02 128.43 687.39 126.22"
/>
<path stroke="#11606a" vector-effect="non-scaling-stroke" d="
  M 715.75 113.71
  Q 714.71 115.08 715.41 116.51
  Q 715.63 116.96 715.98 116.60
  L 718.21 114.25"
/>
<path stroke="#11606a" vector-effect="non-scaling-stroke" d="
  M 522.50 114.71
  Q 521.77 116.39 522.18 118.16
  Q 522.33 118.82 522.80 118.34
  L 524.54 116.56
  A 0.38 0.38 0.0 0 0 524.48 115.98
  L 524.23 115.81"
/>
<path stroke="#11606a" vector-effect="non-scaling-stroke" d="
  M 764.71 143.25
  Q 763.39 143.60 762.96 144.85
  Q 762.81 145.28 763.25 145.41
  Q 764.66 145.84 766.00 145.48"
/>
<path stroke="#11606a" vector-effect="non-scaling-stroke" d="
  M 772.54 120.50
  Q 773.57 120.45 774.15 119.72
  Q 774.46 119.33 774.06 119.04
  Q 773.03 118.31 772.21 119.50"
/>
<path stroke="#11606a" vector-effect="non-scaling-stroke" d="
  M 416.75 137.45
  Q 416.68 139.20 417.63 140.89
  Q 417.91 141.40 418.11 140.85
  L 419.46 137.00"
/>
<path stroke="#11606a" vector-effect="non-scaling-stroke" d="
  M 443.16 137.31
  L 444.43 141.01
  Q 444.67 141.69 444.89 141.00
  L 446.21 137.00"
/>
<path stroke="#11606a" vector-effect="non-scaling-stroke" d="
  M 432.71 127.32
  Q 432.77 125.36 431.60 123.85
  Q 431.24 123.38 431.03 123.93
  L 429.73 127.38"
/>
<path stroke="#11606a" vector-effect="non-scaling-stroke" d="
  M 821.30 150.57
  Q 822.36 149.88 821.93 148.42
  Q 821.80 147.98 821.38 148.15
  Q 819.91 148.75 819.62 150.17"
/>
<path stroke="#0d2345" vector-effect="non-scaling-stroke" d="
  M 474.17 138.19
  Q 472.11 140.22 474.12 142.67"
/>
<path stroke="#0d2345" vector-effect="non-scaling-stroke" d="
  M 494.41 135.82
  Q 495.39 134.07 493.46 134.50"
/>
<path stroke="#11606a" vector-effect="non-scaling-stroke" d="
  M 552.21 127.00
  Q 551.23 127.47 551.55 128.30
  Q 551.72 128.76 552.19 128.91
  Q 553.40 129.32 554.04 128.64"
/>
<path stroke="#11606a" vector-effect="non-scaling-stroke" d="
  M 573.25 128.54
  Q 574.36 129.38 575.67 128.88
  Q 576.12 128.70 576.13 128.22
  Q 576.14 126.75 575.29 125.59"
/>
</g>
<path fill="#21bfd3" d="
  M 115.85 42.73
  A 1.06 1.06 0.0 0 1 117.27 43.20
  L 117.45 43.57
  A 5.62 5.11 -26.6 0 1 114.72 50.65
  L 62.93 76.59
  A 5.62 5.11 -26.6 0 1 55.62 74.54
  L 55.43 74.17
  A 1.06 1.06 0.0 0 1 55.90 72.75
  L 115.85 42.73
  Z"
/>
<path fill="#21bfd3" d="
  M 188.93 72.92
  A 1.66 1.65 -53.6 0 1 189.27 75.20
  C 186.91 78.54 183.96 77.45 180.67 75.81
  Q 155.86 63.48 130.92 51.44
  C 128.15 50.10 125.83 47.49 127.39 44.50
  A 1.96 1.96 0.0 0 1 130.00 43.65
  L 187.35 71.67
  Q 187.76 71.88 188.09 72.20
  Q 188.41 72.51 188.93 72.92
  Z"
/>
<path fill="#2590ce" d="
  M 176.31 89.94
  Q 178.55 91.14 179.29 94.29
  Q 185.43 120.44 191.65 146.57
  C 192.59 150.52 189.51 154.42 186.37 158.34
  Q 172.36 175.82 158.06 193.07
  C 154.99 196.77 153.68 199.12 148.20 199.15
  Q 121.37 199.30 94.56 199.22
  Q 90.52 199.20 87.54 195.42
  Q 71.65 175.23 55.67 155.12
  C 53.41 152.27 52.31 148.90 53.08 145.57
  Q 56.23 131.79 65.91 94.18
  Q 66.78 90.81 69.59 89.38
  Q 105.53 71.14 118.22 64.93
  C 121.15 63.49 123.90 63.76 127.00 65.23
  Q 156.56 79.28 176.31 89.94
  Z
  M 171.06 94.19
  Q 151.14 83.04 123.90 70.72
  C 122.67 70.17 120.58 70.59 119.37 71.17
  Q 97.33 81.95 75.47 93.09
  C 71.70 95.01 71.08 98.59 70.01 102.75
  Q 64.54 124.07 59.41 145.48
  C 58.88 147.70 59.26 149.88 60.79 151.82
  Q 84.67 182.09 92.43 191.57
  C 93.33 192.67 95.21 193.50 96.80 193.50
  C 113.35 193.48 130.11 194.00 146.64 193.49
  C 150.14 193.39 151.05 192.08 153.09 189.58
  Q 168.40 170.76 183.69 151.92
  Q 186.10 148.95 185.49 146.50
  Q 179.49 122.56 173.92 98.52
  Q 173.18 95.37 171.06 94.19
  Z"
/>
<path fill="#1a458a" d="
  M 34.19 148.66
  A 2.07 2.06 -82.4 0 1 32.23 146.09
  L 47.85 83.64
  A 2.04 2.04 0.0 0 1 50.53 82.22
  Q 54.44 83.65 53.29 88.40
  Q 46.64 115.97 39.70 143.48
  C 38.88 146.70 37.65 148.72 34.19 148.66
  Z"
/>
<path fill="#1a458a" d="
  M 212.72 147.95
  A 0.34 0.34 0.0 0 1 212.47 148.36
  L 211.13 148.68
  A 5.37 4.95 76.5 0 1 205.07 144.61
  L 191.62 88.58
  A 5.37 4.95 76.5 0 1 195.18 82.21
  L 196.51 81.89
  A 0.34 0.34 0.0 0 1 196.92 82.14
  L 212.72 147.95
  Z"
/>
<path fill="#000000" d="
  M 612.09 104.46
  C 609.74 101.95 611.50 98.73 614.81 98.72
  Q 631.52 98.66 648.18 98.81
  C 650.66 98.83 652.91 98.56 653.80 101.24
  C 656.61 109.70 636.26 100.28 636.25 109.63
  Q 636.25 128.31 636.26 147.00
  Q 636.26 148.87 635.65 150.61
  Q 635.47 151.12 634.99 151.38
  Q 632.50 152.71 630.02 151.38
  Q 629.55 151.13 629.39 150.62
  Q 628.78 148.60 628.78 147.94
  Q 628.72 128.34 628.76 108.75
  C 628.77 103.72 616.53 105.29 612.94 104.89
  Q 612.44 104.83 612.09 104.46
  Z"
/>
<path fill="#000000" d="
  M 297.75 138.43
  Q 297.87 139.82 298.82 141.17
  Q 299.13 141.60 299.44 141.17
  Q 300.39 139.88 300.78 138.27
  C 306.74 127.80 311.09 115.52 315.74 104.37
  C 317.49 100.16 319.15 97.57 324.07 99.44
  A 1.62 1.62 0.0 0 1 324.99 101.57
  Q 315.25 125.09 305.03 147.89
  C 302.39 153.77 295.58 153.73 293.02 147.77
  Q 283.26 125.11 273.02 101.72
  A 1.62 1.62 0.0 0 1 273.68 99.68
  C 277.75 97.27 280.28 99.84 281.90 103.56
  Q 289.00 119.77 296.01 135.99
  C 296.40 136.90 297.19 137.69 297.75 138.43
  Z"
/>
<path fill="#000000" d="
  M 362.25 130.87
  L 363.66 132.72
  Q 364.08 133.26 364.53 132.76
  Q 365.28 131.95 365.57 130.82
  C 371.68 122.25 376.38 111.87 381.35 102.56
  C 383.78 98.02 391.30 97.07 391.33 103.44
  Q 391.40 125.30 391.15 147.16
  C 391.10 150.96 388.98 153.30 385.14 151.44
  A 1.33 1.30 -88.4 0 1 384.50 150.75
  Q 383.70 148.84 383.71 146.75
  Q 383.75 134.25 383.76 121.75
  Q 383.77 120.06 382.50 119.04
  Q 382.67 119.03 382.82 119.01
  Q 383.25 118.94 383.25 118.51
  L 383.25 115.95
  A 0.42 0.42 0.0 0 0 382.48 115.73
  L 380.61 118.78
  L 365.63 145.56
  A 1.80 1.80 0.0 0 1 362.49 145.55
  Q 356.85 135.37 351.25 124.67
  C 350.44 123.13 349.41 121.99 348.26 120.77
  Q 348.39 120.78 348.51 120.75
  Q 348.69 120.70 348.59 120.54
  L 345.58 115.58
  Q 345.10 114.79 345.11 115.72
  L 345.20 123.01
  Q 345.30 135.36 345.05 147.75
  Q 344.95 153.16 339.72 151.97
  C 336.69 151.28 336.85 148.30 336.82 145.15
  Q 336.61 124.41 336.86 103.66
  C 336.93 98.14 343.43 97.20 345.61 101.05
  Q 354.04 115.96 362.25 130.87
  Z"
/>
<path fill="#000000" d="
  M 494.06 150.33
  Q 495.26 149.85 494.62 148.40
  Q 494.40 147.92 493.99 148.26
  L 492.01 149.96
  C 484.41 153.22 478.84 155.03 471.46 150.02
  C 463.40 144.56 465.72 133.42 473.83 129.29
  Q 477.01 127.67 481.16 127.18
  C 484.69 126.77 488.52 128.21 492.50 128.04
  Q 492.94 129.02 493.99 128.95
  Q 494.49 128.92 494.71 128.47
  Q 495.19 127.54 494.25 126.71
  C 495.21 115.34 482.21 116.09 475.46 119.15
  C 473.63 119.98 471.62 118.15 471.74 116.29
  C 471.95 112.96 479.24 111.96 481.75 111.60
  C 506.15 108.10 502.59 133.83 502.13 148.68
  C 501.98 153.41 496.41 152.32 494.06 150.33
  Z
  M 474.17 138.19
  Q 472.11 140.22 474.12 142.67
  C 479.79 151.77 497.32 146.52 494.41 135.82
  Q 495.39 134.07 493.46 134.50
  C 487.00 130.89 478.19 131.18 474.17 138.19
  Z"
/>
<path fill="#000000" d="
  M 553.29 134.75
  Q 553.05 134.09 551.24 134.99
  A 0.78 0.78 0.0 0 0 551.49 136.46
  Q 551.74 136.49 551.81 136.57
  C 553.23 147.91 565.50 148.50 573.92 145.04
  C 577.32 143.65 581.43 146.76 578.00 148.95
  C 561.95 159.22 541.21 148.44 544.27 128.48
  C 546.23 115.64 559.93 107.74 572.04 112.98
  C 578.74 115.88 583.06 123.68 583.27 130.76
  C 583.37 134.22 580.02 134.13 576.96 134.18
  C 572.67 134.24 556.11 133.17 553.29 134.75
  Z
  M 552.21 127.00
  Q 551.23 127.47 551.55 128.30
  Q 551.72 128.76 552.19 128.91
  Q 553.40 129.32 554.04 128.64
  L 573.25 128.54
  Q 574.36 129.38 575.67 128.88
  Q 576.12 128.70 576.13 128.22
  Q 576.14 126.75 575.29 125.59
  Q 570.82 114.92 560.48 117.81
  C 557.00 118.79 552.01 123.05 552.21 127.00
  Z"
/>
<path fill="#000000" d="
  M 687.25 150.29
  Q 688.09 149.54 687.66 148.65
  Q 687.45 148.20 686.96 148.32
  Q 685.50 148.67 685.40 150.20
  L 684.35 150.25
  Q 683.88 150.27 683.47 150.50
  C 674.31 155.57 659.71 153.49 659.73 140.23
  C 659.74 130.70 669.95 125.71 678.95 127.51
  Q 682.19 128.16 685.50 128.04
  C 685.92 130.34 689.02 128.43 687.39 126.22
  C 687.00 115.51 675.49 115.89 668.52 118.86
  Q 665.63 120.10 664.52 117.37
  A 2.43 2.43 0.0 0 1 665.67 114.29
  C 670.25 111.95 676.52 110.76 681.58 111.57
  C 698.55 114.29 695.31 133.19 695.24 145.75
  Q 695.22 148.53 694.60 150.67
  Q 694.45 151.17 693.99 151.39
  Q 690.26 153.17 687.25 150.29
  Z
  M 687.7988 137.8622
  A 10.83 7.62 -10.2 0 0 675.7906 132.2804
  A 10.83 7.62 -10.2 0 0 666.4812 141.6978
  A 10.83 7.62 -10.2 0 0 678.4894 147.2796
  A 10.83 7.62 -10.2 0 0 687.7988 137.8622
  Z"
/>
<path fill="#000000" d="
  M 715.75 113.71
  Q 714.71 115.08 715.41 116.51
  Q 715.63 116.96 715.98 116.60
  L 718.21 114.25
  C 729.35 107.86 742.55 112.34 743.04 126.44
  Q 743.31 134.49 743.20 147.99
  C 743.14 154.07 735.82 153.53 735.78 146.27
  Q 735.72 136.67 735.75 127.07
  C 735.78 113.79 715.16 114.29 715.23 128.01
  C 715.28 137.45 716.05 146.17 714.60 150.64
  Q 714.43 151.14 713.96 151.40
  Q 711.58 152.65 709.12 151.46
  Q 708.63 151.22 708.44 150.71
  Q 707.78 148.91 707.78 147.00
  Q 707.75 131.75 707.82 116.50
  Q 707.83 114.73 708.53 113.13
  A 1.27 1.25 -87.5 0 1 709.25 112.46
  Q 712.81 111.14 715.75 113.71
  Z"
/>
<path fill="#000000" d="
  M 522.50 114.71
  Q 521.77 116.39 522.18 118.16
  Q 522.33 118.82 522.80 118.34
  L 524.54 116.56
  A 0.38 0.38 0.0 0 0 524.48 115.98
  L 524.23 115.81
  Q 524.67 115.69 525.17 115.78
  A 1.04 1.03 -61.5 0 0 526.06 115.51
  C 528.33 113.34 537.40 108.57 536.70 114.97
  A 2.74 2.73 -1.7 0 1 534.42 117.38
  C 515.75 120.48 525.14 139.55 521.66 150.59
  Q 521.49 151.11 521.01 151.37
  Q 518.52 152.70 516.04 151.39
  A 1.35 1.33 4.9 0 1 515.40 150.64
  Q 514.84 148.96 514.83 148.07
  Q 514.45 123.19 514.91 114.75
  C 515.11 111.19 520.82 111.29 522.50 114.71
  Z"
/>
<path fill="#000000" d="
  M 764.71 143.25
  Q 763.39 143.60 762.96 144.85
  Q 762.81 145.28 763.25 145.41
  Q 764.66 145.84 766.00 145.48
  Q 771.70 145.87 780.74 145.69
  C 784.49 145.62 786.92 149.51 783.26 151.92
  Q 782.83 152.20 782.31 152.20
  L 754.68 152.23
  Q 754.06 152.23 753.58 151.84
  C 751.34 150.01 751.84 147.52 753.54 145.39
  Q 762.20 134.53 771.06 123.81
  Q 772.27 122.35 772.54 120.50
  Q 773.57 120.45 774.15 119.72
  Q 774.46 119.33 774.06 119.04
  Q 773.03 118.31 772.21 119.50
  C 769.51 117.29 759.39 118.25 755.55 118.05
  A 2.38 2.37 -4.4 0 1 753.34 116.16
  Q 752.48 112.10 756.82 111.97
  Q 775.30 111.41 782.26 111.94
  C 786.66 112.27 784.37 118.22 782.36 120.59
  Q 774.15 130.30 766.12 140.16
  C 765.30 141.16 765.11 142.07 764.71 143.25
  Z"
/>
<path fill="#000000" d="
  M 416.75 137.45
  Q 416.68 139.20 417.63 140.89
  Q 417.91 141.40 418.11 140.85
  L 419.46 137.00
  Q 423.66 126.53 427.22 115.82
  C 428.80 111.08 433.82 110.36 435.50 115.53
  Q 439.07 126.55 443.16 137.31
  L 444.43 141.01
  Q 444.67 141.69 444.89 141.00
  L 446.21 137.00
  Q 450.53 126.38 453.68 115.34
  Q 454.87 111.14 459.30 112.21
  A 2.06 2.06 0.0 0 1 460.78 114.86
  Q 455.12 131.99 449.04 149.31
  C 448.12 151.94 444.78 152.71 442.59 151.49
  C 438.16 149.03 436.41 132.17 432.71 127.32
  Q 432.77 125.36 431.60 123.85
  Q 431.24 123.38 431.03 123.93
  L 429.73 127.38
  Q 426.02 137.15 422.81 147.16
  C 421.05 152.63 415.42 154.59 413.27 148.28
  Q 407.54 131.47 401.84 114.67
  A 1.18 1.17 49.0 0 1 401.90 113.74
  C 403.56 110.36 408.10 112.23 409.06 115.31
  C 411.40 122.76 413.41 130.41 416.75 137.45
  Z"
/>
<path fill="#000000" d="
  M 821.30 150.57
  Q 822.36 149.88 821.93 148.42
  Q 821.80 147.98 821.38 148.15
  Q 819.91 148.75 819.62 150.17
  L 818.46 150.25
  Q 817.98 150.28 817.57 150.54
  C 806.68 157.36 794.57 150.37 794.05 137.56
  Q 793.41 121.69 793.94 114.75
  C 794.20 111.24 801.01 110.58 801.10 116.07
  Q 801.28 126.76 801.27 137.47
  C 801.25 150.42 821.70 149.68 821.74 136.92
  Q 821.77 126.92 821.75 116.94
  C 821.74 113.27 824.13 110.50 827.88 112.59
  Q 828.31 112.83 828.51 113.28
  Q 829.23 114.99 829.24 116.00
  Q 829.28 132.00 829.21 148.00
  C 829.19 153.19 824.23 152.52 821.30 150.57
  Z"
/>
<path fill="#21bfd3" d="
  M 715.75 113.71
  L 718.21 114.25
  L 715.98 116.60
  Q 715.63 116.96 715.41 116.51
  Q 714.71 115.08 715.75 113.71
  Z"
/>
<path fill="#21bfd3" d="
  M 522.50 114.71
  Q 523.16 115.64 524.23 115.81
  L 524.48 115.98
  A 0.38 0.38 0.0 0 1 524.54 116.56
  L 522.80 118.34
  Q 522.33 118.82 522.18 118.16
  Q 521.77 116.39 522.50 114.71
  Z"
/>
<path fill="#21bfd3" d="
  M 348.26 120.77
  Q 347.53 120.38 346.69 120.52
  Q 346.19 120.60 346.00 121.06
  L 345.20 123.01
  L 345.11 115.72
  Q 345.10 114.79 345.58 115.58
  L 348.59 120.54
  Q 348.69 120.70 348.51 120.75
  Q 348.39 120.78 348.26 120.77
  Z"
/>
<path fill="#21bfd3" d="
  M 382.50 119.04
  L 380.61 118.78
  L 382.48 115.73
  A 0.42 0.42 0.0 0 1 383.25 115.95
  L 383.25 118.51
  Q 383.25 118.94 382.82 119.01
  Q 382.67 119.03 382.50 119.04
  Z"
/>
<path fill="#21bfd3" d="
  M 772.54 120.50
  L 772.21 119.50
  Q 773.03 118.31 774.06 119.04
  Q 774.46 119.33 774.15 119.72
  Q 773.57 120.45 772.54 120.50
  Z"
/>
<path fill="#21bfd3" d="
  M 432.71 127.32
  L 429.73 127.38
  L 431.03 123.93
  Q 431.24 123.38 431.60 123.85
  Q 432.77 125.36 432.71 127.32
  Z"
/>
<path fill="#21bfd3" d="
  M 575.29 125.59
  Q 576.14 126.75 576.13 128.22
  Q 576.12 128.70 575.67 128.88
  Q 574.36 129.38 573.25 128.54
  Q 574.56 127.90 575.29 125.59
  Z"
/>
<path fill="#21bfd3" d="
  M 687.39 126.22
  C 689.02 128.43 685.92 130.34 685.50 128.04
  Q 686.82 127.77 687.39 126.22
  Z"
/>
<path fill="#21bfd3" d="
  M 494.25 126.71
  Q 495.19 127.54 494.71 128.47
  Q 494.49 128.92 493.99 128.95
  Q 492.94 129.02 492.50 128.04
  L 494.25 126.71
  Z"
/>
<path fill="#21bfd3" d="
  M 552.21 127.00
  L 554.04 128.64
  Q 553.40 129.32 552.19 128.91
  Q 551.72 128.76 551.55 128.30
  Q 551.23 127.47 552.21 127.00
  Z"
/>
<path fill="#21bfd3" d="
  M 362.25 130.87
  L 365.57 130.82
  Q 365.28 131.95 364.53 132.76
  Q 364.08 133.26 363.66 132.72
  L 362.25 130.87
  Z"
/>
<path fill="#1a458a" d="
  M 494.41 135.82
  L 493.46 134.50
  Q 495.39 134.07 494.41 135.82
  Z"
/>
<path fill="#21bfd3" d="
  M 553.29 134.75
  Q 552.43 135.28 551.81 136.57
  Q 551.74 136.49 551.49 136.46
  A 0.78 0.78 0.0 0 1 551.24 134.99
  Q 553.05 134.09 553.29 134.75
  Z"
/>
<path fill="#21bfd3" d="
  M 419.46 137.00
  L 418.11 140.85
  Q 417.91 141.40 417.63 140.89
  Q 416.68 139.20 416.75 137.45
  Q 418.44 138.18 419.46 137.00
  Z"
/>
<path fill="#21bfd3" d="
  M 446.21 137.00
  L 444.89 141.00
  Q 444.67 141.69 444.43 141.01
  L 443.16 137.31
  Q 445.27 137.88 446.21 137.00
  Z"
/>
<path fill="#21bfd3" d="
  M 300.78 138.27
  Q 300.39 139.88 299.44 141.17
  Q 299.13 141.60 298.82 141.17
  Q 297.87 139.82 297.75 138.43
  Q 299.42 139.17 300.78 138.27
  Z"
/>
<path fill="#1a458a" d="
  M 474.17 138.19
  L 474.12 142.67
  Q 472.11 140.22 474.17 138.19
  Z"
/>
<path fill="#21bfd3" d="
  M 764.71 143.25
  L 766.00 145.48
  Q 764.66 145.84 763.25 145.41
  Q 762.81 145.28 762.96 144.85
  Q 763.39 143.60 764.71 143.25
  Z"
/>
<path fill="#21bfd3" d="
  M 821.30 150.57
  L 819.62 150.17
  Q 819.91 148.75 821.38 148.15
  Q 821.80 147.98 821.93 148.42
  Q 822.36 149.88 821.30 150.57
  Z"
/>
<path fill="#21bfd3" d="
  M 494.06 150.33
  L 492.01 149.96
  L 493.99 148.26
  Q 494.40 147.92 494.62 148.40
  Q 495.26 149.85 494.06 150.33
  Z"
/>
<path fill="#21bfd3" d="
  M 687.25 150.29
  L 685.40 150.20
  Q 685.50 148.67 686.96 148.32
  Q 687.45 148.20 687.66 148.65
  Q 688.09 149.54 687.25 150.29
  Z"
/>
<path fill="#78bf43" d="
  M 42.44 159.06
  Q 58.28 178.34 79.20 204.80
  Q 82.29 208.71 79.16 211.99
  A 1.12 1.11 26.0 0 1 78.18 212.32
  Q 76.74 212.10 75.70 210.80
  Q 55.81 186.13 35.80 160.81
  A 2.22 2.21 47.1 0 1 35.90 157.94
  C 38.26 155.34 40.59 156.80 42.44 159.06
  Z"
/>
<path fill="#78bf43" d="
  M 201.78 159.05
  C 204.40 155.85 212.20 156.40 208.49 160.99
  Q 188.27 186.01 168.07 211.07
  C 166.77 212.68 165.21 213.25 163.78 211.34
  C 161.99 208.97 162.84 207.18 164.60 205.00
  Q 190.91 172.33 201.78 159.05
  Z"
/>
<path fill="#21bfd3" d="
  M 88.78 218.22
  A 1.30 1.30 0.0 0 1 87.48 216.92
  L 87.48 216.63
  A 5.08 4.89 0.0 0 1 92.56 211.74
  L 151.44 211.74
  A 5.08 4.89 -0.0 0 1 156.52 216.63
  L 156.52 216.92
  A 1.30 1.30 0.0 0 1 155.22 218.22
  L 88.78 218.22
  Z"
/>
</svg>
