<svg xmlns="http://www.w3.org/2000/svg" role="img" viewBox="-2.26 -2.26 112.89 117.52"><title>REUSE logo</title><g stroke="none" transform="translate(-186.752 -184.518)"><path fill="#4d4d4d" fill-rule="nonzero" d="M196.839 272.412c1.237 0 2.185-.293 2.847-.878.662-.586.992-1.367.992-2.343v-.065c0-1.084-.347-1.898-1.04-2.44-.696-.542-1.66-.814-2.897-.814h-4.978v6.54h5.076zm-10.086-11.062h10.412c2.884 0 5.097.769 6.637 2.309 1.302 1.302 1.952 3.037 1.952 5.206v.066c0 1.843-.45 3.345-1.351 4.506-.899 1.161-2.076 2.011-3.53 2.554l5.565 8.134h-5.857l-4.881-7.287h-3.937v7.287h-5.01V261.35zm23.524 0h17.147v4.457h-12.201v4.621h10.737v4.457h-10.737v4.783h12.363v4.457h-17.309V261.35zm31.3 23.133c-3.058 0-5.466-.845-7.223-2.538-1.756-1.691-2.635-4.218-2.635-7.581V261.35h5.01v12.884c0 1.866.434 3.27 1.302 4.213.867.945 2.072 1.416 3.612 1.416s2.744-.456 3.611-1.367c.868-.91 1.302-2.277 1.302-4.1V261.35h5.01v12.851c0 1.737-.232 3.243-.699 4.523-.467 1.28-1.134 2.348-2.001 3.205-.867.857-1.92 1.497-3.156 1.92-1.236.422-2.614.634-4.133.634zm23.233-.032c-1.736 0-3.439-.299-5.109-.895-1.67-.596-3.189-1.513-4.555-2.749l2.961-3.547c1.041.845 2.11 1.518 3.205 2.017 1.095.499 2.293.748 3.594.748 1.042 0 1.85-.189 2.425-.568.575-.38.862-.906.862-1.578v-.066c0-.325-.059-.612-.178-.862-.12-.25-.348-.483-.684-.699-.342-.218-.808-.435-1.404-.651-.597-.217-1.378-.445-2.332-.684-1.156-.281-2.197-.596-3.135-.943-.933-.347-1.73-.776-2.38-1.286-.651-.509-1.161-1.144-1.518-1.903-.359-.759-.538-1.702-.538-2.831v-.064c0-1.042.196-1.98.58-2.815.391-.836.933-1.556 1.633-2.164.7-.607 1.54-1.073 2.51-1.399.972-.325 2.045-.489 3.216-.489 1.671 0 3.205.25 4.604.749 1.4.499 2.685 1.215 3.856 2.148l-2.603 3.774c-1.019-.694-2.017-1.242-2.994-1.643-.975-.402-1.952-.602-2.928-.602s-1.708.19-2.196.57c-.488.379-.732.851-.732 1.415v.065c0 .368.071.689.212.96.14.271.395.515.764.732.374.217.878.422 1.519.618.644.195 1.453.423 2.429.683 1.155.304 2.185.646 3.085 1.025.901.38 1.666.836 2.284 1.367.618.531 1.09 1.155 1.404 1.871.314.716.472 1.572.472 2.57v.066c0 1.128-.206 2.13-.613 3.008-.412.879-.981 1.617-1.713 2.213-.732.597-1.611 1.053-2.625 1.367-1.015.315-2.142.472-3.378.472zm12.689-23.101h17.147v4.457h-12.202v4.621h10.738v4.457h-10.738v4.783h12.365v4.457h-17.31V261.35z"/><path fill="#4d4d4d" fill-rule="nonzero" d="M190.154 297.568c-.666 0-1.275-.109-1.826-.327-.551-.219-1.077-.553-1.576-1.006l.582-.689c.437.396.877.691 1.321.887.445.193.956.291 1.534.291.564 0 1.013-.133 1.351-.399.337-.265.505-.604.505-1.017v-.024c0-.19-.031-.363-.095-.517-.063-.155-.174-.295-.335-.422-.159-.127-.379-.242-.66-.346-.283-.103-.642-.202-1.081-.297-.476-.102-.892-.223-1.244-.356-.356-.135-.647-.298-.877-.489-.23-.189-.402-.412-.514-.666-.111-.253-.166-.55-.166-.891v-.025c0-.325.068-.627.202-.903.135-.278.326-.518.571-.72.247-.203.536-.361.869-.476.333-.115.697-.172 1.094-.172.611 0 1.144.085 1.599.256.456.17.899.426 1.327.766l-.547.726c-.388-.317-.78-.547-1.171-.689-.393-.144-.803-.215-1.232-.215-.547 0-.979.129-1.297.386-.316.258-.475.578-.475.958v.024c0 .198.032.375.094.529.065.155.179.297.346.429.166.131.397.249.691.356.293.108.669.208 1.128.304.928.206 1.613.491 2.053.856.44.365.659.865.659 1.498v.025c0 .356-.07.68-.212.97-.14.289-.334.537-.582.743-.248.206-.545.365-.894.475-.35.111-.73.167-1.142.167zm13.975-.844c.475 0 .914-.09 1.314-.268.401-.179.744-.423 1.029-.732.286-.309.509-.67.672-1.082.163-.413.245-.857.245-1.332v-.024c0-.476-.082-.922-.245-1.338-.163-.417-.39-.779-.683-1.089-.294-.309-.641-.555-1.042-.737-.399-.183-.838-.274-1.315-.274-.475 0-.913.09-1.313.268-.401.178-.744.422-1.029.731-.285.309-.51.671-.672 1.083-.163.412-.244.856-.244 1.333v.023c0 .476.081.921.244 1.338.162.417.39.779.683 1.089.293.308.641.555 1.041.737.401.182.839.274 1.315.274zm-.025.868c-.633 0-1.21-.115-1.73-.345-.52-.23-.966-.542-1.338-.934-.373-.392-.66-.848-.862-1.368-.202-.519-.304-1.064-.304-1.635v-.024c0-.571.104-1.119.31-1.641.206-.524.496-.982.868-1.374.372-.393.821-.707 1.344-.941.523-.233 1.102-.351 1.737-.351s1.211.116 1.73.345c.52.231.966.542 1.338.935.373.392.661.847.864 1.367.202.52.302 1.065.302 1.637.008.007.008.014 0 .023 0 .57-.102 1.118-.308 1.641-.206.524-.496.981-.869 1.375-.373.391-.821.705-1.344.939-.524.234-1.103.351-1.738.351zm11.585-8.47h5.984v.869h-5.044v2.986h4.509v.844h-4.509v3.628h-.94v-8.327zm15.343.869h-2.796v-.869h6.531v.869h-2.795v7.458h-.94v-7.458zm10.204-.869h1.023l2.379 6.936 2.284-6.959h.773l2.284 6.959 2.379-6.936h.988l-2.975 8.386h-.797l-2.284-6.756-2.296 6.756h-.784l-2.974-8.386zm24.549 5.282l-1.89-4.247-1.904 4.247h3.794zm-2.319-5.341h.88l3.795 8.386h-1.011l-.976-2.2h-4.532l-.987 2.2h-.963l3.794-8.386zm15.158 4.306c.312 0 .598-.04.859-.119.263-.079.49-.192.68-.339.191-.146.341-.325.447-.535.108-.211.161-.45.161-.72v-.023c0-.516-.186-.918-.561-1.208-.373-.289-.897-.434-1.573-.434h-2.576v3.378h2.563zm-3.503-4.247h3.58c.516 0 .974.073 1.375.221.4.146.731.35.992.612.206.207.366.448.477.726.11.277.166.583.166.916v.023c0 .35-.056.661-.166.934-.111.274-.269.511-.471.714-.201.203-.441.369-.72.5-.276.13-.578.223-.903.279l2.558 3.402h-1.155l-2.415-3.235h-2.378v3.235h-.94v-8.327zm13.94 0h6.018v.845H290v2.867h4.544v.845H290v2.925h5.139v.845h-6.078v-8.327z"/><path fill="#f15829" fill-rule="evenodd" d="M225.821 222.069v-12.854l-11.132 6.428 11.132 6.426z"/><path fill="#bf1e2e" fill-rule="evenodd" d="M225.821 239.003v-12.856l-11.132 6.428 11.132 6.428z"/><path fill="#bb529f" fill-rule="evenodd" d="M213.512 247.47l11.134-6.428-11.134-6.428v12.856z"/><path fill="#da8d27" fill-rule="evenodd" d="M213.512 200.748v12.855l11.133-6.427-11.133-6.428z"/><path fill="#ed1b26" fill-rule="evenodd" d="M213.512 230.536l11.133-6.428-11.133-6.427v12.855z"/><path fill="#fe0" fill-rule="evenodd" d="M225.821 205.839v-12.855l-11.133 6.428 11.133 6.427z"/><path fill="#06bfed" fill-rule="evenodd" d="M240.486 214.306V201.45l-11.133 6.428 11.133 6.428z"/><path fill="#03b0db" fill-rule="evenodd" d="M253.937 207.197l-11.133-6.427v12.855l11.133-6.428z"/><path fill="#fcae40" fill-rule="evenodd" d="M213.511 184.518v12.854l11.133-6.427-11.133-6.427z"/><path fill="#0cf" fill-rule="evenodd" d="M239.309 199.411l-11.133-6.427v12.855l11.133-6.428z"/><path fill="#00a4c9" fill-rule="evenodd" d="M254.846 209.391l.001 12.854-11.134-6.427 11.133-6.427z"/><path fill="#0197b8" fill-rule="evenodd" d="M268.379 215.792l-11.133-6.428v12.856l11.133-6.428z"/><path fill="#577523" fill-rule="evenodd" d="M253.705 224.222l-11.133-6.428v12.855l11.133-6.427z"/><path fill="#75992d" fill-rule="evenodd" d="M240.486 218.099l-11.132 6.426 11.132 6.428v-12.854z"/><path fill="#98c739" fill-rule="evenodd" d="M239.677 232.848l-11.133-6.428v12.855l11.133-6.427z"/><path fill="#bbda85" fill-rule="evenodd" d="M240.507 247.508l-11.133-6.427 11.133-6.428v12.855z"/><path fill="#445c1c" fill-rule="evenodd" d="M253.705 241.081l-11.133-6.429v12.856l11.133-6.427z"/></g></svg>