<svg xmlns="http://www.w3.org/2000/svg" role="img" xmlns:xlink="http://www.w3.org/1999/xlink" viewBox="9.51 8.01 73.48 77.48"><title>Tern logo</title><defs><linearGradient id="b"><stop offset="0" stop-color="#f08b20" stop-opacity="1"/><stop offset="1" stop-color="#cb6732" stop-opacity="1"/></linearGradient><linearGradient id="a"><stop offset="0" stop-color="#1694d2" stop-opacity="1"/><stop offset="1" stop-color="#1583b5" stop-opacity="1"/></linearGradient><linearGradient id="d" x1="32.836" x2="59.836" y1="23.44" y2="23.44" gradientUnits="userSpaceOnUse" xlink:href="#a"/><linearGradient id="g" x1="32.836" x2="59.836" y1="35.471" y2="35.471" gradientUnits="userSpaceOnUse" xlink:href="#a"/><linearGradient id="f" x1="32.836" x2="59.836" y1="39.482" y2="39.482" gradientUnits="userSpaceOnUse" xlink:href="#a"/><linearGradient id="e" x1="32.836" x2="59.836" y1="43.492" y2="43.492" gradientUnits="userSpaceOnUse" xlink:href="#a"/><linearGradient id="h" x1="32.836" x2="59.836" y1="27.45" y2="27.45" gradientUnits="userSpaceOnUse" xlink:href="#a"/><linearGradient id="c" x1="32.465" x2="59.465" y1="18.171" y2="18.171" gradientTransform="translate(.37 13.29)" gradientUnits="userSpaceOnUse" xlink:href="#b"/></defs><g fill-opacity="1" stroke="#000" stroke-dasharray="none" stroke-miterlimit="4" stroke-opacity="1" stroke-width="0"><g opacity=".996"><path fill="#717174" d="M46.10156 9.5a24 24 0 0 0-23.78906 24 24 24 0 0 0 24 24 24 24 0 0 0 24-24 24 24 0 0 0-24-24 24 24 0 0 0-.21094 0zm.21094 4.41016A19.58923 19.58923 0 0 1 65.90234 33.5 19.58923 19.58923 0 0 1 46.3125 53.08984 19.58923 19.58923 0 0 1 26.7246 33.5a19.58923 19.58923 0 0 1 19.5879-19.58984z" opacity="1"/><rect width="27" height="2.947" x="32.836" y="29.987" fill="url(#c)" rx="0"/><rect width="27" height="2.947" x="32.836" y="21.966" fill="url(#d)" opacity="1" rx="0"/><rect width="27" height="2.947" x="32.836" y="42.019" fill="url(#e)" rx="0"/><rect width="27" height="2.947" x="32.836" y="38.008" fill="url(#f)" rx="0"/><rect width="27" height="2.947" x="32.836" y="33.998" fill="url(#g)" rx="0"/><rect width="27" height="2.947" x="32.836" y="25.977" fill="url(#h)" rx="0"/></g><g fill="#717174" transform="translate(-68.15 9.013)"><path d="M80.21326 56.04329a1.02045 1.02045 0 0 0-1.02149 1.02148 1.02045 1.02045 0 0 0 1.02149 1.01953h5.47851v15.99415a1.02045 1.02045 0 0 0 1.02149 1.02148 1.02045 1.02045 0 0 0 1.01953-1.02148V58.0843h5.67969a1.02045 1.02045 0 0 0 1.02148-1.01953 1.02045 1.02045 0 0 0-1.02148-1.02148z" opacity="1"/><path d="M98.71326 56.04329a1.02045 1.02045 0 0 0-1.02149 1.01953v17.01563a1.02045 1.02045 0 0 1 0 .002 1.02045 1.02045 0 0 0 1.02149 1.01953h11.49804a1.02045 1.02045 0 0 0 1.02148-1.01954 1.02045 1.02045 0 0 0-1.02148-1.02148H99.73279v-6.42773h9.27929a1.02045 1.02045 0 0 0 .002 0 1.02045 1.02045 0 0 0 1.01954-1.01954 1.02045 1.02045 0 0 0-1.01954-1.01953h-9.2813V58.0843h10.47852a1.02045 1.02045 0 0 0 1.02148-1.02148 1.02045 1.02045 0 0 0-1.02148-1.01953z"/><path d="M115.72693 56.04329a1.02045 1.02045 0 0 0-1.01954 1.01953V74.0804a1.02045 1.02045 0 0 0 1.01954 1.01953 1.02045 1.02045 0 0 0 1.02148-1.01953v-6.2539h5.87109l5.22071 6.77929a1.02045 1.02045 0 0 0 .875.49414 1.02045 1.02045 0 0 0 1.01953-1.01953 1.02045 1.02045 0 0 0-.19727-.60352l-.0137-.01953a1.02045 1.02045 0 0 0-.0156-.01758l-4.38867-5.70117a5.89136 5.89136 0 0 0 4.87305-5.80469 5.89136 5.89136 0 0 0-5.89062-5.89062 5.89136 5.89136 0 0 0-.0703 0zm1.02148 2.04101h7.02539v.01563a3.8505 3.8505 0 0 1 .32813-.01563 3.8505 3.8505 0 0 1 3.85156 3.84961 3.8505 3.8505 0 0 1-3.85156 3.85157 3.8505 3.8505 0 0 1-.32813-.01367v.01367h-7.02539z"/><path d="M134.71325 56.04329a1.02045 1.02045 0 0 0-1.02148 1.01953v17.01367a1.02045 1.02045 0 0 0 0 .0039 1.02045 1.02045 0 0 0 1.02148 1.01953 1.02045 1.02045 0 0 0 1.01953-1.01953 1.02045 1.02045 0 0 0 0-.0039V59.38118c12.14786 15.26853 12.11234 15.2329 12.11329 15.23437a1.02045 1.02045 0 0 0 .15039.18946 1.02045 1.02045 0 0 0 .71679.29492 1.02045 1.02045 0 0 0 1.01953-1.01953 1.02045 1.02045 0 0 0 0-.0039V57.06477a1.02045 1.02045 0 0 0-1.01953-1.02148 1.02045 1.02045 0 0 0-1.02148 1.02148v14.60157l-12.16992-15.22461a1.02045 1.02045 0 0 0-.0332-.04102 1.02045 1.02045 0 0 0-.77539-.35743z"/></g></g></svg>